<?xml version="1.0" encoding="utf-8"?>
<!-- Generator: Adobe Illustrator 23.0.5, SVG Export Plug-In . SVG Version: 6.00 Build 0)  -->
<svg version="1.1" id="Layer_1" xmlns="http://www.w3.org/2000/svg" xmlns:xlink="http://www.w3.org/1999/xlink" x="0px" y="0px"
	 viewBox="0 0 1000 1000" style="enable-background:new 0 0 1000 1000;" xml:space="preserve">
<style type="text/css">
	.st0{fill:#FFD283;}
	.st1{fill:#F7AF41;}
	.st2{opacity:0.3;}
	.st3{fill:#6C184E;}
	.st4{fill:#FFCE00;}
	.st5{opacity:0.65;}
	.st6{fill:#FFFFFF;}
	.st7{fill:#EE1822;}
	.st8{fill:#BD1622;}
	.st9{fill:#F6C547;}
	.st10{fill:#48C75A;}
	.st11{fill:#661A47;}
	.st12{fill:#651B47;}
	.st13{fill:#EB984E;}
	.st14{fill:#6D184E;}
</style>
<g>
	<g>
		<g>
			<rect class="st0" width="1000" height="1000"/>
		</g>
	</g>
	<g>
		<g>
			<g>
				<path class="st1" d="M172.69,728.34c0,0-14.04,44.63,90.49-19.32s365.44-112.84,488.86-97.23
					c123.43,15.61,36.29-277.78-55.31-324.88S318.62,443.19,172.69,728.34z"/>
			</g>
			<g class="st2">
				<path class="st3" d="M180.99,718.47c0,0-22.34,54.51,82.19-9.45s365.44-112.84,488.86-97.23
					c123.43,15.61,36.29-277.78-55.31-324.88S326.92,433.31,180.99,718.47z"/>
			</g>
			<g>
				<path class="st3" d="M190.72,744.81c-5.49,0-9.83-1.31-13.06-3.92c-9.85-7.97-4.52-23.51-4.29-24.16
					c0.07-0.2,0.16-0.4,0.25-0.59c67.07-131.07,153.61-227.01,214.4-284.41c77.03-72.75,158.31-126.41,223.01-147.24
					c37.34-12.02,66.91-12.64,87.9-1.85c33.27,17.1,67.97,66.01,92.85,130.83c24.37,63.51,32.38,126.01,20.89,163.09
					c-8.28,26.73-25.96,40.63-51.41,40.63c-3.15,0-6.42-0.21-9.82-0.64c-127-16.06-385.76,35.38-485.76,96.56
					C231.04,734.32,206.27,744.81,190.72,744.81z M182.34,720.19c-0.89,2.8-2.29,10.3,1.38,13.25c3.08,2.47,17.73,7.73,76.97-28.52
					c49.54-30.31,136.63-59.13,238.93-79.07c99.05-19.3,193.64-26.35,253.04-18.83c25.87,3.26,42.99-7.93,50.84-33.3
					c10.88-35.13,2.95-95.21-20.68-156.81C759.12,355.17,725.3,307,694.54,291.18c-18.38-9.45-46.24-8.6-80.57,2.45
					c-63.38,20.4-143.33,73.28-219.36,145.08C334.43,495.55,248.76,590.51,182.34,720.19z"/>
			</g>
			<g>
				<g>
					<path class="st4" d="M703.21,343.11c-14.51-3.33,1.44-8.78-17.79-27.96c-19.23-19.18-40.37-3.41-40.37-3.41
						c3.43-7.03,4.21-13.56,0.53-18.72c-16.55-23.18-60-8.67-75.9-27.27c-15.9-18.6-53.87-1.54-53.87-1.54
						S289.1,399.52,224.19,555.4c-64.9,155.88-59.95,203.72-31.74,192.93c28.21-10.79,49-35.11,69.66-15.95s-5.14,55.08,19.84,72.78
						c13.99,9.91,46.38-7.88,30.81-34.44c-15.56-26.56-36.17-75.79-1.26-102.2c34.91-26.41,115.07-40.46,110.33-3.37
						c-11.73,91.92,86.06,52.94,55.69,14.09c-25.8-32.99-2.06-90.9,55.45-59.02c48.28,26.76,42.14-9.68,89.76-25.33
						c35.52-11.67,100.89-12.05,100.89-12.05c45.87-26.94,4.4-40.24,4.4-40.24s38.44-29.6,28.8-50.04
						c-9.64-20.45-4.96-52.66-4.11-85.27S717.72,346.44,703.21,343.11z"/>
				</g>
				<g class="st2">
					<path class="st3" d="M703.21,343.11c-14.51-3.33,1.44-8.78-17.79-27.96c-19.23-19.18-40.37-3.41-40.37-3.41
						c3.43-7.03,4.21-13.56,0.53-18.72c-16.55-23.18-60-8.67-75.9-27.27c-15.9-18.6-53.87-1.54-53.87-1.54s-5.27,3.15-14.43,9.03
						c70.93,18.64,217.33,78.4,190.38,291.14c0,0-283.14,20.32-360.98,68.69c-55.98,34.79-112.25,100.19-155.9,108.59
						c3.12,8,9.35,9.83,17.56,6.69c28.21-10.79,49-35.11,69.66-15.95s-5.14,55.08,19.84,72.78c13.99,9.91,46.38-7.88,30.81-34.44
						c-15.56-26.56-36.17-75.79-1.26-102.2c34.91-26.41,115.07-40.46,110.33-3.37c-11.73,91.92,86.06,52.94,55.69,14.09
						c-25.8-32.99-2.06-90.9,55.45-59.02c48.28,26.76,42.14-9.68,89.76-25.33c35.52-11.67,100.89-12.05,100.89-12.05
						c45.87-26.94,4.4-40.24,4.4-40.24s38.44-29.6,28.8-50.04c-9.64-20.45-4.96-52.66-4.11-85.27S717.72,346.44,703.21,343.11z"/>
				</g>
				<g class="st5">
					<g>
						<path class="st6" d="M715.61,350.4c1.26,0.29,2.69,0.78,4.24,1.43c-3.99-2.91-7.82-5.2-11.17-6.75
							C708.99,347.57,710.12,349.14,715.61,350.4z"/>
					</g>
					<g>
						<path class="st6" d="M740.81,550.04c-0.08-0.08-0.16-0.16-0.25-0.24c-0.09,0.07-0.14,0.11-0.14,0.11
							S740.56,549.95,740.81,550.04z"/>
					</g>
					<g>
						<path class="st6" d="M657.45,319.02c0,0,12.4-9.23,26.84-4.95c-8.38-7.74-17.02-9.09-24.06-8.18
							C660.84,309.88,659.74,314.34,657.45,319.02z"/>
					</g>
					<g>
						<path class="st6" d="M642.3,289.21c-14.35-13.82-41.32-9.76-59.61-15.54C595.1,287.02,622.6,282.28,642.3,289.21z"/>
					</g>
					<g>
						<path class="st6" d="M515.82,264.19c0,0-100.91,60.23-187.35,146.61c-1.68,1.26-3.31,2.7-4.83,4.34
							c-0.96,1.04-1.82,2.11-2.62,3.21c-40.2,41.3-76.47,88.16-96.82,137.04c-60.95,146.38-60.29,197.49-36.62,194.24
							c-8.16-18.83,2.43-75.06,49.02-186.94c17.52-42.08,46.84-82.67,80.31-119.5c0.69,1.26,1.55,2.41,2.62,3.41
							c7.43,6.88,21.33,3.95,31.04-6.55c9.71-10.49,11.55-24.58,4.12-31.45c-0.73-0.67-1.53-1.22-2.37-1.71
							c83.66-80.34,170.05-141.88,170.05-141.88s29.33-4.06,47.09,0.48C553.42,247.31,515.82,264.19,515.82,264.19z"/>
					</g>
				</g>
				<g>
					<path class="st3" d="M291.6,812.74c-4.6,0-8.95-1.19-12.42-3.65c-15.21-10.78-14.28-27.29-13.46-41.85
						c0.69-12.19,1.34-23.71-6.87-31.33c-11.54-10.7-22.61-5.29-41.19,5.21c-7.36,4.15-14.97,8.45-23.48,11.71
						c-10.21,3.91-16.31,0.66-19.63-2.76c-21.18-21.8,12.9-118.89,45.22-196.5c33.91-81.43,112-156.93,171.53-205.92
						c64.33-52.93,121.49-87.22,122.06-87.56c0.16-0.1,0.32-0.18,0.49-0.26c1.68-0.76,41.46-18.29,59.49,2.81
						c6.24,7.29,18.71,8.6,31.92,9.98c16.04,1.68,34.22,3.58,44.24,17.62c2.57,3.6,3.66,7.74,3.26,12.38
						c10.06-3.19,23.82-3.07,36.06,9.14c11.52,11.49,11.89,19.22,12.11,23.83c0.03,0.59,0.07,1.37,0.13,1.77
						c0.3,0.18,1.15,0.6,3.23,1.08l0,0c16.71,3.84,54.14,33.89,53.22,69c-0.19,7.21-0.56,14.41-0.92,21.38
						c-1.25,24.09-2.43,46.85,4.58,61.72c8.71,18.48-12.8,40.81-24.14,50.85c5.49,3.06,12.03,8.3,12.9,16.17
						c1.08,9.75-6.73,19.38-23.87,29.45c-0.73,0.43-1.56,0.66-2.4,0.66c-0.65,0-65.03,0.51-99.42,11.81
						c-17.13,5.63-26.74,13.92-35.22,21.24c-15.78,13.62-27.04,21.09-58.37,3.72c-21.47-11.9-39.93-11.52-50.66,1.04
						c-11.25,13.17-10.67,35.49,1.32,50.82c8.78,11.23,9.17,24.35,1.05,35.1c-9.86,13.05-29.01,18.61-43.6,12.67
						c-10.4-4.24-27.04-17.6-21.69-59.51c0.77-6.07-1.17-10.23-6.11-13.1c-18.24-10.56-69.67,0.57-96.56,20.91
						c-33.59,25.41-9.43,75.56,2.51,95.94c7.67,13.08,6.1,26.53-4.19,35.97C306.69,809.8,298.84,812.74,291.6,812.74z
						 M245.55,720.49c6.66,0,13.29,2.31,19.83,8.38c11.53,10.69,10.68,25.69,9.93,38.92c-0.78,13.82-1.46,25.76,9.42,33.47
						c5.22,3.69,15.06,1.84,21.49-4.06c4-3.67,9.64-11.68,2.4-24.04c-13.24-22.59-39.75-78.4-0.02-108.45
						c27.6-20.88,83.59-35.21,107.17-21.56c8.35,4.84,12.1,12.66,10.83,22.62c-3.36,26.34,2.24,43.88,15.78,49.4
						c10.57,4.31,25.07,0.02,32.32-9.57c3.18-4.21,7.29-12.85-0.96-23.39c-14.7-18.79-15.16-46.45-1.06-62.97
						c13.76-16.12,37.17-17.31,62.62-3.2c27.06,15,33.87,9.12,47.44-2.59c8.71-7.52,19.54-16.87,38.5-23.1
						c33.46-10.99,91.34-12.16,101.05-12.28c16.48-9.9,18.43-16.42,18.1-19.45c-0.64-5.87-10.45-10.33-13.83-11.43
						c-1.69-0.55-2.95-1.99-3.25-3.75c-0.3-1.75,0.38-3.53,1.79-4.62c9.17-7.08,33.89-30.38,27.39-44.19
						c-8.04-17.06-6.8-40.99-5.48-66.32c0.36-6.91,0.73-14.05,0.91-21.13c0.76-29.22-32.21-56.27-45.77-59.39
						c-8.71-2-10.52-5.67-10.81-11.75c-0.17-3.64-0.41-8.63-9.3-17.49c-15.98-15.93-33.39-3.49-34.12-2.95
						c-1.78,1.31-4.23,1.24-5.93-0.18c-1.69-1.42-2.21-3.8-1.24-5.78c4.39-8.98,1.79-12.63,0.93-13.82
						c-7.51-10.51-22.04-12.04-37.42-13.65c-14.5-1.52-29.49-3.09-38.22-13.3c-11.03-12.9-38.13-4.76-47.99-0.4
						c-4.08,2.46-59.08,35.92-120.76,86.68c-58.65,48.28-135.53,122.53-168.66,202.1c-23.75,57.05-39.47,102.77-46.72,135.88
						c-8.18,37.36-3.06,47.58-0.47,50.24c0.71,0.73,2.86,2.94,9.31,0.48c7.84-3,15.14-7.12,22.19-11.1
						C223.67,726.68,234.65,720.49,245.55,720.49z"/>
				</g>
			</g>
			<g>
				<path class="st3" d="M550.03,579.64c27.43-4.95,54.96-9.4,82.65-12.98c13.84-1.78,27.73-3.35,41.66-4.56
					c13.94-1.21,27.93-2.09,41.99-2.36c2.32-0.04,4.24,1.8,4.28,4.12c0.04,2.32-1.8,4.24-4.12,4.28c-0.07,0-0.13,0-0.2,0l-0.03,0
					c-13.8-0.43-27.67-0.26-41.54,0.25c-13.87,0.51-27.75,1.37-41.62,2.45C605.37,573.02,577.67,576.08,550.03,579.64z"/>
			</g>
		</g>
		<g class="st2">
			<g>
				<path class="st3" d="M638.59,286.76c0,0,0.14-0.1,0.39-0.27c-0.07-0.05-0.13-0.1-0.19-0.14
					C638.72,286.49,638.66,286.62,638.59,286.76z"/>
			</g>
			<g>
				<path class="st3" d="M746.24,382.33c-0.85,32.61-5.53,64.83,4.11,85.27c0.52,1.1,0.89,2.23,1.14,3.37
					c-1.82-18.48,0.62-40.98,1.21-63.68c0.24-9.01-2.34-17.67-6.48-25.58C746.24,381.92,746.25,382.12,746.24,382.33z"/>
			</g>
			<g>
				<path class="st3" d="M751.9,474.46c0.27,19.6-30.34,43.18-30.34,43.18s16.03,5.14,17.13,15.51
					c10.57-10.4,24.36-27.4,18.14-40.59C754.32,487.27,752.79,481.16,751.9,474.46z"/>
			</g>
		</g>
		<g>
			<g>
				
					<ellipse transform="matrix(0.8397 -0.543 0.543 0.8397 -108.3324 354.6186)" class="st7" cx="546.58" cy="360.83" rx="69.87" ry="55.76"/>
			</g>
			<g class="st5">
				<path class="st6" d="M556.77,415.85c-34.27,8.88-64.34-8.33-67.17-38.43c-2.83-30.11,22.66-61.71,56.93-70.59
					c25.2-6.53,48.12,1.06,59.62,17.5c-11.48-19.32-36.9-28.58-65-21.3c-36.34,9.42-63.37,42.93-60.37,74.86
					c3,31.92,34.89,50.17,71.23,40.75c9.59-2.49,18.53-6.66,26.44-12.03C571.82,410.66,564.52,413.84,556.77,415.85z"/>
			</g>
			<g>
				<path class="st8" d="M552.04,316.14l7.93,84.48c22.19-9.71,37.57-31.56,35.61-52.5C593.61,327.19,574.95,314.16,552.04,316.14z"
					/>
			</g>
			<g>
				<path class="st8" d="M532.18,321.48c-21.65,9.92-36.54,31.42-34.6,52.05c1.94,20.62,20.07,33.57,42.5,32.07L532.18,321.48z"/>
			</g>
			<g>
				<path class="st8" d="M532.18,321.48c-21.65,9.92-36.54,31.42-34.6,52.05c1.94,20.62,20.07,33.57,42.5,32.07L532.18,321.48z"/>
			</g>
			<g>
				<path class="st7" d="M535.22,349.66c-7.09,3.25-11.97,10.3-11.34,17.05c0.63,6.76,6.57,11,13.93,10.51L535.22,349.66z"/>
			</g>
			<g>
				<path class="st7" d="M554.32,344.71c7.35-0.49,13.29,3.75,13.93,10.51c0.63,6.76-4.25,13.8-11.34,17.05L554.32,344.71z"/>
			</g>
			<g>
				<path class="st3" d="M533.16,425.18c-13.23,0-25.57-3.58-35.46-10.52c-12.13-8.51-19.58-21.44-20.99-36.4
					c-3.17-33.78,25.27-69.3,63.41-79.18c20.44-5.3,40.6-2.41,55.32,7.92c12.13,8.51,19.58,21.44,20.99,36.4
					c3.17,33.78-25.27,69.3-63.41,79.18C546.32,424.32,539.63,425.18,533.16,425.18z M560.01,304.63c-5.79,0-11.79,0.77-17.84,2.34
					c-34.43,8.92-60.15,40.56-57.34,70.53c1.18,12.55,7.41,23.37,17.55,30.49c12.76,8.96,30.48,11.4,48.6,6.7
					c34.43-8.92,60.15-40.56,57.34-70.53c-1.18-12.54-7.41-23.37-17.55-30.49C582.27,307.71,571.56,304.63,560.01,304.63z"/>
			</g>
			<g>
				<g>
					<path class="st9" d="M524.63,387.15c0.47,1.22,0.8,2.4,1.06,3.57c0.29,1.18,0.48,2.33,0.4,3.42c-0.12,1.62-1.54,2.83-3.16,2.71
						c-1.62-0.12-2.83-1.54-2.71-3.15c0.02-0.27,0.08-0.54,0.17-0.79c0.38-1.03,1.02-2,1.78-2.95
						C522.91,389.01,523.7,388.06,524.63,387.15z"/>
				</g>
				<g>
					<path class="st9" d="M515.3,378.64c-0.18,1.3-0.48,2.49-0.82,3.65c-0.32,1.18-0.72,2.28-1.33,3.2
						c-0.9,1.35-2.72,1.72-4.07,0.82c-1.35-0.9-1.72-2.72-0.82-4.07c0.15-0.23,0.34-0.43,0.53-0.6c0.84-0.72,1.88-1.26,3.01-1.72
						C512.89,379.43,514.04,378.98,515.3,378.64z"/>
				</g>
				<g>
					<path class="st9" d="M512.81,365.03c-0.76,0.98-1.55,1.81-2.37,2.59c-0.81,0.8-1.65,1.5-2.57,1.94
						c-1.47,0.69-3.22,0.06-3.92-1.41c-0.69-1.47-0.06-3.23,1.41-3.92c0.27-0.13,0.56-0.21,0.83-0.25c1.01-0.14,2.09-0.03,3.21,0.2
						C510.52,364.37,511.64,364.63,512.81,365.03z"/>
				</g>
				<g>
					<path class="st9" d="M518.04,351.11c-1.13,0.33-2.2,0.51-3.25,0.64c-1.06,0.16-2.08,0.21-3,0.01c-1.59-0.35-2.6-1.93-2.24-3.52
						c0.35-1.59,1.93-2.59,3.52-2.24c0.31,0.07,0.61,0.19,0.88,0.35c0.81,0.48,1.51,1.22,2.18,2.06
						C516.79,349.22,517.44,350.09,518.04,351.11z"/>
				</g>
				<g>
					<path class="st9" d="M529.15,341.75c-1.09-0.51-2.06-1.1-2.97-1.71c-0.93-0.6-1.77-1.25-2.36-2.03
						c-0.98-1.3-0.73-3.15,0.57-4.13c1.3-0.98,3.15-0.73,4.13,0.57c0.18,0.24,0.33,0.52,0.43,0.79c0.33,0.93,0.42,1.98,0.4,3.09
						C529.36,339.43,529.32,340.55,529.15,341.75z"/>
				</g>
			</g>
			<g>
				<g>
					<path class="st9" d="M572.21,374.7c1.06,0.62,1.99,1.29,2.87,1.99c0.9,0.69,1.7,1.43,2.24,2.27c0.88,1.37,0.49,3.19-0.88,4.07
						c-1.37,0.88-3.19,0.49-4.07-0.88c-0.16-0.25-0.28-0.53-0.36-0.8c-0.27-0.97-0.29-2.06-0.21-3.19
						C571.85,377.05,571.96,375.91,572.21,374.7z"/>
				</g>
				<g>
					<path class="st9" d="M579.35,361.78c1.15-0.21,2.24-0.29,3.3-0.31c1.07-0.05,2.09,0,2.98,0.29c1.55,0.51,2.39,2.18,1.88,3.72
						s-2.18,2.39-3.72,1.88c-0.31-0.1-0.59-0.25-0.84-0.44c-0.75-0.56-1.38-1.37-1.96-2.27
						C580.41,363.78,579.84,362.84,579.35,361.78z"/>
				</g>
				<g>
					<path class="st9" d="M579.18,347.38c0.8-0.91,1.63-1.67,2.47-2.37c0.84-0.73,1.7-1.35,2.61-1.7c1.52-0.58,3.22,0.18,3.81,1.7
						c0.58,1.52-0.18,3.22-1.69,3.81c-0.29,0.11-0.59,0.17-0.88,0.19c-0.98,0.06-2.02-0.15-3.08-0.47
						C581.36,348.23,580.29,347.88,579.18,347.38z"/>
				</g>
				<g>
					<path class="st9" d="M571.77,336.57c0.23-1.27,0.56-2.43,0.93-3.55c0.36-1.14,0.79-2.2,1.42-3.07c0.96-1.31,2.79-1.6,4.11-0.65
						c1.31,0.96,1.6,2.8,0.65,4.11c-0.16,0.22-0.36,0.43-0.57,0.59c-0.85,0.66-1.9,1.13-3.03,1.52
						C574.18,335.94,573.03,336.31,571.77,336.57z"/>
				</g>
				<g>
					<path class="st9" d="M559.7,333.14c-0.42-1.24-0.7-2.44-0.92-3.62c-0.25-1.19-0.39-2.36-0.26-3.45
						c0.19-1.61,1.65-2.77,3.26-2.58c1.61,0.19,2.77,1.65,2.58,3.26c-0.03,0.27-0.1,0.54-0.2,0.78c-0.42,1.02-1.11,1.97-1.9,2.89
						C561.5,331.34,560.67,332.26,559.7,333.14z"/>
				</g>
			</g>
			<g>
				<path class="st8" d="M559.97,404.71c-0.72,0-1.43-0.19-2.07-0.56c-1.13-0.66-1.87-1.83-1.99-3.13l-7.93-84.48
					c-0.1-1.08,0.23-2.16,0.93-2.99c0.7-0.83,1.7-1.36,2.78-1.45c25.64-2.22,45.8,12.78,47.95,35.67
					c2.09,22.25-13.9,46.06-38.03,56.61C561.09,404.59,560.53,404.71,559.97,404.71z M556.5,320.02l6.98,74.33
					c18.09-10.05,29.66-28.57,28.04-45.84c-1.6-16.99-16.02-28.49-34.96-28.49C556.54,320.02,556.52,320.02,556.5,320.02z"/>
			</g>
			<g>
				<path class="st8" d="M536.57,409.79c-23.22,0-41.06-14.62-43.05-35.88c-2.08-22.13,13.12-45.21,36.96-56.13
					c1.2-0.55,2.59-0.49,3.74,0.18c1.14,0.66,1.9,1.83,2.02,3.15l7.9,84.11c0.1,1.1-0.24,2.19-0.95,3.02
					c-0.71,0.84-1.73,1.35-2.83,1.43C539.08,409.75,537.81,409.79,536.57,409.79z M528.68,327.88
					c-17.48,10.17-28.63,28.44-27.05,45.26c1.58,16.86,15.31,28.14,33.98,28.48L528.68,327.88z"/>
			</g>
		</g>
		<g>
			<g>
				
					<ellipse transform="matrix(0.8397 -0.543 0.543 0.8397 -213.4666 299.6587)" class="st7" cx="400.91" cy="511.45" rx="65.36" ry="52.16"/>
			</g>
			<g class="st5">
				<path class="st6" d="M410.44,562.92c-32.06,8.31-60.19-7.79-62.83-35.95c-2.64-28.16,21.2-57.72,53.26-66.03
					c23.57-6.11,45.01,0.99,55.77,16.37c-10.74-18.07-34.52-26.73-60.8-19.93c-33.99,8.81-59.28,40.16-56.47,70.02
					c2.8,29.86,32.64,46.93,66.63,38.12c8.97-2.33,17.33-6.23,24.73-11.26C424.52,558.06,417.69,561.04,410.44,562.92z"/>
			</g>
			<g>
				<path class="st8" d="M406.02,469.65l7.42,79.03c20.75-9.08,35.15-29.52,33.31-49.11C444.9,479.99,427.45,467.8,406.02,469.65z"
					/>
			</g>
			<g>
				<path class="st8" d="M387.44,474.65c-20.25,9.28-34.18,29.39-32.37,48.68c1.81,19.29,18.77,31.4,39.76,30L387.44,474.65z"/>
			</g>
			<g>
				<path class="st8" d="M387.44,474.65c-20.25,9.28-34.18,29.39-32.37,48.68c1.81,19.29,18.77,31.4,39.76,30L387.44,474.65z"/>
			</g>
			<g>
				<path class="st7" d="M390.28,501c-6.63,3.04-11.2,9.63-10.6,15.95c0.59,6.32,6.15,10.29,13.03,9.83L390.28,501z"/>
			</g>
			<g>
				<path class="st7" d="M408.15,496.37c6.88-0.46,12.43,3.51,13.03,9.83c0.59,6.32-3.97,12.91-10.6,15.95L408.15,496.37z"/>
			</g>
			<g>
				<path class="st3" d="M388.36,572.03c-12.46,0-24.08-3.37-33.39-9.91c-11.44-8.03-18.47-20.22-19.8-34.33
					c-2.98-31.78,23.75-65.19,59.6-74.48c19.23-4.98,38.21-2.26,52.07,7.47c11.44,8.03,18.47,20.22,19.8,34.33l0,0
					c2.98,31.78-23.75,65.19-59.6,74.48C400.73,571.23,394.44,572.03,388.36,572.03z M413.47,459.27c-5.38,0-10.96,0.72-16.59,2.18
					c-32.03,8.3-55.96,37.71-53.34,65.56c1.09,11.62,6.86,21.65,16.26,28.24c11.85,8.31,28.3,10.57,45.14,6.21
					c32.03-8.3,55.96-37.71,53.34-65.56l0,0c-1.09-11.62-6.86-21.65-16.26-28.24C434.13,462.13,424.2,459.27,413.47,459.27z"/>
			</g>
			<g>
				<g>
					<path class="st9" d="M386.25,537.3c0.65,0.94,1.17,1.89,1.64,2.85c0.49,0.95,0.91,1.91,1.08,2.88
						c0.24,1.32-0.64,2.57-1.95,2.81c-1.31,0.24-2.57-0.64-2.81-1.95c-0.04-0.2-0.04-0.4-0.03-0.59c0.07-0.98,0.38-1.98,0.75-2.98
						C385.29,539.32,385.71,538.31,386.25,537.3z"/>
				</g>
				<g>
					<path class="st9" d="M375.36,532.92c0.06,1.19,0.01,2.32-0.08,3.44c-0.08,1.12-0.22,2.2-0.58,3.18
						c-0.46,1.25-1.85,1.89-3.1,1.43c-1.25-0.46-1.89-1.85-1.43-3.1c0.06-0.18,0.16-0.35,0.25-0.5c0.58-0.87,1.37-1.62,2.22-2.35
						C373.48,534.28,374.36,533.57,375.36,532.92z"/>
				</g>
				<g>
					<path class="st9" d="M369.57,522.09c-0.5,1.04-1.07,1.97-1.66,2.87c-0.59,0.9-1.21,1.75-1.97,2.4
						c-1.02,0.86-2.54,0.74-3.41-0.28c-0.86-1.02-0.74-2.54,0.28-3.41c0.15-0.13,0.32-0.24,0.49-0.32c0.89-0.44,1.92-0.68,2.98-0.86
						C367.34,522.28,368.42,522.13,369.57,522.09z"/>
				</g>
				<g>
					<path class="st9" d="M370.92,508.6c-0.91,0.57-1.82,1.01-2.72,1.4c-0.91,0.41-1.81,0.75-2.71,0.84
						c-1.33,0.14-2.52-0.82-2.66-2.15c-0.14-1.33,0.82-2.52,2.15-2.66c0.22-0.02,0.44-0.01,0.65,0.02c0.89,0.15,1.77,0.54,2.65,1
						C369.16,507.49,370.04,507.99,370.92,508.6z"/>
				</g>
				<g>
					<path class="st9" d="M378.92,497.2c-1.05-0.15-2.01-0.38-2.94-0.66c-0.94-0.27-1.83-0.58-2.56-1.08
						c-1.11-0.75-1.39-2.26-0.64-3.37c0.75-1.11,2.26-1.39,3.37-0.64c0.18,0.13,0.35,0.28,0.49,0.44c0.57,0.68,0.97,1.53,1.33,2.44
						C378.33,495.24,378.67,496.18,378.92,497.2z"/>
				</g>
			</g>
			<g>
				<g>
					<path class="st9" d="M424.88,524.43c0.92,0.61,1.74,1.27,2.5,1.95c0.78,0.67,1.49,1.37,1.99,2.18c0.7,1.14,0.34,2.63-0.8,3.33
						c-1.14,0.7-2.63,0.34-3.33-0.79c-0.11-0.18-0.2-0.38-0.25-0.57c-0.27-0.9-0.32-1.9-0.31-2.93
						C424.68,526.57,424.73,525.53,424.88,524.43z"/>
				</g>
				<g>
					<path class="st9" d="M431.56,512.34c1.04-0.13,2.03-0.14,2.99-0.12c0.97,0.02,1.91,0.09,2.74,0.38
						c1.26,0.45,1.92,1.83,1.48,3.09c-0.45,1.26-1.83,1.92-3.09,1.48c-0.21-0.08-0.42-0.19-0.59-0.31
						c-0.71-0.51-1.32-1.23-1.89-2.02C432.61,514.08,432.06,513.27,431.56,512.34z"/>
				</g>
				<g>
					<path class="st9" d="M431.41,498.88c0.76-0.77,1.55-1.42,2.35-2.03c0.8-0.62,1.61-1.16,2.47-1.47c1.26-0.45,2.65,0.2,3.1,1.46
						c0.45,1.26-0.2,2.65-1.46,3.1c-0.2,0.07-0.42,0.12-0.62,0.13c-0.91,0.07-1.88-0.09-2.86-0.32
						C433.41,499.53,432.42,499.26,431.41,498.88z"/>
				</g>
				<g>
					<path class="st9" d="M424.47,488.76c0.27-1.13,0.62-2.17,1.02-3.18c0.38-1.02,0.81-1.99,1.42-2.79
						c0.81-1.06,2.32-1.27,3.39-0.46c1.06,0.81,1.27,2.32,0.47,3.39c-0.12,0.16-0.26,0.3-0.4,0.42c-0.78,0.63-1.74,1.09-2.74,1.51
						C426.62,488.07,425.59,488.46,424.47,488.76z"/>
				</g>
				<g>
					<path class="st9" d="M413.19,485.55c-0.32-1.14-0.52-2.25-0.67-3.34c-0.16-1.1-0.26-2.18-0.12-3.2
						c0.18-1.32,1.4-2.25,2.72-2.07c1.32,0.18,2.25,1.4,2.07,2.72c-0.03,0.19-0.08,0.38-0.14,0.55c-0.37,0.96-0.98,1.86-1.66,2.74
						C414.73,483.84,414.02,484.71,413.19,485.55z"/>
				</g>
			</g>
			<g>
				<path class="st8" d="M413.44,552.89c-0.74,0-1.48-0.2-2.13-0.58c-1.16-0.68-1.92-1.89-2.05-3.23l-7.42-79.03
					c-0.1-1.11,0.24-2.23,0.96-3.09c0.72-0.86,1.75-1.4,2.86-1.49c24.19-2.1,43.24,12.09,45.27,33.72
					c1.97,20.97-13.09,43.41-35.8,53.35C414.58,552.77,414.01,552.89,413.44,552.89z M410.61,473.67l6.43,68.5
					c16.49-9.39,27-26.37,25.51-42.21C441.1,484.4,427.94,473.83,410.61,473.67z"/>
			</g>
			<g>
				<path class="st8" d="M391.54,557.64c-21.92,0-38.77-13.82-40.65-33.91c-1.96-20.86,12.35-42.61,34.8-52.9
					c1.24-0.57,2.67-0.5,3.85,0.18c1.18,0.68,1.95,1.89,2.08,3.25l7.39,78.68c0.11,1.13-0.25,2.25-0.98,3.12s-1.79,1.39-2.92,1.47
					C393.9,557.6,392.71,557.64,391.54,557.64z M383.84,481.28c-15.92,9.5-26.03,26.24-24.59,41.66
					c1.45,15.43,13.94,25.8,30.97,26.28L383.84,481.28z"/>
			</g>
		</g>
		<g>
			<g>
				<g>
					<path class="st10" d="M314.81,502.92c-44.4,1.82-45.27,24.33-31.17,59.06C310.31,550.85,327.96,531.27,314.81,502.92z"/>
				</g>
				<g>
					<path class="st11" d="M282.56,569.76c-0.56,0-1.12-0.11-1.65-0.34c-1.09-0.47-1.94-1.38-2.32-2.5
						c-6.78-19.82-11.75-40.04-2.28-53.58c6.59-9.42,19.15-14.2,38.41-14.61c1.6-0.07,3.11,0.86,3.84,2.31
						c5.61,11.13,6.58,22.15,2.88,32.75c-4.94,14.16-18.12,26.8-37.12,35.58C283.77,569.63,283.17,569.76,282.56,569.76z
						 M312.18,507.21c-14.83,0.68-24.32,4.26-28.99,10.93c-6.69,9.57-3.2,25.91,1.83,41.51c14.45-7.57,24.72-17.84,28.48-28.64
						C316.17,523.39,315.72,515.4,312.18,507.21z"/>
				</g>
				<g>
					<path class="st12" d="M316.15,506.91c-2.89,1.34-5.66,3.02-8.3,5.19c-2.62,2.16-5.18,4.66-7.49,7.48
						c-4.63,5.66-8.49,12.23-11.68,19.42c-0.01-3.95,0.61-7.92,1.61-11.81c1.03-3.88,2.45-7.7,4.37-11.35
						c1.92-3.64,4.29-7.18,7.41-10.18c3.1-2.99,6.95-5.57,11.4-6.71c2.25-0.58,4.55,0.78,5.13,3.04c0.51,2-0.5,4.03-2.31,4.87
						L316.15,506.91z"/>
				</g>
			</g>
			<g>
				<g>
					<path class="st10" d="M395.17,381.78c39.3-20.73,51.37-1.7,56.62,35.41C423.15,420.95,398.05,412.89,395.17,381.78z"/>
				</g>
				<g>
					<path class="st11" d="M445.31,424.37c-16.67,0-30.77-4.35-40.37-12.58c-8.52-7.31-13.22-17.33-13.96-29.77
						c-0.1-1.62,0.74-3.14,2.16-3.93c16.86-9.32,30.12-11.5,40.55-6.67c14.99,6.95,20.85,26.93,24.95,47.47
						c0.23,1.17-0.04,2.38-0.75,3.33c-0.71,0.96-1.79,1.56-2.98,1.67C451.63,424.22,448.42,424.37,445.31,424.37z M399.6,384.17
						c1.05,8.85,4.68,15.99,10.81,21.25c8.68,7.44,22.73,11.16,39.01,10.45c-3.48-16.02-8.68-31.9-19.27-36.81
						C422.77,375.63,412.76,377.3,399.6,384.17z"/>
				</g>
				<g>
					<path class="st12" d="M394.33,377.66c4.42-1.25,9.06-0.95,13.23,0.07c4.21,1.03,8.04,2.9,11.52,5.08
						c3.49,2.19,6.64,4.78,9.48,7.62c2.81,2.86,5.35,5.98,7.32,9.4c-6.37-4.61-13.01-8.35-19.85-10.92
						c-3.41-1.28-6.88-2.15-10.24-2.71c-3.37-0.55-6.61-0.61-9.78-0.31l-0.15,0.01c-2.32,0.22-4.37-1.49-4.59-3.8
						C391.09,380.05,392.41,378.2,394.33,377.66z"/>
				</g>
			</g>
			<g>
				<g>
					<path class="st10" d="M569.9,521.42c-30.44-28.23-45.94-13.98-59.67,18.23C535.17,550,559.77,548.8,569.9,521.42z"/>
				</g>
				<g>
					<path class="st11" d="M533.44,550.4c-8.54,0-17.91-1.81-27.65-5.43c-1.04-0.39-1.87-1.2-2.28-2.23
						c-0.41-1.03-0.36-2.19,0.13-3.19c8.68-17.55,18.8-34.15,34.01-36.79c10.58-1.85,22.02,3.34,34.98,15.84
						c1.09,1.05,1.48,2.63,1,4.07c-3.68,11.05-10.35,18.95-19.81,23.48C547.89,548.98,540.99,550.4,533.44,550.4z M512.69,539.04
						c14.53,4.59,28.1,4.63,37.74,0.02c6.81-3.26,11.81-8.82,14.9-16.56c-10.21-9.38-18.84-13.31-26.33-12.01
						C528.25,512.36,519.71,525.43,512.69,539.04z"/>
				</g>
				<g>
					<path class="st12" d="M568.14,524.93c-2.79-1.04-5.73-1.76-8.9-2.09c-3.16-0.31-6.5-0.37-9.89-0.04
						c-6.8,0.66-13.7,2.43-20.56,5.04c2.61-2.61,5.65-4.81,8.89-6.71c3.25-1.87,6.72-3.44,10.4-4.58c3.67-1.12,7.58-1.88,11.63-1.79
						c4.02,0.08,8.27,0.94,11.96,3.14c1.87,1.11,2.48,3.53,1.36,5.4c-0.99,1.66-3,2.32-4.75,1.67L568.14,524.93z"/>
				</g>
			</g>
			<g>
				<g>
					<path class="st10" d="M222.69,592.69c2.4,0.14,4.66,0.34,7,0.6c2.32,0.26,4.64,0.58,6.98,1c2.34,0.41,4.69,0.91,7.11,1.62
						c2.42,0.74,4.87,1.52,7.59,3.19l0.31,0.19c2.75,1.69,3.61,5.29,1.92,8.04c-1.69,2.75-5.29,3.61-8.04,1.92
						c-0.31-0.19-0.62-0.43-0.88-0.67c-0.99-0.9-2.74-1.87-4.52-2.69c-1.81-0.84-3.79-1.58-5.81-2.25
						c-2.02-0.68-4.11-1.29-6.21-1.84c-2.09-0.55-4.27-1.07-6.33-1.5l-0.09-0.02c-2.07-0.43-3.41-2.46-2.98-4.53
						C219.11,593.86,220.82,592.58,222.69,592.69z"/>
				</g>
				<g class="st2">
					<path class="st3" d="M222.69,592.69c2.4,0.14,4.66,0.34,7,0.6c2.32,0.26,4.64,0.58,6.98,1c2.34,0.41,4.69,0.91,7.11,1.62
						c2.42,0.74,4.87,1.52,7.59,3.19l0.31,0.19c2.75,1.69,3.61,5.29,1.92,8.04c-1.69,2.75-5.29,3.61-8.04,1.92
						c-0.31-0.19-0.62-0.43-0.88-0.67c-0.99-0.9-2.74-1.87-4.52-2.69c-1.81-0.84-3.79-1.58-5.81-2.25
						c-2.02-0.68-4.11-1.29-6.21-1.84c-2.09-0.55-4.27-1.07-6.33-1.5l-0.09-0.02c-2.07-0.43-3.41-2.46-2.98-4.53
						C219.11,593.86,220.82,592.58,222.69,592.69z"/>
				</g>
				<g>
					<path class="st11" d="M248.6,613.45c-1.64,0-3.3-0.44-4.8-1.36c-0.48-0.29-0.95-0.65-1.38-1.04c-0.24-0.22-1.16-0.98-3.67-2.13
						c-1.57-0.73-3.35-1.42-5.47-2.11c-1.92-0.64-3.94-1.24-6.01-1.78c-2.11-0.56-4.24-1.06-6.16-1.46
						c-1.97-0.41-3.59-1.51-4.64-3.11c-1.05-1.6-1.42-3.52-1.03-5.4c0.72-3.47,3.91-5.92,7.45-5.72l0,0
						c2.33,0.14,4.61,0.33,7.17,0.62c2.45,0.27,4.87,0.62,7.19,1.03c2.82,0.49,5.19,1.03,7.46,1.7c2.86,0.87,5.44,1.73,8.4,3.55
						l0.31,0.19c4.31,2.65,5.67,8.33,3.01,12.64C254.71,611.9,251.69,613.45,248.6,613.45z M222.47,596.03
						c-0.2,0-0.42,0.13-0.48,0.39c-0.03,0.16,0.02,0.29,0.07,0.37c0.05,0.08,0.14,0.18,0.31,0.21c2.13,0.44,4.38,0.97,6.6,1.56
						c2.21,0.58,4.37,1.22,6.42,1.9c2.35,0.77,4.37,1.56,6.16,2.39c2.42,1.11,4.23,2.21,5.37,3.26c0.11,0.1,0.26,0.21,0.38,0.29
						c1.16,0.71,2.7,0.35,3.42-0.82c0.72-1.17,0.35-2.71-0.82-3.43l-0.31-0.19c-2.28-1.41-4.35-2.09-6.81-2.84
						c-1.99-0.58-4.14-1.07-6.71-1.52c-2.22-0.39-4.43-0.71-6.77-0.97c-2.45-0.27-4.61-0.46-6.82-0.59
						C222.5,596.04,222.48,596.03,222.47,596.03z"/>
				</g>
				<g>
					<g>
						<path class="st10" d="M228.03,597.24c-13.54-49.51-70.45-9.14-70.45-9.14S202.3,641.66,228.03,597.24z"/>
					</g>
					<g class="st5">
						<path class="st6" d="M227.72,597.75c0.1-0.17,0.2-0.33,0.3-0.5c-13.54-49.51-70.45-9.14-70.45-9.14s1.52,1.82,4.16,4.51
							C172.42,585.84,213.61,562.6,227.72,597.75z"/>
					</g>
					<g>
						<path class="st11" d="M201.25,618.21c-24.62,0-49.29-26.68-50.37-27.87c-0.66-0.72-0.97-1.7-0.85-2.67
							c0.12-0.97,0.66-1.84,1.48-2.38c1.43-0.94,35.23-22.96,59.45-13.84c9.98,3.76,16.81,12.14,20.31,24.92
							c0.24,0.86,0.12,1.79-0.33,2.56c-6.67,11.52-15.48,17.95-26.17,19.1C203.59,618.15,202.42,618.21,201.25,618.21z
							 M158.72,588.75c7.35,7.11,27.39,24.55,45.33,22.62c8.09-0.88,14.93-5.78,20.36-14.59c-2.98-9.82-8.29-16.22-15.8-19.06
							C191.7,571.35,167.66,583.59,158.72,588.75z"/>
					</g>
					<g>
						<g>
							<line class="st10" x1="228.03" y1="597.24" x2="189.83" y2="592.29"/>
						</g>
						<g>
							<path class="st12" d="M227.6,600.57c-3.22-0.14-6.39-0.61-9.56-1.14c-3.17-0.53-6.31-1.25-9.46-1.96
								c-6.28-1.47-12.55-3.08-18.75-5.17c6.53-0.44,13-0.4,19.45-0.22c3.22,0.11,6.45,0.21,9.64,0.51c3.2,0.3,6.39,0.66,9.54,1.34
								c1.81,0.39,2.97,2.18,2.58,4C230.68,599.55,229.21,600.64,227.6,600.57z"/>
						</g>
					</g>
				</g>
				<g>
					<path class="st11" d="M200.08,618.18c4.3-3.81,8.64-7.58,13.03-11.31c4.4-3.73,8.81-7.42,13.44-10.99
						c1.47-1.14,3.59-0.86,4.72,0.61c1.14,1.47,0.87,3.59-0.61,4.72c-0.17,0.13-0.35,0.24-0.54,0.34l-0.03,0.01
						c-5.05,2.52-10.08,5.28-15.08,8.07C210.02,612.42,205.04,615.28,200.08,618.18z"/>
				</g>
				<g>
					<g>
						<path class="st10" d="M228.18,597.89c0,0-28.88,1.75-35.5,51.74C192.69,649.63,251.67,630.86,228.18,597.89z"/>
					</g>
					<g class="st5">
						<path class="st6" d="M201.01,644.99c5.42-40.99,28.78-43.12,29.6-43.19c-0.69-1.28-1.49-2.58-2.43-3.91
							c0,0-28.88,1.75-35.5,51.74c0,0,12.71-4.05,23.97-11.68C208.62,642.57,201.01,644.99,201.01,644.99z"/>
					</g>
					<g>
						<path class="st11" d="M192.69,652.98c-0.78,0-1.54-0.27-2.15-0.78c-0.88-0.74-1.32-1.87-1.17-3.01
							c6.9-52.13,37.32-54.57,38.61-54.65c1.15-0.07,2.26,0.46,2.93,1.4c5.94,8.34,7.59,16.66,4.91,24.72
							c-6.92,20.74-40.68,31.7-42.12,32.16C193.37,652.93,193.03,652.98,192.69,652.98z M226.6,601.53
							c-5.78,1.31-23.49,8.12-29.73,42.98c9.3-3.75,28.22-12.82,32.59-25.97C231.29,613.06,230.35,607.48,226.6,601.53z"/>
					</g>
					<g>
						<path class="st11" d="M211.88,619.67c2.12-4.05,4.31-8.07,6.56-12.07c2.27-4,4.57-7.96,7.21-11.9
							c1.04-1.55,3.14-1.96,4.68-0.92c1.55,1.04,1.96,3.14,0.93,4.68c-0.15,0.23-0.35,0.45-0.55,0.63c-3.26,2.95-6.45,6.22-9.58,9.5
							C218,612.89,214.92,616.26,211.88,619.67z"/>
					</g>
				</g>
				<g>
					<g>
						<path class="st10" d="M227.94,597.74c0,0-26.93-10.59-17.76-60.18C210.18,537.56,260.47,573.65,227.94,597.74z"/>
					</g>
					<g class="st5">
						<path class="st6" d="M218,544c-4.44-4.01-7.82-6.44-7.82-6.44c-9.16,49.59,17.76,60.18,17.76,60.18
							c0.4-0.29,0.77-0.59,1.14-0.89C223.71,592.9,209.79,578.89,218,544z"/>
					</g>
					<g>
						<path class="st11" d="M227.94,601.09c-0.41,0-0.83-0.08-1.23-0.23c-1.2-0.47-29.39-12.19-19.83-63.91
							c0.21-1.13,0.98-2.07,2.04-2.5c1.06-0.43,2.27-0.28,3.21,0.39c1.22,0.88,29.95,21.74,30.11,43.6
							c0.06,8.5-4.08,15.9-12.31,21.99C229.35,600.87,228.65,601.09,227.94,601.09z M212.57,543.73
							c-4.85,35.07,9.89,47.03,14.99,50.06c5.41-4.5,8.03-9.51,7.99-15.29C235.45,564.65,220.26,550.17,212.57,543.73z"/>
					</g>
					<g>
						<path class="st11" d="M219.17,571.99c1.84,4.18,3.73,8.34,5.69,12.44c1.96,4.09,3.98,8.19,6.18,12
							c0.93,1.61,0.38,3.68-1.24,4.61c-1.62,0.93-3.68,0.38-4.61-1.24c-0.14-0.24-0.25-0.51-0.32-0.77
							c-1.29-4.56-2.26-9.04-3.18-13.55C220.77,581,219.93,576.5,219.17,571.99z"/>
					</g>
				</g>
			</g>
		</g>
		<g>
			<path class="st3" d="M176.91,733.19c0.12,0.21,0.21,0.31,0.35,0.42c0.14,0.11,0.37,0.23,0.76,0.32c0.75,0.19,1.97,0.19,3.24,0
				c2.6-0.39,5.46-1.38,8.25-2.55c5.61-2.38,11.13-5.5,16.52-8.8c10.78-6.68,21.19-14.18,31.35-21.98
				c10.16-7.82,20.07-16,29.74-24.45c2.42-2.11,4.82-4.24,7.21-6.39c2.41-2.15,4.7-4.32,7.2-6.49c1.23-1.08,2.45-2.18,3.7-3.24
				l3.82-3.08l1.91-1.54l1.97-1.46l3.94-2.92c21.36-15.09,45.03-26.35,69.43-35c12.2-4.36,24.61-8.09,37.15-11.22
				c12.54-3.16,25.21-5.76,37.99-7.58c-25.3,5.09-50.07,12.51-74.03,21.77c-11.97,4.66-23.68,9.98-35.05,15.88
				c-11.34,5.95-22.26,12.68-32.49,20.27l-3.77,2.93l-1.88,1.46l-1.82,1.53l-3.64,3.08c-1.19,1.06-2.34,2.15-3.51,3.22
				c-2.33,2.1-4.66,4.43-7.02,6.63c-2.36,2.23-4.73,4.43-7.12,6.62c-9.56,8.76-19.35,17.25-29.45,25.42
				c-10.11,8.15-20.46,16.05-31.52,23.12c-5.55,3.52-11.23,6.89-17.45,9.65c-3.14,1.36-6.38,2.61-10.16,3.27
				c-1.9,0.3-3.97,0.49-6.37-0.02c-1.19-0.26-2.48-0.74-3.67-1.56c-1.19-0.8-2.2-1.94-2.88-3.12c-1.16-2.01-0.47-4.58,1.54-5.74
				c2-1.15,4.55-0.48,5.72,1.51L176.91,733.19z"/>
		</g>
		<g>
			<g class="st2">
				
					<ellipse transform="matrix(0.968 -0.2508 0.2508 0.968 -113.0111 183.6362)" class="st3" cx="663.89" cy="535.15" rx="6.71" ry="4.9"/>
			</g>
			<g class="st2">
				
					<ellipse transform="matrix(0.968 -0.2508 0.2508 0.968 -109.6991 175.3381)" class="st3" cx="632.99" cy="518.01" rx="10.9" ry="7.97"/>
			</g>
			<g class="st2">
				
					<ellipse transform="matrix(0.9355 -0.3532 0.3532 0.9355 -130.2124 229.3687)" class="st3" cx="563.28" cy="471.42" rx="8.5" ry="6.68"/>
			</g>
			<g class="st2">
				
					<ellipse transform="matrix(0.9355 -0.3532 0.3532 0.9355 -96.262 252.5835)" class="st3" cx="643.86" cy="390.02" rx="5.88" ry="4.62"/>
			</g>
			<g class="st2">
				
					<ellipse transform="matrix(0.9355 -0.3532 0.3532 0.9355 -117.1417 260.2728)" class="st3" cx="654.47" cy="451.06" rx="6.68" ry="5.25"/>
			</g>
			<g class="st2">
				<path class="st3" d="M590.99,430.02c0.84,2.24-0.78,4.92-3.62,5.99c-2.85,1.07-5.84,0.13-6.68-2.1
					c-0.84-2.24,0.78-4.92,3.62-5.99C587.16,426.84,590.15,427.79,590.99,430.02z"/>
			</g>
			<g class="st2">
				
					<ellipse transform="matrix(0.8111 -0.5849 0.5849 0.8111 -204.0713 383.7247)" class="st3" cx="492.04" cy="507.8" rx="6.07" ry="4.77"/>
			</g>
			<g class="st2">
				
					<ellipse transform="matrix(0.8111 -0.5849 0.5849 0.8111 -167.585 380.6866)" class="st3" cx="505.58" cy="449.79" rx="6.02" ry="4.73"/>
			</g>
			<g class="st2">
				
					<ellipse transform="matrix(0.8111 -0.5849 0.5849 0.8111 -292.02 301.8703)" class="st3" cx="321.34" cy="603.03" rx="7.99" ry="6.28"/>
			</g>
			<g class="st2">
				
					<ellipse transform="matrix(0.8111 -0.5849 0.5849 0.8111 -266.4464 296.127)" class="st3" cx="325.23" cy="560.57" rx="6.76" ry="5.31"/>
			</g>
			<g class="st2">
				
					<ellipse transform="matrix(0.8111 -0.5849 0.5849 0.8111 -327.2708 274.0465)" class="st3" cx="260.64" cy="643.7" rx="4.44" ry="3.49"/>
			</g>
			<g class="st2">
				
					<ellipse transform="matrix(0.8111 -0.5849 0.5849 0.8111 -220.7833 282.3358)" class="st3" cx="326.72" cy="482.98" rx="6.76" ry="5.31"/>
			</g>
			<g class="st2">
				
					<ellipse transform="matrix(0.8111 -0.5849 0.5849 0.8111 -184.8103 308.8409)" class="st3" cx="385.73" cy="440.54" rx="8.82" ry="6.93"/>
			</g>
		</g>
		<g>
			<g>
				<g>
					<g>
						<path class="st13" d="M722.45,547.52c-8.46,48.14,101.44,55.93,101.44,55.93s69.6-162.93-42.7-301.98
							S516.13,183.5,499.49,216.34s16.33,47.86,16.33,47.86S768.34,286.43,722.45,547.52z"/>
					</g>
					<g class="st5">
						<path class="st6" d="M781.19,301.47c-112.3-139.05-265.06-117.97-281.71-85.13c-14.83,29.25,9.72,44.37,15.26,47.32
							c-6.67-7.19-12.21-19-3.66-35.88c3.64-7.18,14.27-13.75,29.77-17.93c-3.57,2.28-5.57,4.89-5.14,7.31
							c0.87,4.87,11.28,7.08,23.24,4.95c11.97-2.14,20.96-7.82,20.09-12.69c-0.31-1.75-1.87-3.15-4.27-4.13
							c54.52-1.36,133.56,21.6,198.19,101.64c104.4,129.27,39.69,280.74,39.69,280.74s-72.48-5.14-90.64-33.51
							c2.23,42.23,101.86,49.3,101.86,49.3S893.5,440.53,781.19,301.47z"/>
					</g>
					<g class="st2">
						<path class="st3" d="M823.89,603.45c0,0,9.48-22.22,15.8-57.22c-11.5-10.93-28.96-19.95-47.31-27.33
							c-16.2-6.51-26.25-22.79-24.75-40.18c3.89-44.91,3.7-101.5-35.23-149.7c-87.8-108.72-206.79-93.96-222.71-68.56
							c3.45,2.51,6.13,3.73,6.13,3.73s252.52,22.24,206.63,283.32C713.99,595.66,823.89,603.45,823.89,603.45z"/>
					</g>
					<g>
						<path class="st3" d="M823.89,608.25c-0.11,0-0.23,0-0.34-0.01c-3.09-0.22-76.02-5.71-99.15-35.34
							c-6.11-7.82-8.36-16.64-6.67-26.21c13.64-77.6,1.86-141.32-35-189.4c-59.72-77.9-166.26-88.21-167.33-88.31
							c-0.54-0.05-1.07-0.19-1.57-0.41c-0.67-0.3-16.43-7.64-21.96-23.41c-3.36-9.58-2.23-20,3.33-30.99
							c6.53-12.89,28.7-22.81,57.84-25.88c63.66-6.71,158.01,18.7,231.89,110.17c58.97,73.02,67.64,152.56,64.52,206.43
							c-3.37,58.28-20.42,98.76-21.14,100.45C827.55,607.12,825.8,608.25,823.89,608.25z M722.45,547.52l4.73,0.83
							c-1.21,6.87,0.36,12.97,4.78,18.64c17.91,22.93,74.17,29.91,88.77,31.36c4.03-10.66,16.44-46.81,19.14-94.37
							c2.96-52.08-5.47-128.97-62.42-199.49C706,216.01,615.19,191.38,554.05,197.83c-29.05,3.06-46.18,12.59-50.28,20.68
							c-4.33,8.53-5.29,16.41-2.86,23.4c3.59,10.33,13.62,16.2,16.26,17.6c5.18,0.54,30.48,3.64,62.42,15.03
							c32.49,11.59,78.07,34.32,110.7,76.84c38.61,50.31,51.02,116.59,36.89,196.98L722.45,547.52z"/>
					</g>
				</g>
				<g>
					<path class="st1" d="M823.89,603.45c0,0-21.5,24.28-63.98,11.1c-42.48-13.18-52.44-42.54-37.46-67.04
						S854.35,553.91,823.89,603.45z"/>
				</g>
				<g class="st2">
					<path class="st3" d="M823.89,603.45c0,0-21.5,24.28-63.98,11.1c-42.48-13.18-52.44-42.54-37.46-67.04
						S854.35,553.91,823.89,603.45z"/>
				</g>
				<g>
					<path class="st3" d="M784.39,623.31c-7.63,0-16.26-1.18-25.9-4.17c-29.39-9.12-40.58-24.32-44.78-35.47
						c-4.67-12.39-3.02-26.11,4.65-38.65c5.8-9.49,20.25-11.12,31.37-10.84c29.02,0.76,67.86,15.45,80.02,37.88
						c5.85,10.8,5.25,22.53-1.76,33.92c-0.15,0.24-0.31,0.46-0.5,0.67C826.73,607.49,812.31,623.31,784.39,623.31z M747.44,543.75
						c-10.72,0-18.46,2.3-20.89,6.28c-6.18,10.1-7.51,20.56-3.86,30.25c4.88,12.93,18.6,23.47,38.64,29.69
						c36.79,11.41,56.15-6.79,58.71-9.43c5.02-8.38,5.43-16.21,1.25-23.91c-10.19-18.8-45.37-32.17-71.82-32.85
						C748.78,543.75,748.11,543.75,747.44,543.75z M823.89,603.45h0.01H823.89z"/>
				</g>
			</g>
			<g>
				<g>
					<path class="st14" d="M575.52,243.34c-1-2.14-1.35-4.48-1.36-6.81c0.01-2.34,0.45-4.69,1.29-6.92
						c0.79-2.25,2.12-4.34,3.83-6.02c1.68-1.71,3.88-2.9,6.23-3.37c-1.12,2.2-2.34,3.83-3.26,5.69c-0.98,1.77-1.9,3.51-2.69,5.36
						c-0.8,1.84-1.5,3.75-2.15,5.76C576.78,239.04,576.18,241.1,575.52,243.34z"/>
				</g>
				<g>
					<path class="st14" d="M588.26,251.75c-0.69-3.12-0.53-6.34-0.02-9.5c0.55-3.15,1.63-6.24,3.17-9.1
						c1.49-2.89,3.62-5.49,6.16-7.55c0.66-0.49,1.29-1.01,1.97-1.45c0.71-0.41,1.43-0.79,2.15-1.15c0.7-0.39,1.48-0.64,2.26-0.88
						c0.78-0.22,1.55-0.44,2.34-0.58c-2.15,2.47-4.32,4.4-6.07,6.75c-1.82,2.24-3.5,4.54-4.93,7.04c-1.46,2.48-2.73,5.1-3.88,7.84
						C590.25,245.91,589.26,248.75,588.26,251.75z"/>
				</g>
			</g>
			<g>
				<g>
					<path class="st14" d="M767.98,456.63c2.65-2.13,5.8-3.54,9.05-4.58c3.27-1,6.72-1.48,10.2-1.42c3.47,0,6.98,0.73,10.18,2.11
						c0.79,0.37,1.59,0.71,2.34,1.14c0.74,0.47,1.46,0.95,2.16,1.45c0.72,0.46,1.35,1.07,1.97,1.68c0.6,0.62,1.2,1.23,1.73,1.9
						c-3.36-0.89-6.27-2.04-9.37-2.57c-3.04-0.66-6.07-1.12-9.16-1.26c-3.09-0.16-6.22-0.07-9.39,0.22
						C774.49,455.55,771.31,456.05,767.98,456.63z"/>
				</g>
				<g>
					<path class="st14" d="M762.65,478.84c4.16-2.15,8.75-3.36,13.41-4.05c4.67-0.68,9.47-0.64,14.19,0.08
						c1.17,0.23,2.37,0.35,3.52,0.66c1.15,0.33,2.31,0.63,3.46,0.98c1.14,0.35,2.24,0.87,3.34,1.32l1.65,0.71l1.56,0.89
						c1.03,0.62,2.07,1.2,3.05,1.87c0.95,0.73,1.86,1.51,2.77,2.25c0.45,0.38,0.92,0.74,1.32,1.17l1.19,1.32
						c0.77,0.9,1.53,1.79,2.23,2.72c-4.21-2.16-7.98-4.49-12.2-5.94l-1.52-0.64l-1.58-0.49c-1.05-0.31-2.07-0.73-3.13-1
						c-1.07-0.25-2.12-0.54-3.19-0.81c-1.06-0.29-2.15-0.42-3.23-0.65c-4.33-0.77-8.75-1.14-13.24-1.19
						C771.79,478.03,767.27,478.3,762.65,478.84z"/>
				</g>
			</g>
		</g>
		<g>
			<g>
				<path class="st10" d="M625.41,440.28c34.04-17.95,44.49-1.48,49.04,30.66C649.64,474.21,627.9,467.23,625.41,440.28z"/>
			</g>
			<g>
				<path class="st11" d="M668.83,477.17c-14.43,0-26.65-3.77-34.96-10.89c-7.38-6.33-11.45-15.01-12.09-25.78
					c-0.08-1.4,0.64-2.72,1.87-3.4c14.6-8.08,26.09-9.96,35.12-5.77c12.98,6.02,18.06,23.32,21.61,41.12
					c0.2,1.01-0.03,2.06-0.65,2.89s-1.55,1.35-2.58,1.45C674.31,477.04,671.53,477.17,668.83,477.17z M629.25,442.35
					c0.91,7.67,4.05,13.85,9.36,18.4c7.51,6.45,19.68,9.66,33.79,9.05c-3.01-13.87-7.52-27.63-16.69-31.88
					C649.32,434.96,640.64,436.4,629.25,442.35z"/>
			</g>
			<g>
				<path class="st12" d="M624.68,436.71c3.83-1.08,7.84-0.82,11.46,0.06c3.65,0.89,6.96,2.51,9.98,4.4c3.02,1.9,5.75,4.14,8.21,6.6
					c2.44,2.48,4.63,5.18,6.34,8.14c-5.52-3.99-11.27-7.23-17.2-9.46c-2.96-1.11-5.96-1.86-8.86-2.34
					c-2.92-0.47-5.73-0.53-8.47-0.27l-0.13,0.01c-2.01,0.19-3.78-1.29-3.97-3.29C621.87,438.78,623.02,437.18,624.68,436.71z"/>
			</g>
		</g>
	</g>
</g>
</svg>
