<?xml version="1.0" encoding="utf-8"?>
<!-- Generator: Adobe Illustrator 23.0.5, SVG Export Plug-In . SVG Version: 6.00 Build 0)  -->
<svg version="1.1" baseProfile="basic" id="Layer_1"
	 xmlns="http://www.w3.org/2000/svg" xmlns:xlink="http://www.w3.org/1999/xlink" x="0px" y="0px" viewBox="0 0 1000 1000"
	 xml:space="preserve">
<g>
	<circle fill="#FFD283" cx="500" cy="500" r="500"/>
	<g>
		<g>
			<g>
				<path fill="#F7AF41" d="M172.7,728.3c0,0-14,44.6,90.5-19.3S628.6,596.2,752,611.8c123.4,15.6,36.3-277.8-55.3-324.9
					S318.6,443.2,172.7,728.3z"/>
			</g>
			<g opacity="0.3">
				<path fill="#6C184E" d="M181,718.5c0,0-22.3,54.5,82.2-9.5S628.6,596.2,752,611.8c123.4,15.6,36.3-277.8-55.3-324.9
					S326.9,433.3,181,718.5z"/>
			</g>
			<g>
				<path fill="#6C184E" d="M190.7,744.8c-5.5,0-9.8-1.3-13.1-3.9c-9.9-8-4.5-23.5-4.3-24.2c0.1-0.2,0.2-0.4,0.2-0.6
					c67.1-131.1,153.6-227,214.4-284.4c77-72.8,158.3-126.4,223-147.2c37.3-12,66.9-12.6,87.9-1.9c33.3,17.1,68,66,92.8,130.8
					c24.4,63.5,32.4,126,20.9,163.1c-8.3,26.7-26,40.6-51.4,40.6c-3.2,0-6.4-0.2-9.8-0.6c-127-16.1-385.8,35.4-485.8,96.6
					C231,734.3,206.3,744.8,190.7,744.8z M182.3,720.2c-0.9,2.8-2.3,10.3,1.4,13.2c3.1,2.5,17.7,7.7,77-28.5
					c49.5-30.3,136.6-59.1,238.9-79.1c99-19.3,193.6-26.3,253-18.8c25.9,3.3,43-7.9,50.8-33.3c10.9-35.1,3-95.2-20.7-156.8
					c-23.7-61.7-57.5-109.9-88.3-125.7c-18.4-9.5-46.2-8.6-80.6,2.5c-63.4,20.4-143.3,73.3-219.4,145.1
					C334.4,495.5,248.8,590.5,182.3,720.2z"/>
			</g>
			<g>
				<g>
					<path fill="#FFCE00" d="M703.2,343.1c-14.5-3.3,1.4-8.8-17.8-28s-40.4-3.4-40.4-3.4c3.4-7,4.2-13.6,0.5-18.7
						c-16.5-23.2-60-8.7-75.9-27.3c-15.9-18.6-53.9-1.5-53.9-1.5S289.1,399.5,224.2,555.4c-64.9,155.9-59.9,203.7-31.7,192.9
						s49-35.1,69.7-16s-5.1,55.1,19.8,72.8c14,9.9,46.4-7.9,30.8-34.4c-15.6-26.6-36.2-75.8-1.3-102.2
						c34.9-26.4,115.1-40.5,110.3-3.4c-11.7,91.9,86.1,52.9,55.7,14.1c-25.8-33-2.1-90.9,55.5-59c48.3,26.8,42.1-9.7,89.8-25.3
						c35.5-11.7,100.9-12,100.9-12c45.9-26.9,4.4-40.2,4.4-40.2s38.4-29.6,28.8-50c-9.6-20.5-5-52.7-4.1-85.3
						S717.7,346.4,703.2,343.1z"/>
				</g>
				<g opacity="0.3">
					<path fill="#6C184E" d="M703.2,343.1c-14.5-3.3,1.4-8.8-17.8-28s-40.4-3.4-40.4-3.4c3.4-7,4.2-13.6,0.5-18.7
						c-16.5-23.2-60-8.7-75.9-27.3c-15.9-18.6-53.9-1.5-53.9-1.5s-5.3,3.1-14.4,9c70.9,18.6,217.3,78.4,190.4,291.1
						c0,0-283.1,20.3-361,68.7c-56,34.8-112.2,100.2-155.9,108.6c3.1,8,9.4,9.8,17.6,6.7c28.2-10.8,49-35.1,69.7-16
						s-5.1,55.1,19.8,72.8c14,9.9,46.4-7.9,30.8-34.4c-15.6-26.6-36.2-75.8-1.3-102.2c34.9-26.4,115.1-40.5,110.3-3.4
						c-11.7,91.9,86.1,52.9,55.7,14.1c-25.8-33-2.1-90.9,55.5-59c48.3,26.8,42.1-9.7,89.8-25.3c35.5-11.7,100.9-12,100.9-12
						c45.9-26.9,4.4-40.2,4.4-40.2s38.4-29.6,28.8-50c-9.6-20.5-5-52.7-4.1-85.3S717.7,346.4,703.2,343.1z"/>
				</g>
				<g opacity="0.65">
					<g>
						<path fill="#FFFFFF" d="M715.6,350.4c1.3,0.3,2.7,0.8,4.2,1.4c-4-2.9-7.8-5.2-11.2-6.8C709,347.6,710.1,349.1,715.6,350.4z"/>
					</g>
					<g>
						<path fill="#FFFFFF" d="M740.8,550c-0.1-0.1-0.2-0.2-0.2-0.2c-0.1,0.1-0.1,0.1-0.1,0.1S740.6,550,740.8,550z"/>
					</g>
					<g>
						<path fill="#FFFFFF" d="M657.5,319c0,0,12.4-9.2,26.8-5c-8.4-7.7-17-9.1-24.1-8.2C660.8,309.9,659.7,314.3,657.5,319z"/>
					</g>
					<g>
						<path fill="#FFFFFF" d="M642.3,289.2c-14.3-13.8-41.3-9.8-59.6-15.5C595.1,287,622.6,282.3,642.3,289.2z"/>
					</g>
					<g>
						<path fill="#FFFFFF" d="M515.8,264.2c0,0-100.9,60.2-187.4,146.6c-1.7,1.3-3.3,2.7-4.8,4.3c-1,1-1.8,2.1-2.6,3.2
							c-40.2,41.3-76.5,88.2-96.8,137c-60.9,146.4-60.3,197.5-36.6,194.2c-8.2-18.8,2.4-75.1,49-186.9
							c17.5-42.1,46.8-82.7,80.3-119.5c0.7,1.3,1.5,2.4,2.6,3.4c7.4,6.9,21.3,4,31-6.5c9.7-10.5,11.5-24.6,4.1-31.5
							c-0.7-0.7-1.5-1.2-2.4-1.7C436,326.5,522.4,265,522.4,265s29.3-4.1,47.1,0.5C553.4,247.3,515.8,264.2,515.8,264.2z"/>
					</g>
				</g>
				<g>
					<path fill="#6C184E" d="M291.6,812.7c-4.6,0-9-1.2-12.4-3.7c-15.2-10.8-14.3-27.3-13.5-41.8c0.7-12.2,1.3-23.7-6.9-31.3
						c-11.5-10.7-22.6-5.3-41.2,5.2c-7.4,4.2-15,8.5-23.5,11.7c-10.2,3.9-16.3,0.7-19.6-2.8c-21.2-21.8,12.9-118.9,45.2-196.5
						c33.9-81.4,112-156.9,171.5-205.9c64.3-52.9,121.5-87.2,122.1-87.6c0.2-0.1,0.3-0.2,0.5-0.3c1.7-0.8,41.5-18.3,59.5,2.8
						c6.2,7.3,18.7,8.6,31.9,10c16,1.7,34.2,3.6,44.2,17.6c2.6,3.6,3.7,7.7,3.3,12.4c10.1-3.2,23.8-3.1,36.1,9.1
						c11.5,11.5,11.9,19.2,12.1,23.8c0,0.6,0.1,1.4,0.1,1.8c0.3,0.2,1.2,0.6,3.2,1.1l0,0c16.7,3.8,54.1,33.9,53.2,69
						c-0.2,7.2-0.6,14.4-0.9,21.4c-1.2,24.1-2.4,46.9,4.6,61.7c8.7,18.5-12.8,40.8-24.1,50.9c5.5,3.1,12,8.3,12.9,16.2
						c1.1,9.8-6.7,19.4-23.9,29.5c-0.7,0.4-1.6,0.7-2.4,0.7c-0.7,0-65,0.5-99.4,11.8c-17.1,5.6-26.7,13.9-35.2,21.2
						c-15.8,13.6-27,21.1-58.4,3.7c-21.5-11.9-39.9-11.5-50.7,1c-11.2,13.2-10.7,35.5,1.3,50.8c8.8,11.2,9.2,24.3,1,35.1
						c-9.9,13-29,18.6-43.6,12.7c-10.4-4.2-27-17.6-21.7-59.5c0.8-6.1-1.2-10.2-6.1-13.1c-18.2-10.6-69.7,0.6-96.6,20.9
						c-33.6,25.4-9.4,75.6,2.5,95.9c7.7,13.1,6.1,26.5-4.2,36C306.7,809.8,298.8,812.7,291.6,812.7z M245.6,720.5
						c6.7,0,13.3,2.3,19.8,8.4c11.5,10.7,10.7,25.7,9.9,38.9c-0.8,13.8-1.5,25.8,9.4,33.5c5.2,3.7,15.1,1.8,21.5-4.1
						c4-3.7,9.6-11.7,2.4-24c-13.2-22.6-39.8-78.4,0-108.5c27.6-20.9,83.6-35.2,107.2-21.6c8.4,4.8,12.1,12.7,10.8,22.6
						c-3.4,26.3,2.2,43.9,15.8,49.4c10.6,4.3,25.1,0,32.3-9.6c3.2-4.2,7.3-12.8-1-23.4c-14.7-18.8-15.2-46.5-1.1-63
						c13.8-16.1,37.2-17.3,62.6-3.2c27.1,15,33.9,9.1,47.4-2.6c8.7-7.5,19.5-16.9,38.5-23.1c33.5-11,91.3-12.2,101-12.3
						c16.5-9.9,18.4-16.4,18.1-19.5c-0.6-5.9-10.5-10.3-13.8-11.4c-1.7-0.5-3-2-3.2-3.8c-0.3-1.8,0.4-3.5,1.8-4.6
						c9.2-7.1,33.9-30.4,27.4-44.2c-8-17.1-6.8-41-5.5-66.3c0.4-6.9,0.7-14,0.9-21.1c0.8-29.2-32.2-56.3-45.8-59.4
						c-8.7-2-10.5-5.7-10.8-11.8c-0.2-3.6-0.4-8.6-9.3-17.5c-16-15.9-33.4-3.5-34.1-3c-1.8,1.3-4.2,1.2-5.9-0.2
						c-1.7-1.4-2.2-3.8-1.2-5.8c4.4-9,1.8-12.6,0.9-13.8c-7.5-10.5-22-12-37.4-13.6c-14.5-1.5-29.5-3.1-38.2-13.3
						c-11-12.9-38.1-4.8-48-0.4c-4.1,2.5-59.1,35.9-120.8,86.7c-58.6,48.3-135.5,122.5-168.7,202.1c-23.8,57-39.5,102.8-46.7,135.9
						c-8.2,37.4-3.1,47.6-0.5,50.2c0.7,0.7,2.9,2.9,9.3,0.5c7.8-3,15.1-7.1,22.2-11.1C223.7,726.7,234.6,720.5,245.6,720.5z"/>
				</g>
			</g>
			<g>
				<path fill="#6C184E" d="M550,579.6c27.4-5,55-9.4,82.7-13c13.8-1.8,27.7-3.3,41.7-4.6c13.9-1.2,27.9-2.1,42-2.4
					c2.3,0,4.2,1.8,4.3,4.1c0,2.3-1.8,4.2-4.1,4.3c-0.1,0-0.1,0-0.2,0h0c-13.8-0.4-27.7-0.3-41.5,0.2s-27.8,1.4-41.6,2.5
					C605.4,573,577.7,576.1,550,579.6z"/>
			</g>
		</g>
		<g opacity="0.3">
			<g>
				<path fill="#6C184E" d="M638.6,286.8c0,0,0.1-0.1,0.4-0.3c-0.1,0-0.1-0.1-0.2-0.1C638.7,286.5,638.7,286.6,638.6,286.8z"/>
			</g>
			<g>
				<path fill="#6C184E" d="M746.2,382.3c-0.8,32.6-5.5,64.8,4.1,85.3c0.5,1.1,0.9,2.2,1.1,3.4c-1.8-18.5,0.6-41,1.2-63.7
					c0.2-9-2.3-17.7-6.5-25.6C746.2,381.9,746.2,382.1,746.2,382.3z"/>
			</g>
			<g>
				<path fill="#6C184E" d="M751.9,474.5c0.3,19.6-30.3,43.2-30.3,43.2s16,5.1,17.1,15.5c10.6-10.4,24.4-27.4,18.1-40.6
					C754.3,487.3,752.8,481.2,751.9,474.5z"/>
			</g>
		</g>
		<g>
			<g>
				
					<ellipse transform="matrix(0.8397 -0.543 0.543 0.8397 -108.3265 354.6213)" fill="#EE1822" cx="546.6" cy="360.8" rx="69.9" ry="55.8"/>
			</g>
			<g opacity="0.65">
				<path fill="#FFFFFF" d="M556.8,415.9c-34.3,8.9-64.3-8.3-67.2-38.4c-2.8-30.1,22.7-61.7,56.9-70.6c25.2-6.5,48.1,1.1,59.6,17.5
					c-11.5-19.3-36.9-28.6-65-21.3c-36.3,9.4-63.4,42.9-60.4,74.9c3,31.9,34.9,50.2,71.2,40.8c9.6-2.5,18.5-6.7,26.4-12
					C571.8,410.7,564.5,413.8,556.8,415.9z"/>
			</g>
			<g>
				<path fill="#BD1622" d="M552,316.1l7.9,84.5c22.2-9.7,37.6-31.6,35.6-52.5C593.6,327.2,575,314.2,552,316.1z"/>
			</g>
			<g>
				<path fill="#BD1622" d="M532.2,321.5c-21.6,9.9-36.5,31.4-34.6,52c1.9,20.6,20.1,33.6,42.5,32.1L532.2,321.5z"/>
			</g>
			<g>
				<path fill="#BD1622" d="M532.2,321.5c-21.6,9.9-36.5,31.4-34.6,52c1.9,20.6,20.1,33.6,42.5,32.1L532.2,321.5z"/>
			</g>
			<g>
				<path fill="#EE1822" d="M535.2,349.7c-7.1,3.2-12,10.3-11.3,17c0.6,6.8,6.6,11,13.9,10.5L535.2,349.7z"/>
			</g>
			<g>
				<path fill="#EE1822" d="M554.3,344.7c7.3-0.5,13.3,3.8,13.9,10.5c0.6,6.8-4.2,13.8-11.3,17L554.3,344.7z"/>
			</g>
			<g>
				<path fill="#6C184E" d="M533.2,425.2c-13.2,0-25.6-3.6-35.5-10.5c-12.1-8.5-19.6-21.4-21-36.4c-3.2-33.8,25.3-69.3,63.4-79.2
					c20.4-5.3,40.6-2.4,55.3,7.9c12.1,8.5,19.6,21.4,21,36.4c3.2,33.8-25.3,69.3-63.4,79.2C546.3,424.3,539.6,425.2,533.2,425.2z
					 M560,304.6c-5.8,0-11.8,0.8-17.8,2.3c-34.4,8.9-60.1,40.6-57.3,70.5c1.2,12.5,7.4,23.4,17.5,30.5c12.8,9,30.5,11.4,48.6,6.7
					c34.4-8.9,60.2-40.6,57.3-70.5c-1.2-12.5-7.4-23.4-17.5-30.5C582.3,307.7,571.6,304.6,560,304.6z"/>
			</g>
			<g>
				<g>
					<path fill="#F6C547" d="M524.6,387.1c0.5,1.2,0.8,2.4,1.1,3.6c0.3,1.2,0.5,2.3,0.4,3.4c-0.1,1.6-1.5,2.8-3.2,2.7
						s-2.8-1.5-2.7-3.1c0-0.3,0.1-0.5,0.2-0.8c0.4-1,1-2,1.8-3C522.9,389,523.7,388.1,524.6,387.1z"/>
				</g>
				<g>
					<path fill="#F6C547" d="M515.3,378.6c-0.2,1.3-0.5,2.5-0.8,3.6c-0.3,1.2-0.7,2.3-1.3,3.2c-0.9,1.4-2.7,1.7-4.1,0.8
						s-1.7-2.7-0.8-4.1c0.1-0.2,0.3-0.4,0.5-0.6c0.8-0.7,1.9-1.3,3-1.7C512.9,379.4,514,379,515.3,378.6z"/>
				</g>
				<g>
					<path fill="#F6C547" d="M512.8,365c-0.8,1-1.5,1.8-2.4,2.6c-0.8,0.8-1.6,1.5-2.6,1.9c-1.5,0.7-3.2,0.1-3.9-1.4
						c-0.7-1.5-0.1-3.2,1.4-3.9c0.3-0.1,0.6-0.2,0.8-0.2c1-0.1,2.1,0,3.2,0.2C510.5,364.4,511.6,364.6,512.8,365z"/>
				</g>
				<g>
					<path fill="#F6C547" d="M518,351.1c-1.1,0.3-2.2,0.5-3.2,0.6c-1.1,0.2-2.1,0.2-3,0c-1.6-0.4-2.6-1.9-2.2-3.5
						c0.4-1.6,1.9-2.6,3.5-2.2c0.3,0.1,0.6,0.2,0.9,0.4c0.8,0.5,1.5,1.2,2.2,2.1C516.8,349.2,517.4,350.1,518,351.1z"/>
				</g>
				<g>
					<path fill="#F6C547" d="M529.2,341.8c-1.1-0.5-2.1-1.1-3-1.7c-0.9-0.6-1.8-1.2-2.4-2c-1-1.3-0.7-3.1,0.6-4.1s3.2-0.7,4.1,0.6
						c0.2,0.2,0.3,0.5,0.4,0.8c0.3,0.9,0.4,2,0.4,3.1C529.4,339.4,529.3,340.5,529.2,341.8z"/>
				</g>
			</g>
			<g>
				<g>
					<path fill="#F6C547" d="M572.2,374.7c1.1,0.6,2,1.3,2.9,2c0.9,0.7,1.7,1.4,2.2,2.3c0.9,1.4,0.5,3.2-0.9,4.1s-3.2,0.5-4.1-0.9
						c-0.2-0.2-0.3-0.5-0.4-0.8c-0.3-1-0.3-2.1-0.2-3.2C571.8,377,572,375.9,572.2,374.7z"/>
				</g>
				<g>
					<path fill="#F6C547" d="M579.3,361.8c1.2-0.2,2.2-0.3,3.3-0.3c1.1,0,2.1,0,3,0.3c1.5,0.5,2.4,2.2,1.9,3.7s-2.2,2.4-3.7,1.9
						c-0.3-0.1-0.6-0.2-0.8-0.4c-0.8-0.6-1.4-1.4-2-2.3C580.4,363.8,579.8,362.8,579.3,361.8z"/>
				</g>
				<g>
					<path fill="#F6C547" d="M579.2,347.4c0.8-0.9,1.6-1.7,2.5-2.4c0.8-0.7,1.7-1.4,2.6-1.7c1.5-0.6,3.2,0.2,3.8,1.7
						c0.6,1.5-0.2,3.2-1.7,3.8c-0.3,0.1-0.6,0.2-0.9,0.2c-1,0.1-2-0.1-3.1-0.5C581.4,348.2,580.3,347.9,579.2,347.4z"/>
				</g>
				<g>
					<path fill="#F6C547" d="M571.8,336.6c0.2-1.3,0.6-2.4,0.9-3.5c0.4-1.1,0.8-2.2,1.4-3.1c1-1.3,2.8-1.6,4.1-0.6
						c1.3,1,1.6,2.8,0.7,4.1c-0.2,0.2-0.4,0.4-0.6,0.6c-0.8,0.7-1.9,1.1-3,1.5C574.2,335.9,573,336.3,571.8,336.6z"/>
				</g>
				<g>
					<path fill="#F6C547" d="M559.7,333.1c-0.4-1.2-0.7-2.4-0.9-3.6c-0.2-1.2-0.4-2.4-0.3-3.5c0.2-1.6,1.7-2.8,3.3-2.6
						s2.8,1.6,2.6,3.3c0,0.3-0.1,0.5-0.2,0.8c-0.4,1-1.1,2-1.9,2.9C561.5,331.3,560.7,332.3,559.7,333.1z"/>
				</g>
			</g>
			<g>
				<path fill="#BD1622" d="M560,404.7c-0.7,0-1.4-0.2-2.1-0.6c-1.1-0.7-1.9-1.8-2-3.1l-7.9-84.5c-0.1-1.1,0.2-2.2,0.9-3
					s1.7-1.4,2.8-1.5c25.6-2.2,45.8,12.8,48,35.7c2.1,22.2-13.9,46.1-38,56.6C561.1,404.6,560.5,404.7,560,404.7z M556.5,320l7,74.3
					c18.1-10,29.7-28.6,28-45.8C589.9,331.5,575.5,320,556.5,320C556.5,320,556.5,320,556.5,320z"/>
			</g>
			<g>
				<path fill="#BD1622" d="M536.6,409.8c-23.2,0-41.1-14.6-43-35.9c-2.1-22.1,13.1-45.2,37-56.1c1.2-0.5,2.6-0.5,3.7,0.2
					c1.1,0.7,1.9,1.8,2,3.1l7.9,84.1c0.1,1.1-0.2,2.2-1,3c-0.7,0.8-1.7,1.4-2.8,1.4C539.1,409.8,537.8,409.8,536.6,409.8z
					 M528.7,327.9c-17.5,10.2-28.6,28.4-27,45.3c1.6,16.9,15.3,28.1,34,28.5L528.7,327.9z"/>
			</g>
		</g>
		<g>
			<g>
				
					<ellipse transform="matrix(0.8397 -0.543 0.543 0.8397 -213.4594 299.6622)" fill="#EE1822" cx="400.9" cy="511.4" rx="65.4" ry="52.2"/>
			</g>
			<g opacity="0.65">
				<path fill="#FFFFFF" d="M410.4,562.9c-32.1,8.3-60.2-7.8-62.8-36c-2.6-28.2,21.2-57.7,53.3-66c23.6-6.1,45,1,55.8,16.4
					c-10.7-18.1-34.5-26.7-60.8-19.9c-34,8.8-59.3,40.2-56.5,70c2.8,29.9,32.6,46.9,66.6,38.1c9-2.3,17.3-6.2,24.7-11.3
					C424.5,558.1,417.7,561,410.4,562.9z"/>
			</g>
			<g>
				<path fill="#BD1622" d="M406,469.6l7.4,79c20.8-9.1,35.1-29.5,33.3-49.1C444.9,480,427.5,467.8,406,469.6z"/>
			</g>
			<g>
				<path fill="#BD1622" d="M387.4,474.6c-20.2,9.3-34.2,29.4-32.4,48.7c1.8,19.3,18.8,31.4,39.8,30L387.4,474.6z"/>
			</g>
			<g>
				<path fill="#BD1622" d="M387.4,474.6c-20.2,9.3-34.2,29.4-32.4,48.7c1.8,19.3,18.8,31.4,39.8,30L387.4,474.6z"/>
			</g>
			<g>
				<path fill="#EE1822" d="M390.3,501c-6.6,3-11.2,9.6-10.6,16c0.6,6.3,6.1,10.3,13,9.8L390.3,501z"/>
			</g>
			<g>
				<path fill="#EE1822" d="M408.1,496.4c6.9-0.5,12.4,3.5,13,9.8c0.6,6.3-4,12.9-10.6,15.9L408.1,496.4z"/>
			</g>
			<g>
				<path fill="#6C184E" d="M388.4,572c-12.5,0-24.1-3.4-33.4-9.9c-11.4-8-18.5-20.2-19.8-34.3c-3-31.8,23.8-65.2,59.6-74.5
					c19.2-5,38.2-2.3,52.1,7.5c11.4,8,18.5,20.2,19.8,34.3l0,0c3,31.8-23.8,65.2-59.6,74.5C400.7,571.2,394.4,572,388.4,572z
					 M413.5,459.3c-5.4,0-11,0.7-16.6,2.2c-32,8.3-56,37.7-53.3,65.6c1.1,11.6,6.9,21.7,16.3,28.2c11.9,8.3,28.3,10.6,45.1,6.2
					c32-8.3,56-37.7,53.3-65.6l0,0c-1.1-11.6-6.9-21.6-16.3-28.2C434.1,462.1,424.2,459.3,413.5,459.3z"/>
			</g>
			<g>
				<g>
					<path fill="#F6C547" d="M386.2,537.3c0.6,0.9,1.2,1.9,1.6,2.8c0.5,1,0.9,1.9,1.1,2.9c0.2,1.3-0.6,2.6-2,2.8s-2.6-0.6-2.8-2
						c0-0.2,0-0.4,0-0.6c0.1-1,0.4-2,0.8-3C385.3,539.3,385.7,538.3,386.2,537.3z"/>
				</g>
				<g>
					<path fill="#F6C547" d="M375.4,532.9c0.1,1.2,0,2.3-0.1,3.4c-0.1,1.1-0.2,2.2-0.6,3.2c-0.5,1.2-1.9,1.9-3.1,1.4
						s-1.9-1.8-1.4-3.1c0.1-0.2,0.2-0.3,0.2-0.5c0.6-0.9,1.4-1.6,2.2-2.3C373.5,534.3,374.4,533.6,375.4,532.9z"/>
				</g>
				<g>
					<path fill="#F6C547" d="M369.6,522.1c-0.5,1-1.1,2-1.7,2.9s-1.2,1.8-2,2.4c-1,0.9-2.5,0.7-3.4-0.3c-0.9-1-0.7-2.5,0.3-3.4
						c0.1-0.1,0.3-0.2,0.5-0.3c0.9-0.4,1.9-0.7,3-0.9C367.3,522.3,368.4,522.1,369.6,522.1z"/>
				</g>
				<g>
					<path fill="#F6C547" d="M370.9,508.6c-0.9,0.6-1.8,1-2.7,1.4c-0.9,0.4-1.8,0.8-2.7,0.8c-1.3,0.1-2.5-0.8-2.7-2.1
						s0.8-2.5,2.1-2.7c0.2,0,0.4,0,0.6,0c0.9,0.1,1.8,0.5,2.6,1C369.2,507.5,370,508,370.9,508.6z"/>
				</g>
				<g>
					<path fill="#F6C547" d="M378.9,497.2c-1-0.1-2-0.4-2.9-0.7c-0.9-0.3-1.8-0.6-2.6-1.1c-1.1-0.8-1.4-2.3-0.6-3.4s2.3-1.4,3.4-0.6
						c0.2,0.1,0.4,0.3,0.5,0.4c0.6,0.7,1,1.5,1.3,2.4C378.3,495.2,378.7,496.2,378.9,497.2z"/>
				</g>
			</g>
			<g>
				<g>
					<path fill="#F6C547" d="M424.9,524.4c0.9,0.6,1.7,1.3,2.5,2c0.8,0.7,1.5,1.4,2,2.2c0.7,1.1,0.3,2.6-0.8,3.3
						c-1.1,0.7-2.6,0.3-3.3-0.8c-0.1-0.2-0.2-0.4-0.2-0.6c-0.3-0.9-0.3-1.9-0.3-2.9C424.7,526.6,424.7,525.5,424.9,524.4z"/>
				</g>
				<g>
					<path fill="#F6C547" d="M431.6,512.3c1-0.1,2-0.1,3-0.1c1,0,1.9,0.1,2.7,0.4c1.3,0.5,1.9,1.8,1.5,3.1c-0.5,1.3-1.8,1.9-3.1,1.5
						c-0.2-0.1-0.4-0.2-0.6-0.3c-0.7-0.5-1.3-1.2-1.9-2C432.6,514.1,432.1,513.3,431.6,512.3z"/>
				</g>
				<g>
					<path fill="#F6C547" d="M431.4,498.9c0.8-0.8,1.5-1.4,2.4-2c0.8-0.6,1.6-1.2,2.5-1.5c1.3-0.5,2.6,0.2,3.1,1.5
						c0.5,1.3-0.2,2.6-1.5,3.1c-0.2,0.1-0.4,0.1-0.6,0.1c-0.9,0.1-1.9-0.1-2.9-0.3C433.4,499.5,432.4,499.3,431.4,498.9z"/>
				</g>
				<g>
					<path fill="#F6C547" d="M424.5,488.8c0.3-1.1,0.6-2.2,1-3.2c0.4-1,0.8-2,1.4-2.8c0.8-1.1,2.3-1.3,3.4-0.5
						c1.1,0.8,1.3,2.3,0.5,3.4c-0.1,0.2-0.3,0.3-0.4,0.4c-0.8,0.6-1.7,1.1-2.7,1.5C426.6,488.1,425.6,488.5,424.5,488.8z"/>
				</g>
				<g>
					<path fill="#F6C547" d="M413.2,485.5c-0.3-1.1-0.5-2.2-0.7-3.3c-0.2-1.1-0.3-2.2-0.1-3.2c0.2-1.3,1.4-2.2,2.7-2.1
						s2.2,1.4,2.1,2.7c0,0.2-0.1,0.4-0.1,0.5c-0.4,1-1,1.9-1.7,2.7C414.7,483.8,414,484.7,413.2,485.5z"/>
				</g>
			</g>
			<g>
				<path fill="#BD1622" d="M413.4,552.9c-0.7,0-1.5-0.2-2.1-0.6c-1.2-0.7-1.9-1.9-2-3.2l-7.4-79c-0.1-1.1,0.2-2.2,1-3.1
					s1.8-1.4,2.9-1.5c24.2-2.1,43.2,12.1,45.3,33.7c2,21-13.1,43.4-35.8,53.4C414.6,552.8,414,552.9,413.4,552.9z M410.6,473.7
					l6.4,68.5c16.5-9.4,27-26.4,25.5-42.2C441.1,484.4,427.9,473.8,410.6,473.7z"/>
			</g>
			<g>
				<path fill="#BD1622" d="M391.5,557.6c-21.9,0-38.8-13.8-40.6-33.9c-2-20.9,12.4-42.6,34.8-52.9c1.2-0.6,2.7-0.5,3.9,0.2
					s2,1.9,2.1,3.2l7.4,78.7c0.1,1.1-0.2,2.2-1,3.1s-1.8,1.4-2.9,1.5C393.9,557.6,392.7,557.6,391.5,557.6z M383.8,481.3
					c-15.9,9.5-26,26.2-24.6,41.7c1.5,15.4,13.9,25.8,31,26.3L383.8,481.3z"/>
			</g>
		</g>
		<g>
			<g>
				<g>
					<path fill="#48C75A" d="M314.8,502.9c-44.4,1.8-45.3,24.3-31.2,59.1C310.3,550.8,328,531.3,314.8,502.9z"/>
				</g>
				<g>
					<path fill="#661A47" d="M282.6,569.8c-0.6,0-1.1-0.1-1.6-0.3c-1.1-0.5-1.9-1.4-2.3-2.5c-6.8-19.8-11.8-40-2.3-53.6
						c6.6-9.4,19.1-14.2,38.4-14.6c1.6-0.1,3.1,0.9,3.8,2.3c5.6,11.1,6.6,22.2,2.9,32.8c-4.9,14.2-18.1,26.8-37.1,35.6
						C283.8,569.6,283.2,569.8,282.6,569.8z M312.2,507.2c-14.8,0.7-24.3,4.3-29,10.9c-6.7,9.6-3.2,25.9,1.8,41.5
						c14.5-7.6,24.7-17.8,28.5-28.6C316.2,523.4,315.7,515.4,312.2,507.2z"/>
				</g>
				<g>
					<path fill="#651B47" d="M316.1,506.9c-2.9,1.3-5.7,3-8.3,5.2c-2.6,2.2-5.2,4.7-7.5,7.5c-4.6,5.7-8.5,12.2-11.7,19.4
						c0-4,0.6-7.9,1.6-11.8c1-3.9,2.5-7.7,4.4-11.3c1.9-3.6,4.3-7.2,7.4-10.2c3.1-3,7-5.6,11.4-6.7c2.2-0.6,4.5,0.8,5.1,3
						c0.5,2-0.5,4-2.3,4.9L316.1,506.9z"/>
				</g>
			</g>
			<g>
				<g>
					<path fill="#48C75A" d="M395.2,381.8c39.3-20.7,51.4-1.7,56.6,35.4C423.1,421,398,412.9,395.2,381.8z"/>
				</g>
				<g>
					<path fill="#661A47" d="M445.3,424.4c-16.7,0-30.8-4.4-40.4-12.6c-8.5-7.3-13.2-17.3-14-29.8c-0.1-1.6,0.7-3.1,2.2-3.9
						c16.9-9.3,30.1-11.5,40.5-6.7c15,7,20.9,26.9,25,47.5c0.2,1.2,0,2.4-0.8,3.3c-0.7,1-1.8,1.6-3,1.7
						C451.6,424.2,448.4,424.4,445.3,424.4z M399.6,384.2c1,8.9,4.7,16,10.8,21.2c8.7,7.4,22.7,11.2,39,10.5
						c-3.5-16-8.7-31.9-19.3-36.8C422.8,375.6,412.8,377.3,399.6,384.2z"/>
				</g>
				<g>
					<path fill="#651B47" d="M394.3,377.7c4.4-1.2,9.1-1,13.2,0.1c4.2,1,8,2.9,11.5,5.1c3.5,2.2,6.6,4.8,9.5,7.6
						c2.8,2.9,5.4,6,7.3,9.4c-6.4-4.6-13-8.4-19.9-10.9c-3.4-1.3-6.9-2.1-10.2-2.7c-3.4-0.5-6.6-0.6-9.8-0.3l-0.1,0
						c-2.3,0.2-4.4-1.5-4.6-3.8C391.1,380,392.4,378.2,394.3,377.7z"/>
				</g>
			</g>
			<g>
				<g>
					<path fill="#48C75A" d="M569.9,521.4c-30.4-28.2-45.9-14-59.7,18.2C535.2,550,559.8,548.8,569.9,521.4z"/>
				</g>
				<g>
					<path fill="#661A47" d="M533.4,550.4c-8.5,0-17.9-1.8-27.6-5.4c-1-0.4-1.9-1.2-2.3-2.2c-0.4-1-0.4-2.2,0.1-3.2
						c8.7-17.5,18.8-34.1,34-36.8c10.6-1.9,22,3.3,35,15.8c1.1,1,1.5,2.6,1,4.1c-3.7,11-10.3,19-19.8,23.5
						C547.9,549,541,550.4,533.4,550.4z M512.7,539c14.5,4.6,28.1,4.6,37.7,0c6.8-3.3,11.8-8.8,14.9-16.6
						c-10.2-9.4-18.8-13.3-26.3-12C528.2,512.4,519.7,525.4,512.7,539z"/>
				</g>
				<g>
					<path fill="#651B47" d="M568.1,524.9c-2.8-1-5.7-1.8-8.9-2.1c-3.2-0.3-6.5-0.4-9.9,0c-6.8,0.7-13.7,2.4-20.6,5
						c2.6-2.6,5.7-4.8,8.9-6.7c3.2-1.9,6.7-3.4,10.4-4.6c3.7-1.1,7.6-1.9,11.6-1.8c4,0.1,8.3,0.9,12,3.1c1.9,1.1,2.5,3.5,1.4,5.4
						c-1,1.7-3,2.3-4.8,1.7L568.1,524.9z"/>
				</g>
			</g>
			<g>
				<g>
					<path fill="#48C75A" d="M222.7,592.7c2.4,0.1,4.7,0.3,7,0.6c2.3,0.3,4.6,0.6,7,1c2.3,0.4,4.7,0.9,7.1,1.6
						c2.4,0.7,4.9,1.5,7.6,3.2l0.3,0.2c2.8,1.7,3.6,5.3,1.9,8s-5.3,3.6-8,1.9c-0.3-0.2-0.6-0.4-0.9-0.7c-1-0.9-2.7-1.9-4.5-2.7
						c-1.8-0.8-3.8-1.6-5.8-2.2c-2-0.7-4.1-1.3-6.2-1.8c-2.1-0.5-4.3-1.1-6.3-1.5l-0.1,0c-2.1-0.4-3.4-2.5-3-4.5
						C219.1,593.9,220.8,592.6,222.7,592.7z"/>
				</g>
				<g opacity="0.3">
					<path fill="#6C184E" d="M222.7,592.7c2.4,0.1,4.7,0.3,7,0.6c2.3,0.3,4.6,0.6,7,1c2.3,0.4,4.7,0.9,7.1,1.6
						c2.4,0.7,4.9,1.5,7.6,3.2l0.3,0.2c2.8,1.7,3.6,5.3,1.9,8s-5.3,3.6-8,1.9c-0.3-0.2-0.6-0.4-0.9-0.7c-1-0.9-2.7-1.9-4.5-2.7
						c-1.8-0.8-3.8-1.6-5.8-2.2c-2-0.7-4.1-1.3-6.2-1.8c-2.1-0.5-4.3-1.1-6.3-1.5l-0.1,0c-2.1-0.4-3.4-2.5-3-4.5
						C219.1,593.9,220.8,592.6,222.7,592.7z"/>
				</g>
				<g>
					<path fill="#661A47" d="M248.6,613.5c-1.6,0-3.3-0.4-4.8-1.4c-0.5-0.3-0.9-0.7-1.4-1c-0.2-0.2-1.2-1-3.7-2.1
						c-1.6-0.7-3.4-1.4-5.5-2.1c-1.9-0.6-3.9-1.2-6-1.8c-2.1-0.6-4.2-1.1-6.2-1.5c-2-0.4-3.6-1.5-4.6-3.1s-1.4-3.5-1-5.4
						c0.7-3.5,3.9-5.9,7.4-5.7l0,0c2.3,0.1,4.6,0.3,7.2,0.6c2.4,0.3,4.9,0.6,7.2,1c2.8,0.5,5.2,1,7.5,1.7c2.9,0.9,5.4,1.7,8.4,3.5
						l0.3,0.2c4.3,2.7,5.7,8.3,3,12.6C254.7,611.9,251.7,613.5,248.6,613.5z M222.5,596c-0.2,0-0.4,0.1-0.5,0.4c0,0.2,0,0.3,0.1,0.4
						s0.1,0.2,0.3,0.2c2.1,0.4,4.4,1,6.6,1.6c2.2,0.6,4.4,1.2,6.4,1.9c2.4,0.8,4.4,1.6,6.2,2.4c2.4,1.1,4.2,2.2,5.4,3.3
						c0.1,0.1,0.3,0.2,0.4,0.3c1.2,0.7,2.7,0.3,3.4-0.8s0.4-2.7-0.8-3.4l-0.3-0.2c-2.3-1.4-4.4-2.1-6.8-2.8c-2-0.6-4.1-1.1-6.7-1.5
						c-2.2-0.4-4.4-0.7-6.8-1C226.9,596.4,224.7,596.2,222.5,596C222.5,596,222.5,596,222.5,596z"/>
				</g>
				<g>
					<g>
						<path fill="#48C75A" d="M228,597.2c-13.5-49.5-70.4-9.1-70.4-9.1S202.3,641.7,228,597.2z"/>
					</g>
					<g opacity="0.65">
						<path fill="#FFFFFF" d="M227.7,597.8c0.1-0.2,0.2-0.3,0.3-0.5c-13.5-49.5-70.4-9.1-70.4-9.1s1.5,1.8,4.2,4.5
							C172.4,585.8,213.6,562.6,227.7,597.8z"/>
					</g>
					<g>
						<path fill="#661A47" d="M201.2,618.2c-24.6,0-49.3-26.7-50.4-27.9c-0.7-0.7-1-1.7-0.9-2.7s0.7-1.8,1.5-2.4
							c1.4-0.9,35.2-23,59.4-13.8c10,3.8,16.8,12.1,20.3,24.9c0.2,0.9,0.1,1.8-0.3,2.6c-6.7,11.5-15.5,18-26.2,19.1
							C203.6,618.2,202.4,618.2,201.2,618.2z M158.7,588.8c7.4,7.1,27.4,24.5,45.3,22.6c8.1-0.9,14.9-5.8,20.4-14.6
							c-3-9.8-8.3-16.2-15.8-19.1C191.7,571.3,167.7,583.6,158.7,588.8z"/>
					</g>
					<g>
						<g>
							<line fill="none" x1="228" y1="597.2" x2="189.8" y2="592.3"/>
						</g>
						<g>
							<path fill="#651B47" d="M227.6,600.6c-3.2-0.1-6.4-0.6-9.6-1.1s-6.3-1.2-9.5-2c-6.3-1.5-12.6-3.1-18.8-5.2
								c6.5-0.4,13-0.4,19.4-0.2c3.2,0.1,6.4,0.2,9.6,0.5c3.2,0.3,6.4,0.7,9.5,1.3c1.8,0.4,3,2.2,2.6,4
								C230.7,599.5,229.2,600.6,227.6,600.6z"/>
						</g>
					</g>
				</g>
				<g>
					<path fill="#661A47" d="M200.1,618.2c4.3-3.8,8.6-7.6,13-11.3c4.4-3.7,8.8-7.4,13.4-11c1.5-1.1,3.6-0.9,4.7,0.6
						c1.1,1.5,0.9,3.6-0.6,4.7c-0.2,0.1-0.4,0.2-0.5,0.3l0,0c-5.1,2.5-10.1,5.3-15.1,8.1C210,612.4,205,615.3,200.1,618.2z"/>
				</g>
				<g>
					<g>
						<path fill="#48C75A" d="M228.2,597.9c0,0-28.9,1.8-35.5,51.7C192.7,649.6,251.7,630.9,228.2,597.9z"/>
					</g>
					<g opacity="0.65">
						<path fill="#FFFFFF" d="M201,645c5.4-41,28.8-43.1,29.6-43.2c-0.7-1.3-1.5-2.6-2.4-3.9c0,0-28.9,1.8-35.5,51.7
							c0,0,12.7-4,24-11.7C208.6,642.6,201,645,201,645z"/>
					</g>
					<g>
						<path fill="#661A47" d="M192.7,653c-0.8,0-1.5-0.3-2.1-0.8c-0.9-0.7-1.3-1.9-1.2-3c6.9-52.1,37.3-54.6,38.6-54.7
							c1.1-0.1,2.3,0.5,2.9,1.4c5.9,8.3,7.6,16.7,4.9,24.7c-6.9,20.7-40.7,31.7-42.1,32.2C193.4,652.9,193,653,192.7,653z
							 M226.6,601.5c-5.8,1.3-23.5,8.1-29.7,43c9.3-3.8,28.2-12.8,32.6-26C231.3,613.1,230.4,607.5,226.6,601.5z"/>
					</g>
					<g>
						<path fill="#661A47" d="M211.9,619.7c2.1-4,4.3-8.1,6.6-12.1c2.3-4,4.6-8,7.2-11.9c1-1.5,3.1-2,4.7-0.9c1.6,1,2,3.1,0.9,4.7
							c-0.1,0.2-0.4,0.5-0.6,0.6c-3.3,3-6.4,6.2-9.6,9.5C218,612.9,214.9,616.3,211.9,619.7z"/>
					</g>
				</g>
				<g>
					<g>
						<path fill="#48C75A" d="M227.9,597.7c0,0-26.9-10.6-17.8-60.2C210.2,537.6,260.5,573.7,227.9,597.7z"/>
					</g>
					<g opacity="0.65">
						<path fill="#FFFFFF" d="M218,544c-4.4-4-7.8-6.4-7.8-6.4c-9.2,49.6,17.8,60.2,17.8,60.2c0.4-0.3,0.8-0.6,1.1-0.9
							C223.7,592.9,209.8,578.9,218,544z"/>
					</g>
					<g>
						<path fill="#661A47" d="M227.9,601.1c-0.4,0-0.8-0.1-1.2-0.2c-1.2-0.5-29.4-12.2-19.8-63.9c0.2-1.1,1-2.1,2-2.5
							s2.3-0.3,3.2,0.4c1.2,0.9,29.9,21.7,30.1,43.6c0.1,8.5-4.1,15.9-12.3,22C229.4,600.9,228.6,601.1,227.9,601.1z M212.6,543.7
							c-4.9,35.1,9.9,47,15,50.1c5.4-4.5,8-9.5,8-15.3C235.4,564.7,220.3,550.2,212.6,543.7z"/>
					</g>
					<g>
						<path fill="#661A47" d="M219.2,572c1.8,4.2,3.7,8.3,5.7,12.4c2,4.1,4,8.2,6.2,12c0.9,1.6,0.4,3.7-1.2,4.6
							c-1.6,0.9-3.7,0.4-4.6-1.2c-0.1-0.2-0.2-0.5-0.3-0.8c-1.3-4.6-2.3-9-3.2-13.5C220.8,581,219.9,576.5,219.2,572z"/>
					</g>
				</g>
			</g>
		</g>
		<g>
			<path fill="#6C184E" d="M176.9,733.2c0.1,0.2,0.2,0.3,0.4,0.4s0.4,0.2,0.8,0.3c0.8,0.2,2,0.2,3.2,0c2.6-0.4,5.5-1.4,8.2-2.5
				c5.6-2.4,11.1-5.5,16.5-8.8c10.8-6.7,21.2-14.2,31.4-22c10.2-7.8,20.1-16,29.7-24.5c2.4-2.1,4.8-4.2,7.2-6.4
				c2.4-2.2,4.7-4.3,7.2-6.5c1.2-1.1,2.5-2.2,3.7-3.2l3.8-3.1l1.9-1.5l2-1.5l3.9-2.9c21.4-15.1,45-26.3,69.4-35
				c12.2-4.4,24.6-8.1,37.1-11.2c12.5-3.2,25.2-5.8,38-7.6c-25.3,5.1-50.1,12.5-74,21.8c-12,4.7-23.7,10-35,15.9
				c-11.3,6-22.3,12.7-32.5,20.3l-3.8,2.9l-1.9,1.5l-1.8,1.5l-3.6,3.1c-1.2,1.1-2.3,2.2-3.5,3.2c-2.3,2.1-4.7,4.4-7,6.6
				c-2.4,2.2-4.7,4.4-7.1,6.6c-9.6,8.8-19.4,17.2-29.4,25.4c-10.1,8.2-20.5,16-31.5,23.1c-5.6,3.5-11.2,6.9-17.4,9.7
				c-3.1,1.4-6.4,2.6-10.2,3.3c-1.9,0.3-4,0.5-6.4,0c-1.2-0.3-2.5-0.7-3.7-1.6c-1.2-0.8-2.2-1.9-2.9-3.1c-1.2-2-0.5-4.6,1.5-5.7
				C173.2,730.5,175.7,731.2,176.9,733.2L176.9,733.2z"/>
		</g>
		<g>
			<g opacity="0.3">
				
					<ellipse transform="matrix(0.968 -0.2508 0.2508 0.968 -113.0037 183.6054)" fill="#6C184E" cx="663.9" cy="535.2" rx="6.7" ry="4.9"/>
			</g>
			<g opacity="0.3">
				
					<ellipse transform="matrix(0.968 -0.2508 0.2508 0.968 -109.6924 175.3081)" fill="#6C184E" cx="633" cy="518" rx="10.9" ry="8"/>
			</g>
			<g opacity="0.3">
				
					<ellipse transform="matrix(0.9355 -0.3532 0.3532 0.9355 -130.2116 229.3334)" fill="#6C184E" cx="563.2" cy="471.4" rx="8.5" ry="6.7"/>
			</g>
			<g opacity="0.3">
				
					<ellipse transform="matrix(0.9355 -0.3532 0.3532 0.9355 -96.2671 252.5498)" fill="#6C184E" cx="643.8" cy="390" rx="5.9" ry="4.6"/>
			</g>
			<g opacity="0.3">
				
					<ellipse transform="matrix(0.9355 -0.3532 0.3532 0.9355 -117.1455 260.2306)" fill="#6C184E" cx="654.4" cy="451.1" rx="6.7" ry="5.2"/>
			</g>
			<g opacity="0.3">
				<path fill="#6C184E" d="M591,430c0.8,2.2-0.8,4.9-3.6,6c-2.8,1.1-5.8,0.1-6.7-2.1c-0.8-2.2,0.8-4.9,3.6-6
					C587.2,426.8,590.2,427.8,591,430z"/>
			</g>
			<g opacity="0.3">
				
					<ellipse transform="matrix(0.8111 -0.5849 0.5849 0.8111 -204.0741 383.7152)" fill="#6C184E" cx="492" cy="507.8" rx="6.1" ry="4.8"/>
			</g>
			<g opacity="0.3">
				
					<ellipse transform="matrix(0.8111 -0.5849 0.5849 0.8111 -167.5868 380.6762)" fill="#6C184E" cx="505.6" cy="449.8" rx="6" ry="4.7"/>
			</g>
			<g opacity="0.3">
				
					<ellipse transform="matrix(0.8111 -0.5849 0.5849 0.8111 -292.0191 301.8588)" fill="#6C184E" cx="321.3" cy="603" rx="8" ry="6.3"/>
			</g>
			<g opacity="0.3">
				
					<ellipse transform="matrix(0.8111 -0.5849 0.5849 0.8111 -266.4498 296.1162)" fill="#6C184E" cx="325.2" cy="560.6" rx="6.8" ry="5.3"/>
			</g>
			<g opacity="0.3">
				
					<ellipse transform="matrix(0.8111 -0.5849 0.5849 0.8111 -327.2708 274.039)" fill="#6C184E" cx="260.6" cy="643.7" rx="4.4" ry="3.5"/>
			</g>
			<g opacity="0.3">
				
					<ellipse transform="matrix(0.8111 -0.5849 0.5849 0.8111 -220.7824 282.3297)" fill="#6C184E" cx="326.7" cy="483" rx="6.8" ry="5.3"/>
			</g>
			<g opacity="0.3">
				
					<ellipse transform="matrix(0.8111 -0.5849 0.5849 0.8111 -184.816 308.831)" fill="#6C184E" cx="385.7" cy="440.5" rx="8.8" ry="6.9"/>
			</g>
		</g>
		<g>
			<g>
				<g>
					<g>
						<path fill="#EB984E" d="M722.5,547.5c-8.5,48.1,101.4,55.9,101.4,55.9s69.6-162.9-42.7-302s-265.1-118-281.7-85.1
							s16.3,47.9,16.3,47.9S768.3,286.4,722.5,547.5z"/>
					</g>
					<g opacity="0.65">
						<path fill="#FFFFFF" d="M781.2,301.5c-112.3-139.1-265.1-118-281.7-85.1c-14.8,29.2,9.7,44.4,15.3,47.3
							c-6.7-7.2-12.2-19-3.7-35.9c3.6-7.2,14.3-13.8,29.8-17.9c-3.6,2.3-5.6,4.9-5.1,7.3c0.9,4.9,11.3,7.1,23.2,4.9
							c12-2.1,21-7.8,20.1-12.7c-0.3-1.8-1.9-3.1-4.3-4.1c54.5-1.4,133.6,21.6,198.2,101.6c104.4,129.3,39.7,280.7,39.7,280.7
							s-72.5-5.1-90.6-33.5c2.2,42.2,101.9,49.3,101.9,49.3S893.5,440.5,781.2,301.5z"/>
					</g>
					<g opacity="0.3">
						<path fill="#6C184E" d="M823.9,603.5c0,0,9.5-22.2,15.8-57.2c-11.5-10.9-29-20-47.3-27.3c-16.2-6.5-26.2-22.8-24.8-40.2
							c3.9-44.9,3.7-101.5-35.2-149.7c-87.8-108.7-206.8-94-222.7-68.6c3.5,2.5,6.1,3.7,6.1,3.7s252.5,22.2,206.6,283.3
							C714,595.7,823.9,603.5,823.9,603.5z"/>
					</g>
					<g>
						<path fill="#6C184E" d="M823.9,608.2c-0.1,0-0.2,0-0.3,0c-3.1-0.2-76-5.7-99.2-35.3c-6.1-7.8-8.4-16.6-6.7-26.2
							c13.6-77.6,1.9-141.3-35-189.4C623,279.4,516.5,269.1,515.4,269c-0.5,0-1.1-0.2-1.6-0.4c-0.7-0.3-16.4-7.6-22-23.4
							c-3.4-9.6-2.2-20,3.3-31c6.5-12.9,28.7-22.8,57.8-25.9c63.7-6.7,158,18.7,231.9,110.2c59,73,67.6,152.6,64.5,206.4
							c-3.4,58.3-20.4,98.8-21.1,100.4C827.5,607.1,825.8,608.2,823.9,608.2z M722.5,547.5l4.7,0.8c-1.2,6.9,0.4,13,4.8,18.6
							c17.9,22.9,74.2,29.9,88.8,31.4c4-10.7,16.4-46.8,19.1-94.4c3-52.1-5.5-129-62.4-199.5C706,216,615.2,191.4,554,197.8
							c-29,3.1-46.2,12.6-50.3,20.7c-4.3,8.5-5.3,16.4-2.9,23.4c3.6,10.3,13.6,16.2,16.3,17.6c5.2,0.5,30.5,3.6,62.4,15
							c32.5,11.6,78.1,34.3,110.7,76.8c38.6,50.3,51,116.6,36.9,197L722.5,547.5z"/>
					</g>
				</g>
				<g>
					<path fill="#F7AF41" d="M823.9,603.5c0,0-21.5,24.3-64,11.1c-42.5-13.2-52.4-42.5-37.5-67S854.3,553.9,823.9,603.5z"/>
				</g>
				<g opacity="0.3">
					<path fill="#6C184E" d="M823.9,603.5c0,0-21.5,24.3-64,11.1c-42.5-13.2-52.4-42.5-37.5-67S854.3,553.9,823.9,603.5z"/>
				</g>
				<g>
					<path fill="#6C184E" d="M784.4,623.3c-7.6,0-16.3-1.2-25.9-4.2c-29.4-9.1-40.6-24.3-44.8-35.5c-4.7-12.4-3-26.1,4.7-38.7
						c5.8-9.5,20.2-11.1,31.4-10.8c29,0.8,67.9,15.5,80,37.9c5.8,10.8,5.2,22.5-1.8,33.9c-0.2,0.2-0.3,0.5-0.5,0.7
						C826.7,607.5,812.3,623.3,784.4,623.3z M747.4,543.8c-10.7,0-18.5,2.3-20.9,6.3c-6.2,10.1-7.5,20.6-3.9,30.2
						c4.9,12.9,18.6,23.5,38.6,29.7c36.8,11.4,56.2-6.8,58.7-9.4c5-8.4,5.4-16.2,1.2-23.9c-10.2-18.8-45.4-32.2-71.8-32.8
						C748.8,543.8,748.1,543.8,747.4,543.8z M823.9,603.5L823.9,603.5L823.9,603.5z"/>
				</g>
			</g>
			<g>
				<g>
					<path fill="#6D184E" d="M575.5,243.3c-1-2.1-1.3-4.5-1.4-6.8c0-2.3,0.5-4.7,1.3-6.9c0.8-2.2,2.1-4.3,3.8-6
						c1.7-1.7,3.9-2.9,6.2-3.4c-1.1,2.2-2.3,3.8-3.3,5.7c-1,1.8-1.9,3.5-2.7,5.4c-0.8,1.8-1.5,3.8-2.2,5.8
						C576.8,239,576.2,241.1,575.5,243.3z"/>
				</g>
				<g>
					<path fill="#6D184E" d="M588.3,251.8c-0.7-3.1-0.5-6.3,0-9.5c0.5-3.1,1.6-6.2,3.2-9.1c1.5-2.9,3.6-5.5,6.2-7.6
						c0.7-0.5,1.3-1,2-1.4c0.7-0.4,1.4-0.8,2.2-1.1c0.7-0.4,1.5-0.6,2.3-0.9c0.8-0.2,1.5-0.4,2.3-0.6c-2.2,2.5-4.3,4.4-6.1,6.8
						c-1.8,2.2-3.5,4.5-4.9,7c-1.5,2.5-2.7,5.1-3.9,7.8C590.2,245.9,589.3,248.8,588.3,251.8z"/>
				</g>
			</g>
			<g>
				<g>
					<path fill="#6D184E" d="M768,456.6c2.7-2.1,5.8-3.5,9-4.6c3.3-1,6.7-1.5,10.2-1.4c3.5,0,7,0.7,10.2,2.1
						c0.8,0.4,1.6,0.7,2.3,1.1c0.7,0.5,1.5,1,2.2,1.5c0.7,0.5,1.3,1.1,2,1.7c0.6,0.6,1.2,1.2,1.7,1.9c-3.4-0.9-6.3-2-9.4-2.6
						c-3-0.7-6.1-1.1-9.2-1.3c-3.1-0.2-6.2-0.1-9.4,0.2C774.5,455.5,771.3,456,768,456.6z"/>
				</g>
				<g>
					<path fill="#6D184E" d="M762.7,478.8c4.2-2.1,8.8-3.4,13.4-4c4.7-0.7,9.5-0.6,14.2,0.1c1.2,0.2,2.4,0.4,3.5,0.7
						c1.2,0.3,2.3,0.6,3.5,1c1.1,0.4,2.2,0.9,3.3,1.3l1.7,0.7l1.6,0.9c1,0.6,2.1,1.2,3,1.9c1,0.7,1.9,1.5,2.8,2.2
						c0.5,0.4,0.9,0.7,1.3,1.2l1.2,1.3c0.8,0.9,1.5,1.8,2.2,2.7c-4.2-2.2-8-4.5-12.2-5.9l-1.5-0.6l-1.6-0.5c-1-0.3-2.1-0.7-3.1-1
						c-1.1-0.2-2.1-0.5-3.2-0.8c-1.1-0.3-2.2-0.4-3.2-0.6c-4.3-0.8-8.8-1.1-13.2-1.2C771.8,478,767.3,478.3,762.7,478.8z"/>
				</g>
			</g>
		</g>
		<g>
			<g>
				<path fill="#48C75A" d="M625.4,440.3c34-18,44.5-1.5,49,30.7C649.6,474.2,627.9,467.2,625.4,440.3z"/>
			</g>
			<g>
				<path fill="#661A47" d="M668.8,477.2c-14.4,0-26.7-3.8-35-10.9c-7.4-6.3-11.5-15-12.1-25.8c-0.1-1.4,0.6-2.7,1.9-3.4
					c14.6-8.1,26.1-10,35.1-5.8c13,6,18.1,23.3,21.6,41.1c0.2,1,0,2.1-0.7,2.9s-1.5,1.4-2.6,1.5C674.3,477,671.5,477.2,668.8,477.2z
					 M629.2,442.4c0.9,7.7,4,13.9,9.4,18.4c7.5,6.5,19.7,9.7,33.8,9c-3-13.9-7.5-27.6-16.7-31.9C649.3,435,640.6,436.4,629.2,442.4z
					"/>
			</g>
			<g>
				<path fill="#651B47" d="M624.7,436.7c3.8-1.1,7.8-0.8,11.5,0.1c3.7,0.9,7,2.5,10,4.4c3,1.9,5.8,4.1,8.2,6.6
					c2.4,2.5,4.6,5.2,6.3,8.1c-5.5-4-11.3-7.2-17.2-9.5c-3-1.1-6-1.9-8.9-2.3c-2.9-0.5-5.7-0.5-8.5-0.3l-0.1,0c-2,0.2-3.8-1.3-4-3.3
					C621.9,438.8,623,437.2,624.7,436.7z"/>
			</g>
		</g>
	</g>
</g>
</svg>
