<?xml version="1.0" encoding="utf-8"?>
<!-- Generator: Adobe Illustrator 23.0.5, SVG Export Plug-In . SVG Version: 6.00 Build 0)  -->
<svg version="1.1" baseProfile="basic" id="Layer_1"
	 xmlns="http://www.w3.org/2000/svg" xmlns:xlink="http://www.w3.org/1999/xlink" x="0px" y="0px" viewBox="0 0 1000 1000"
	 xml:space="preserve">
<g>
	<circle fill="#FFD283" cx="500" cy="500" r="500"/>
</g>
<g>
	<g>
		<g>
			
				<ellipse transform="matrix(0.9857 -0.1687 0.1687 0.9857 -129.2884 88.0579)" fill="#F4384B" cx="453.5" cy="804.8" rx="97.4" ry="37.1"/>
		</g>
		<g opacity="0.55">
			<path fill="#FFFFFF" d="M467.4,839.9c-2.5,0.5-5,1-7.6,1.4c-53,9.1-98.8,0.1-102.3-20.1s36.7-43.9,89.8-53
				c2.6-0.4,5.1-0.8,7.6-1.2c-49.2,10-85.4,32.4-82.2,51.6S417.6,846.9,467.4,839.9z"/>
		</g>
		<g>
			<g opacity="0.3">
				<path fill="#650000" d="M482.3,799.8c2.3,13.3-14.5,28.2-41.4,39.4c0,0,0,0,0,0c1.6-0.2,3.1-0.5,4.7-0.8
					c53-9.1,93.2-32.8,89.8-53c-1.5-8.7-10.9-15.4-25.4-19.3c1.3,0.2,2.6,0.4,3.9,0.6c-18.1-3-41.5-2.8-66.6,1.5
					c-11.8,2-23,4.8-33.2,8.1C451.4,775.2,479.6,784.2,482.3,799.8z"/>
			</g>
		</g>
		<g>
			<path fill="#650000" d="M419.8,850c-11.1,0-21.6-0.9-30.8-2.7c-21.6-4.2-34.6-13.2-36.6-25.2c-2.1-12,7.2-24.8,26.2-36
				c17.5-10.3,41.6-18.5,67.8-23c26.2-4.5,51.7-4.8,71.6-0.9c21.6,4.2,34.6,13.2,36.6,25.2l0,0c2.1,12-7.2,24.8-26.2,36
				c-17.5,10.3-41.6,18.5-67.8,23C446.5,848.8,432.7,850,419.8,850z M487.2,769.8c-12.3,0-25.5,1.2-39.1,3.5
				c-25,4.3-47.9,12-64.3,21.7c-14.5,8.6-22.5,18.1-21.2,25.3c1.2,7.3,11.9,13.6,28.5,16.8c18.7,3.7,42.8,3.3,67.9-0.9
				c25-4.3,47.9-12,64.3-21.7c14.5-8.6,22.5-18.1,21.2-25.3c-1.2-7.3-11.9-13.6-28.5-16.8C507.4,770.7,497.6,769.8,487.2,769.8z"/>
		</g>
		<g>
			<path fill="#F4384B" d="M643.3,538.3c51.9,303.1-405.6,381.4-457.5,78.3c-7.9-46,88.2-100.8,214.5-122.4
				C526.7,472.6,635.4,492.3,643.3,538.3z"/>
		</g>
		<g opacity="0.55">
			<g>
				<g>
					<path fill="#FFFFFF" d="M338.1,659.4c-17.8,0-34.7-1.1-50.4-3.2l0,0l-1.1-0.2c-9.6-1.3-18.7-3.1-27.1-5.2
						c-1.9-0.5-3.9-1-5.9-1.6c-7.5-2.1-14.3-4.5-20.2-7.1c-9.2-4-16.2-8.5-20.9-13.3c-1.6-1.7-1.6-4.4,0.1-6.1
						c1.7-1.6,4.4-1.6,6.1,0.1c3.8,3.9,10.1,7.9,18.1,11.4c5.5,2.4,11.9,4.7,19.1,6.7c1.9,0.5,3.8,1,5.6,1.5c8.1,2,17,3.7,26.3,5
						l0.3,0c18.9,2.6,39.7,3.6,61.8,3.1l0,0l0.4,0c7.9-0.2,16-0.6,24-1.2l0.3,0c3.1-0.2,6.3-0.5,9.5-0.8c8.7-0.8,17.7-1.9,26.9-3.2
						c1.3-0.2,2.6-0.4,3.9-0.6c4.6-0.7,8.7-1.4,12.8-2c2.5-0.4,5.1-0.9,7.6-1.3c7.5-1.4,15-2.9,22.3-4.5l0,0l0.9-0.2
						c3-0.7,5.9-1.3,8.8-2.1l0-0.2l4-0.8c2.1-0.5,4.1-1,6.1-1.6c11.4-3,22.5-6.3,33.1-9.9c2.4-0.8,4.9-1.7,7.2-2.5
						c12.1-4.3,23.5-9.1,34.2-14.1c0.4-0.2,0.9-0.4,1.3-0.6c1.6-0.8,3.2-1.5,4.6-2.3c6.6-3.3,13-6.8,18.9-10.3c5-3,9.7-6.1,13.8-9.1
						c21.8-15.6,30.5-29.2,29.3-35.7c-0.4-2.3,1.2-4.6,3.5-5c2.3-0.4,4.6,1.2,5,3.5c2,11.7-9.9,27.8-32.8,44.2
						c-4.3,3.1-9.2,6.3-14.4,9.5c-6.1,3.7-12.6,7.2-19.4,10.7c-1.5,0.8-3.1,1.5-4.7,2.3c-0.4,0.2-0.9,0.4-1.4,0.7
						c-10.8,5.2-22.6,10-34.9,14.5c-2.4,0.9-4.9,1.7-7.4,2.6c-10.8,3.7-22.1,7.1-33.7,10.1c-1.6,0.4-3.3,0.9-5,1.3l-1.3,0.3
						c-0.2,0-0.3,0.1-0.5,0.1l-0.2,0.1c-3.7,0.9-7.5,1.8-11.4,2.7l-0.1,0.1l-1,0.2c-7.6,1.7-15.5,3.3-23.3,4.8
						c-2.5,0.5-5.1,0.9-7.7,1.4c-4.1,0.7-8.3,1.4-12.9,2.1c-1.4,0.2-2.7,0.4-4.1,0.6c-9.3,1.3-18.5,2.4-27.3,3.2
						c-3.3,0.3-6.5,0.6-9.7,0.8l-0.3,0c-8.1,0.6-16.2,1-24.1,1.3l-0.3,0C346.4,659.3,342.2,659.4,338.1,659.4z"/>
				</g>
			</g>
		</g>
		<g opacity="0.55">
			<path fill="#FFFFFF" d="M459.8,803.6c-110.8,21.8-236-27.9-269.9-167.2h0c9,3.4,16,10.7,19,19.8
				C248.5,773.8,358.4,818.4,459.8,803.6z"/>
		</g>
		<g>
			<g>
				<path fill="#FBBE25" d="M814.2,250.3c2.3,10.3-4.3,20.5-14.5,22.7l-0.4,0.1l-71.6,14.3l-29.3,5.9l-13.6,2.7l-19.2,3.8L362,360.3
					c-5.7,1.1-11.3-2.5-12.5-8.2c-0.6-2.8,0-5.7,1.4-8c1.4-2.3,3.7-4.1,6.6-4.7L660.3,267l17.9-4.3l11.6-2.8l30.9-7.4l70.4-16.8
					C801.5,233.3,811.9,239.8,814.2,250.3z"/>
			</g>
			<g>
				<path fill="#650000" d="M685.4,278.9c1.1,5.7,0.8,11.5-0.7,17l-19.2,3.8c4-5.2,5.6-11.6,4.4-17.9c-1.1-5.9-4.5-11.1-9.6-14.8
					l17.9-4.3C681.8,267.5,684.3,273,685.4,278.9z"/>
			</g>
			<g>
				<path fill="#650000" d="M728,269.7c1.1,5.9,1,11.9-0.4,17.6l-29.3,5.9l-1.7-2c5-4.4,7.2-10.6,6.1-16.8
					c-1.2-6.4-5.8-11.6-12.8-14.5l30.9-7.4C724.3,257.7,726.9,263.5,728,269.7z"/>
			</g>
			<g opacity="0.55">
				<path fill="#FFFFFF" d="M814.2,250.3c0.4,1.8,0.5,3.6,0.4,5.4c-4-7.4-12.6-11.5-21.2-9.5L723,263l-30.9,7.4l-11.6,2.8l-17.9,4.3
					l-302.9,72.4c-2.8,0.7-5.1,2.4-6.6,4.7c-0.5,0.8-0.9,1.6-1.1,2.5c-1.2-1.3-2.1-3-2.5-4.9c-0.6-2.8,0-5.7,1.4-8
					c1.4-2.3,3.7-4.1,6.6-4.7L660.3,267l17.9-4.3l11.6-2.8l30.9-7.4l70.4-16.8C801.5,233.3,811.9,239.8,814.2,250.3z"/>
			</g>
			<g>
				<path fill="#650000" d="M359.9,365.7c-7.3,0-13.9-5.1-15.5-12.5c-1.8-8.4,3.5-16.8,11.8-18.8l433.7-103.6c6.4-1.5,13-0.4,18.5,3
					c5.6,3.5,9.4,8.9,10.8,15.3c1.4,6.4,0.2,13-3.4,18.5c-3.6,5.5-9.1,9.2-15.5,10.5L363,365.4C362,365.6,361,365.7,359.9,365.7z
					 M795.6,240.4c-1.1,0-2.2,0.1-3.3,0.4L358.6,344.4c-2.9,0.7-4.8,3.6-4.1,6.6c0.6,2.9,3.6,4.8,6.5,4.2L798.2,268
					c3.7-0.7,6.9-2.9,8.9-6c2.1-3.2,2.8-6.9,1.9-10.6c-0.8-3.7-3-6.8-6.2-8.8C800.7,241.1,798.1,240.4,795.6,240.4z"/>
			</g>
		</g>
		<g>
			<g>
				<path fill="#FFFFFF" d="M642.3,627.7L642.3,627.7c-9.5,40.3-93.8,84.4-201.6,102.8s-201.9,4.9-224.3-29.9l0,0l-21.3-45.4l0,0
					c23.7,37,123.7,51.4,238.1,31.8s203.9-66.4,214-109.2l0,0L642.3,627.7z"/>
			</g>
		</g>
		<g>
			<g opacity="0.3">
				<path fill="#650000" d="M377.4,803.4c127.7,10.4,265.7-76.7,258.3-234.7c0,0,0,0,0,0c-7.1,11-18,21-28.9,29.2
					c-6.9,5.2-11.6,12.8-13,21.4C575.4,730.6,478.1,796.2,377.4,803.4C377.4,803.4,377.4,803.4,377.4,803.4z"/>
			</g>
		</g>
		<g>
			<path fill="#650000" d="M409.4,813.7c-29.6,0-58.6-5-85.6-15c-77.1-28.5-127.9-92.8-143-181.2c-4.2-24.5,16.9-51.4,59.4-75.7
				c41-23.4,97.6-42.1,159.3-52.7c61.7-10.6,121.2-11.7,167.7-3.3c48.2,8.7,77,27.1,81.2,51.6c15.1,88.4-11.4,165.9-74.6,218.5
				c-33.3,27.6-74.6,46.3-119.5,54C439.3,812.4,424.3,813.7,409.4,813.7z M498.9,490.5c-30.6,0-63.8,2.9-97.7,8.7
				c-60.5,10.4-115.9,28.6-155.9,51.5c-37.9,21.6-57.8,45.3-54.4,65c14.5,84.6,62.9,146.1,136.4,173.3
				c78.8,29.1,175.3,12.6,239.9-41.1c60.3-50.1,85.5-124.2,71-208.8c-3.4-19.7-29.9-35.4-72.9-43.2
				C545.4,492.3,523,490.5,498.9,490.5z"/>
		</g>
		<g opacity="0.25">
			<path fill="#FFFFFF" d="M326.9,707.8c24.4,25.8,42.8,48,30.5,59.7c-12.3,11.7-42.1,0.2-66.5-25.5c-24.4-25.8-34.3-56.1-22-67.7
				S302.4,682,326.9,707.8z"/>
		</g>
		<g>
			<g>
				<path fill="#FBBE25" d="M794.7,167.9c3.5,10-1.7,20.8-11.7,24.3l-0.4,0.1l-69.3,22.9l-28.4,9.4l-13.2,4.3l-18.6,6.2l-293.9,97.1
					c-5.5,1.8-11.5-1.1-13.5-6.6c-1-2.7-0.7-5.6,0.4-8.1c1.2-2.5,3.2-4.5,6-5.5L644,203.3l17.3-6.4l11.2-4.2l29.7-11.1l67.8-25.3
					C780,152.6,791.1,157.9,794.7,167.9z"/>
				<path fill="#650000" d="M356,333.4c-4.7,0-9.2-3-10.8-7.6c-1-2.8-0.8-5.9,0.4-8.6c1.3-2.7,3.5-4.8,6.4-5.9l417.8-155.7
					c5-1.9,10.5-1.6,15.3,0.6c4.8,2.3,8.5,6.3,10.3,11.4c1.8,5,1.5,10.4-0.8,15.1c-2.3,4.8-6.3,8.3-11.3,10.1l-0.4,0.1L359.5,332.9
					C358.3,333.3,357.1,333.4,356,333.4z M776.7,155.9c-2.2,0-4.3,0.4-6.4,1.2L352.4,312.7c-2.5,0.9-4.4,2.7-5.6,5.1
					c-1.1,2.4-1.3,5.1-0.4,7.5c1.8,5.1,7.4,7.9,12.6,6.2l293.9-97.1l129.9-42.9c4.6-1.6,8.3-4.9,10.4-9.4c2.1-4.4,2.4-9.4,0.8-14
					l0,0c-1.6-4.7-5-8.4-9.5-10.5C782,156.5,779.3,155.9,776.7,155.9z"/>
			</g>
			<g>
				<path fill="#650000" d="M670.4,212c1.8,5.6,2.2,11.3,1.4,16.9l-18.6,6.2c3.3-5.6,4.1-12.2,2.2-18.3c-1.8-5.8-5.8-10.4-11.3-13.5
					l17.3-6.4C665.4,201.2,668.5,206.3,670.4,212z"/>
			</g>
			<g>
				<path fill="#650000" d="M711.5,197.7c1.8,5.8,2.4,11.7,1.8,17.5l-28.4,9.4l-2-1.7c4.4-5,5.9-11.4,4-17.4
					c-2-6.2-7.2-10.8-14.5-12.8l29.7-11.1C706.4,186.2,709.6,191.7,711.5,197.7z"/>
			</g>
			<g opacity="0.55">
				<path fill="#FFFFFF" d="M794.7,167.9c0.6,1.7,1,3.5,1,5.3c-4.9-6.9-13.9-9.9-22.2-6.8l-67.8,25.3L676,202.7l-11.2,4.2l-17.3,6.4
					L355.7,322c-2.7,1-4.8,3-6,5.5c-0.4,0.8-0.7,1.7-0.8,2.6c-1.4-1.2-2.5-2.7-3.1-4.5c-1-2.7-0.7-5.6,0.4-8.1
					c1.2-2.5,3.2-4.5,6-5.5L644,203.3l17.3-6.4l11.2-4.2l29.7-11.1l67.8-25.3C780,152.6,791.1,157.9,794.7,167.9z"/>
			</g>
			<g>
				<path fill="#650000" d="M356,337.9c-6.6,0-12.7-4.1-15-10.6c-2.8-8.1,1.4-17.1,9.4-20.1l417.8-155.7c6.1-2.3,12.8-2,18.7,0.8
					c5.9,2.8,10.4,7.7,12.6,13.9c2.2,6.2,1.8,12.8-1.1,18.7c-2.9,5.9-7.9,10.3-14.1,12.3L360.9,337.1
					C359.3,337.6,357.6,337.9,356,337.9z M776.7,160.3c-1.6,0-3.3,0.3-4.9,0.9L354,316.9c-2.8,1-4.3,4.2-3.3,7c1,2.8,4.1,4.4,7,3.4
					L781,187.5c3.6-1.2,6.5-3.7,8.1-7.1c1.7-3.4,1.9-7.2,0.6-10.8c-1.2-3.6-3.8-6.4-7.2-8C780.7,160.8,778.7,160.3,776.7,160.3z"/>
			</g>
		</g>
		<g>
			<g>
				<path fill="#F9B800" d="M601.6,570.1c-0.3,0.9-0.7,1.7-1.1,2.6c-1,0-2-0.1-3-0.1c-6.4-0.3-13-0.7-19.9-1.3
					c-1.7-0.2-3.5-0.3-5.2-0.5c-3.2-0.3-6.4-0.6-9.6-1c-2.1-0.2-4.3-0.5-6.5-0.8c0,0,0,0,0,0c-0.2,0-0.4,0-0.6-0.1l0,0l0,0
					c-0.6-0.1-1.2-0.2-1.8-0.2c-0.9-0.1-1.9-0.2-2.8-0.4c-2.6-0.3-5.1-0.7-7.8-1.1c0,0-0.1,0-0.1,0c-4.3-0.7-8.7-1.4-13.1-2.2
					c-1.4-0.2-2.8-0.5-4.2-0.7c-2-0.4-4-0.7-6-1.1c-2.5-0.5-5-1-7.6-1.5c-1-0.2-2.1-0.4-3.1-0.7c0,0-0.1,0-0.1,0
					c-3.2-0.7-6.3-1.4-9.5-2.1l0,0c-1.3-0.3-2.6-0.6-3.9-0.9c-2.4-0.6-4.8-1.1-7.2-1.7c-0.1,0-0.1,0-0.2-0.1
					c-6.5-1.6-12.9-3.3-19-5.1c-0.7-0.2-1.3-0.4-2-0.6c-2.1-0.6-4.1-1.2-6.2-1.8c-0.4-0.1-0.8-0.2-1.2-0.4l-0.2-0.1
					c-4.8-1.5-9.5-3-14.1-4.5c-2.5-0.8-4.9-1.7-7.2-2.5c-0.6-0.2-1.1-0.4-1.7-0.6l0,0c-6.9-2.5-13.5-5-19.8-7.6
					c0.2-10.8,2.4-21.8,6.5-32.5c19.2-49.2,74.8-73.6,124-54.4C596.4,465.3,620.8,520.9,601.6,570.1z"/>
			</g>
			<g opacity="0.55">
				<path fill="#FFFFFF" d="M525.6,462.5c2.1,0.5,4.1,1.1,6.1,1.8c5.6,2,11.8-0.9,13.9-6.5l0.1-0.2c2-5.7-0.9-11.9-6.6-13.9
					c-2.9-1-5.8-1.8-8.5-2.4c-5.8-1.3-11.6,2.5-12.8,8.3v0C516.4,455.4,519.9,461.1,525.6,462.5z"/>
			</g>
			<g opacity="0.55">
				<path fill="#FFFFFF" d="M520.3,482c2.1,0.5,4.1,1.1,6.1,1.8c5.6,2,11.8-0.9,13.9-6.5l0.1-0.2c2-5.7-0.9-11.9-6.6-13.9
					c-2.9-1-5.8-1.8-8.5-2.4c-5.8-1.3-11.6,2.5-12.8,8.3v0C511.1,474.9,514.7,480.5,520.3,482z"/>
			</g>
			<g opacity="0.55">
				<path fill="#FFFFFF" d="M515.8,503.5c2.1,0.5,4.1,1.1,6.1,1.8c5.6,2,11.8-0.9,13.9-6.5l0.1-0.2c2-5.7-0.9-11.9-6.6-13.9
					c-2.9-1-5.8-1.8-8.5-2.4c-5.8-1.3-11.6,2.5-12.8,8.3v0C506.6,496.5,510.1,502.1,515.8,503.5z"/>
			</g>
			<g>
				<path fill="#650000" d="M423.7,540.5c-2.9-1.1-5.8-2.3-8.6-3.5l-2.7-1.1l0.1-2.9c0.3-11.6,2.5-23,6.8-34
					c20-51.4,78.1-76.9,129.5-56.8c51.4,20,76.9,78.1,56.8,129.5c-0.4,0.9-0.7,1.8-1.1,2.7l-1.2,2.7l-2.9-0.1
					c-0.6,0-1.2-0.1-1.9-0.1l-1.2-0.1c-6.4-0.3-13.1-0.7-20.1-1.3c-1.8-0.2-3.5-0.3-5.3-0.5c-3.2-0.3-6.4-0.6-9.7-1
					c-1.1-0.1-2.1-0.2-3.2-0.4l0,0.1l-4.8-0.7c-0.4,0-0.7-0.1-1.1-0.1c-0.9-0.1-1.9-0.2-2.8-0.4c-2.3-0.3-4.7-0.7-7.2-1l-0.7-0.1
					c-4.5-0.7-9-1.4-13.3-2.2c-1.4-0.2-2.8-0.5-4.2-0.8c-2-0.3-4-0.7-6-1.1c-2.5-0.5-5.1-1-7.6-1.5c-1-0.2-2-0.4-3-0.6l-0.5-0.1
					c-2.9-0.6-5.7-1.2-8.5-1.9l-0.7-0.2c-1.4-0.3-2.7-0.6-4-0.9l-0.4-0.1c-2.2-0.5-4.5-1-6.6-1.6l-0.4-0.1c-6.5-1.6-13-3.3-19.2-5.1
					l-0.6-0.2c-0.5-0.1-1-0.3-1.4-0.4c-1.8-0.5-3.7-1.1-5.5-1.6l-2.1-0.6c-4.9-1.5-9.7-3.1-14.2-4.6c-2.5-0.8-4.9-1.7-7.3-2.5
					c-0.3-0.1-0.7-0.2-1.1-0.4l-0.6-0.2C431.2,543.4,427.4,542,423.7,540.5z M487.1,560.4L487.1,560.4
					C487.1,560.4,487.1,560.4,487.1,560.4z M421.1,530.3c5.2,2.1,10.7,4.2,16.2,6.2l0.7,0.2c0.6,0.2,1.1,0.4,1.6,0.6
					c2.4,0.9,4.8,1.7,7.2,2.5c4.4,1.5,9.1,3,14,4.5l2,0.6c1.8,0.5,3.7,1.1,5.6,1.6c0.5,0.2,0.9,0.3,1.3,0.4l0.7,0.2
					c6,1.7,12.3,3.4,18.7,5l0.4,0.1c2.2,0.6,4.4,1.1,6.7,1.6l0.5,0.1c1.2,0.3,2.3,0.6,3.5,0.8l0.4,0.1l0.7,0.2
					c2.8,0.6,5.7,1.3,8.6,1.9l0.6,0.1c0.9,0.2,1.8,0.4,2.7,0.6c2.5,0.5,5.1,1,7.5,1.5c2,0.4,4,0.8,6,1.1c1.4,0.3,2.8,0.5,4.1,0.7
					c3.9,0.7,7.9,1.4,12,2l0,0l1.2,0.2c2.6,0.4,5.1,0.8,7.7,1.1c0.7,0.1,1.3,0.2,1.9,0.3l0.3-0.9l3.5,1.4c2,0.3,3.9,0.5,5.9,0.7
					c3.3,0.4,6.4,0.7,9.6,1c1.7,0.2,3.5,0.3,5.2,0.5c6.8,0.6,13.4,1,19.7,1.3l0,0c18.1-46.9-5.2-99.9-52-118.1
					c-47-18.3-100.1,5-118.4,52C423.7,511.2,421.7,520.7,421.1,530.3z M489.4,552.2C489.4,552.1,489.4,552.1,489.4,552.2
					L489.4,552.2z"/>
			</g>
			<g>
				<path fill="#650000" d="M434.6,544.1l-0.2-2.4c-1-11.9,0.7-23.5,5.1-34.7c15.7-40.2,61.1-60.2,101.3-44.5
					c40.2,15.7,60.1,61.1,44.5,101.3c-1.3,3.2-2.7,6.4-4.4,9.4l-1.2,2.2l-2.5-0.2c-1.7-0.2-3.5-0.3-5.3-0.5c-3.2-0.3-6.4-0.6-9.7-1
					c-1.2-0.1-2.4-0.3-3.6-0.4l0,0.1l-4.4-0.6c-0.3,0-0.7-0.1-1.1-0.1c-0.9-0.1-1.9-0.2-2.8-0.4c-2.3-0.3-4.8-0.7-7.2-1l-0.7-0.1
					c-4.5-0.7-9-1.4-13.2-2.2c-1.4-0.2-2.8-0.5-4.2-0.8c-2-0.3-4-0.7-6-1.1c-2.5-0.5-5.1-1-7.6-1.5c-1-0.2-2-0.4-3-0.6l-0.4-0.1
					c-2.9-0.6-5.7-1.2-8.5-1.9l-0.7-0.2c-1.4-0.3-2.7-0.6-4-0.9l-0.4-0.1c-2.2-0.5-4.5-1-6.7-1.6l-0.3-0.1c-6.5-1.6-13-3.3-19.1-5.1
					l-0.7-0.2c-0.5-0.1-0.9-0.3-1.4-0.4c-1.8-0.5-3.7-1.1-5.5-1.6l-2.1-0.6c-4.9-1.5-9.7-3.1-14.2-4.6c-2.5-0.8-4.9-1.7-7.3-2.5
					L434.6,544.1z M487.3,560L487.3,560C487.2,560,487.3,560,487.3,560z M538.1,469.5c-36.3-14.2-77.3,3.9-91.5,40.2
					c-3.6,9.3-5.2,19-4.8,28.9c1.6,0.6,3.2,1.1,4.8,1.6c4.4,1.5,9.1,3,14,4.5l2,0.6c1.8,0.5,3.7,1.1,5.6,1.6
					c0.5,0.2,0.9,0.3,1.3,0.4l0.7,0.2c6,1.7,12.3,3.4,18.7,5l0.4,0.1c2.2,0.6,4.4,1.1,6.7,1.6l0.5,0.1c1.2,0.3,2.4,0.6,3.6,0.8
					l0.4,0.1l0.7,0.2c2.8,0.6,5.7,1.3,8.6,1.9l0.5,0.1c0.9,0.2,1.8,0.4,2.8,0.6c2.5,0.5,5.1,1,7.5,1.5c2,0.4,4,0.8,6,1.1
					c1.4,0.3,2.8,0.5,4.1,0.7c3.9,0.7,8,1.4,12.1,2l0,0l1.1,0.2c2.6,0.4,5.1,0.8,7.7,1.1c0.8,0.1,1.6,0.2,2.3,0.3l0.3-0.8l3.1,1.2
					c2,0.3,4,0.5,5.9,0.7c3.3,0.4,6.4,0.7,9.6,1c0.9,0.1,1.8,0.2,2.7,0.2c1-2,2-4.1,2.8-6.3C592.4,524.7,574.4,483.7,538.1,469.5z
					 M489.3,552.6C489.3,552.6,489.2,552.6,489.3,552.6L489.3,552.6z"/>
			</g>
			<g>
				<path fill="#650000" d="M457.9,551.9l-0.5-2.1c-3.1-11.7-2.4-23.9,2-35.1c11.4-29.3,44.5-43.8,73.8-32.4
					c29.3,11.4,43.8,44.5,32.4,73.8c-2.1,5.5-5.1,10.5-8.7,15.1l-1.3,1.6l-2.1-0.3c-1-0.1-1.9-0.2-2.9-0.4c-2.3-0.3-4.8-0.7-7.2-1
					l-0.7-0.1c-4.5-0.7-9-1.4-13.2-2.2c-1.4-0.2-2.8-0.5-4.2-0.8c-2-0.3-4-0.7-6-1.1c-2.5-0.5-5.1-1-7.6-1.5c-1-0.2-2-0.4-3-0.6
					l-0.4-0.1c-2.9-0.6-5.7-1.2-8.5-1.9l-0.7-0.2c-1.4-0.3-2.7-0.6-4-0.9l-0.4-0.1c-2.2-0.5-4.5-1-6.7-1.6l-0.3-0.1
					c-6.5-1.6-13-3.3-19.1-5.1l-0.7-0.2c-0.5-0.1-0.9-0.3-1.4-0.4c-1.8-0.5-3.7-1.1-5.5-1.6L457.9,551.9z M487.3,560L487.3,560
					C487.2,560,487.3,560,487.3,560z M530.4,489.3c-25.4-9.9-54.1,2.7-64,28.1c-3.5,9.1-4.3,18.9-2.2,28.4c1.3,0.4,2.7,0.8,4,1.2
					c0.5,0.2,0.9,0.3,1.3,0.4l0.7,0.2c6,1.7,12.3,3.4,18.7,5l0.4,0.1c2.2,0.6,4.4,1.1,6.7,1.6l0.5,0.1c1.2,0.3,2.4,0.6,3.6,0.8
					l0.4,0.1l0.7,0.2c2.8,0.6,5.7,1.3,8.6,1.9l0.5,0.1c0.9,0.2,1.8,0.4,2.8,0.6c2.5,0.5,5.1,1,7.5,1.5c2,0.4,4,0.8,6,1.1
					c1.4,0.3,2.8,0.5,4.1,0.7c3.9,0.7,8,1.4,12.1,2l0,0l1.1,0.2c2.6,0.4,5.1,0.8,7.7,1.1c0.2,0,0.4,0.1,0.6,0.1
					c2.6-3.5,4.7-7.3,6.3-11.4C568.3,527.9,555.7,499.2,530.4,489.3z M489.3,552.6C489.3,552.6,489.2,552.6,489.3,552.6L489.3,552.6
					z"/>
			</g>
			<g>
				<path fill="#650000" d="M486.3,559.7l-0.8-0.9c-8.8-10.1-11.2-24-6.3-36.4c7.2-18.3,27.9-27.5,46.2-20.3
					c18.3,7.2,27.5,27.9,20.3,46.3c-3.4,8.7-9.9,15.6-18.3,19.4l-1.1,0.5l-1.2-0.2c-2-0.4-4-0.7-6.1-1.1c-2.5-0.5-5.1-1-7.6-1.5
					c-1-0.2-2-0.4-3-0.6l-0.4-0.1c-2.9-0.6-5.7-1.2-8.5-1.9l-0.7-0.2c-1.4-0.3-2.7-0.6-4-0.9l-0.4-0.1c-2.3-0.5-4.6-1.1-6.8-1.6
					L486.3,559.7z M522.6,509.2c-14.4-5.6-30.8,1.5-36.4,16c-3.7,9.4-2,20,4.2,27.8c1.8,0.4,3.6,0.9,5.5,1.3l0.5,0.1
					c1.2,0.3,2.4,0.6,3.6,0.8l0.4,0.1l0.7,0.2c2.8,0.6,5.7,1.3,8.6,1.9l0.5,0.1c0.9,0.2,1.8,0.4,2.8,0.6c2.5,0.5,5.1,1,7.5,1.5
					c1.6,0.3,3.2,0.6,4.8,0.9c6.1-3.1,10.8-8.3,13.4-14.8C544.3,531.1,537.1,514.8,522.6,509.2z"/>
			</g>
		</g>
		<g>
			<g>
				<path fill="#F9B800" d="M499.4,307.4v239.5l-120.3,2.3V332.4c0-4.4,3-8.2,7.2-9.2l101.3-24.9
					C493.6,296.7,499.4,301.2,499.4,307.4z"/>
			</g>
			<g opacity="0.55">
				<path fill="#FFFFFF" d="M390.6,432.5L390.6,432.5c-5.8,0-10.4-4.7-10.4-10.4v-9.7c0-5.8,4.7-10.4,10.4-10.4h0
					c5.8,0,10.4,4.7,10.4,10.4v9.7C401,427.8,396.3,432.5,390.6,432.5z"/>
			</g>
			<g opacity="0.55">
				<path fill="#FFFFFF" d="M416.4,432.5L416.4,432.5c-5.8,0-10.4-4.7-10.4-10.4v-9.7c0-5.8,4.7-10.4,10.4-10.4l0,0
					c5.8,0,10.4,4.7,10.4,10.4v9.7C426.8,427.8,422.2,432.5,416.4,432.5z"/>
			</g>
			<g opacity="0.55">
				<path fill="#FFFFFF" d="M439,432.5L439,432.5c-5.8,0-10.4-4.7-10.4-10.4v-9.7c0-5.8,4.7-10.4,10.4-10.4l0,0
					c5.8,0,10.4,4.7,10.4,10.4v9.7C449.4,427.8,444.8,432.5,439,432.5z"/>
			</g>
			<g opacity="0.55">
				<path fill="#FFFFFF" d="M464.7,432.5L464.7,432.5c-5.8,0-10.4-4.7-10.4-10.4v-9.7c0-5.8,4.7-10.4,10.4-10.4l0,0
					c5.8,0,10.4,4.7,10.4,10.4v9.7C475.1,427.8,470.4,432.5,464.7,432.5z"/>
			</g>
			<g opacity="0.55">
				<path fill="#FFFFFF" d="M489,432.5L489,432.5c-5.8,0-10.4-4.7-10.4-10.4v-9.7c0-5.8,4.7-10.4,10.4-10.4h0
					c5.8,0,10.4,4.7,10.4,10.4v9.7C499.4,427.8,494.7,432.5,489,432.5z"/>
			</g>
			<g opacity="0.55">
				<path fill="#FFFFFF" d="M499.4,307.4v15.2c0-6.2-5.8-10.7-11.8-9.2l-101.3,24.9c-4.3,1-7.2,4.9-7.2,9.2v-15.2
					c0-4.4,3-8.2,7.2-9.2l101.3-24.9C493.6,296.7,499.4,301.2,499.4,307.4z"/>
			</g>
			<g>
				<path fill="#650000" d="M373.9,554.5V332.4c0-6.8,4.6-12.6,11.2-14.2l101.3-25c4.4-1.1,9-0.1,12.6,2.7c3.6,2.8,5.6,7,5.6,11.5
					V552L373.9,554.5z M489.9,303c-0.3,0-0.7,0-1.1,0.1l-101.3,25c-2,0.5-3.3,2.2-3.3,4.2V544l110-2.1V307.4c0-1.3-0.6-2.6-1.7-3.4
					C491.8,303.4,490.9,303,489.9,303z"/>
			</g>
			<g>
				<rect x="399.4" y="320.2" fill="#650000" width="7.6" height="228.7"/>
			</g>
			<g>
				<rect x="423.2" y="313.1" fill="#650000" width="7.6" height="235.8"/>
			</g>
			<g>
				<rect x="447" y="307.2" fill="#650000" width="7.6" height="239.7"/>
			</g>
			<g>
				<rect x="471.3" y="301.2" fill="#650000" width="7.6" height="245.7"/>
			</g>
			<g opacity="0.3">
				<path fill="#650000" d="M499.4,460.6v86.3l-120.3,2.3v-63.8C423.6,500.6,463.7,492.4,499.4,460.6z"/>
			</g>
		</g>
		<g>
			<g>
				<path fill="#F9B800" d="M417.4,586.6c0,0.9,0.1,1.9,0.1,2.8c-0.9,0.4-1.9,0.7-2.8,1.1c-6,2.3-12.2,4.6-18.7,6.7
					c-1.7,0.5-3.3,1.1-5,1.6c-3,1-6.1,1.9-9.2,2.9c-2,0.6-4.1,1.3-6.2,1.9c0,0,0,0,0,0c-0.2,0.1-0.4,0.1-0.6,0.2l0,0l0,0
					c-0.6,0.2-1.1,0.3-1.7,0.5c-0.9,0.3-1.8,0.5-2.7,0.8c-2.5,0.7-5,1.4-7.6,2c0,0-0.1,0-0.1,0.1c-4.2,1.1-8.5,2.2-12.9,3.3
					c-1.4,0.3-2.7,0.7-4.1,1c-2,0.5-4,0.9-6,1.4c-2.5,0.6-5,1.1-7.6,1.6c-1,0.2-2.1,0.4-3.1,0.6c0,0-0.1,0-0.1,0
					c-3.2,0.7-6.4,1.3-9.5,1.9l0,0c-1.3,0.3-2.6,0.5-4,0.7c-2.4,0.4-4.9,0.9-7.3,1.3c-0.1,0-0.2,0-0.2,0c-6.6,1.1-13.1,2.1-19.5,2.9
					c-0.7,0.1-1.3,0.2-2,0.3c-2.1,0.3-4.3,0.5-6.4,0.8c-0.4,0-0.8,0.1-1.2,0.1l-0.3,0c-5,0.6-9.9,1.1-14.8,1.5
					c-2.6,0.2-5.1,0.4-7.6,0.6c-0.6,0.1-1.2,0.1-1.8,0.1l0,0c-7.3,0.5-14.4,0.8-21.2,0.9c-4.1-10-6.5-21-7-32.4
					c-2-52.8,39.3-97.3,92.1-99.3C370.9,492.5,415.4,533.8,417.4,586.6z"/>
			</g>
			<g opacity="0.55">
				<path fill="#FFFFFF" d="M304.8,518.1c2.1-0.3,4.2-0.6,6.3-0.7c6-0.4,10.5-5.5,10.1-11.5l0-0.2c-0.4-6-5.6-10.6-11.6-10.1
					c-3,0.2-6,0.7-8.7,1.2c-5.9,1.1-9.6,6.9-8.5,12.7v0C293.6,515.3,299,519,304.8,518.1z"/>
			</g>
			<g opacity="0.55">
				<path fill="#FFFFFF" d="M307.7,538c2.1-0.3,4.2-0.6,6.3-0.7c6-0.4,10.5-5.5,10.1-11.5l0-0.2c-0.4-6-5.6-10.6-11.6-10.1
					c-3,0.2-6,0.7-8.7,1.2c-5.9,1.1-9.6,6.9-8.5,12.7l0,0C296.5,535.2,301.9,538.9,307.7,538z"/>
			</g>
			<g opacity="0.55">
				<path fill="#FFFFFF" d="M312.2,559.6c2.1-0.3,4.2-0.6,6.3-0.7c6-0.4,10.5-5.5,10.1-11.5l0-0.2c-0.4-6-5.6-10.6-11.6-10.1
					c-3,0.2-6,0.7-8.7,1.2c-5.9,1.1-9.6,6.9-8.5,12.7h0C300.9,556.8,306.4,560.5,312.2,559.6z"/>
			</g>
			<g>
				<path fill="#650000" d="M242.4,630.2c-3.1,0.1-6.3,0.2-9.3,0.2l-2.9,0l-1.1-2.7c-4.4-10.8-6.8-22.2-7.3-33.9
					c-2.1-55.1,41.1-101.6,96.2-103.7c55.1-2.1,101.6,41.1,103.7,96.2c0,1,0.1,2,0.1,3l0,2.9l-2.7,1.1c-0.6,0.2-1.2,0.4-1.7,0.7
					l-1.1,0.4c-6,2.3-12.3,4.6-18.9,6.8c-1.7,0.6-3.3,1.1-5,1.7c-3.1,1-6.2,2-9.3,2.9c-1,0.3-2,0.6-3.1,0.9l0,0.1l-4.6,1.3
					c-0.3,0.1-0.7,0.2-1,0.3c-0.9,0.2-1.8,0.5-2.7,0.8c-2.3,0.6-4.6,1.3-7,1.9l-0.7,0.2c-4.4,1.2-8.8,2.3-13,3.3
					c-1.4,0.3-2.8,0.7-4.2,1c-1.9,0.5-3.9,0.9-6,1.4c-2.5,0.6-5.1,1.1-7.6,1.7c-1,0.2-2,0.4-3,0.6l-0.5,0.1
					c-2.9,0.6-5.7,1.1-8.5,1.7l-0.7,0.2c-1.4,0.3-2.7,0.5-4.1,0.7l-0.4,0.1c-2.3,0.4-4.5,0.8-6.7,1.2l-0.4,0.1
					c-6.6,1.1-13.2,2.1-19.6,2.9l-0.7,0.1c-0.5,0.1-1,0.1-1.5,0.2c-1.8,0.2-3.8,0.5-5.7,0.7l-2.2,0.2c-5.1,0.6-10.2,1.1-14.8,1.5
					c-2.6,0.2-5.2,0.4-7.7,0.6c-0.3,0-0.7,0.1-1.2,0.1l-0.7,0.1C250.4,629.9,246.4,630.1,242.4,630.2z M308.5,623.2L308.5,623.2
					C308.5,623.2,308.5,623.2,308.5,623.2z M236,621.8c5.7-0.1,11.5-0.4,17.3-0.8l0.7-0.1c0.6,0,1.1-0.1,1.7-0.1
					c2.6-0.2,5.1-0.4,7.6-0.6c4.6-0.4,9.5-0.9,14.6-1.4l2-0.2c1.9-0.2,3.8-0.5,5.8-0.7c0.5-0.1,0.9-0.1,1.3-0.2l0.7-0.1
					c6.2-0.8,12.6-1.8,19.1-2.9l0.4-0.1c2.2-0.4,4.5-0.8,6.8-1.2l0.5-0.1c1.2-0.2,2.4-0.4,3.5-0.6l0.4-0.1l0.7-0.1
					c2.8-0.5,5.7-1.1,8.6-1.7l0.6-0.1c0.9-0.2,1.8-0.4,2.7-0.6c2.5-0.5,5-1.1,7.5-1.6c2-0.5,4-0.9,5.9-1.4c1.4-0.3,2.7-0.6,4.1-1
					c3.8-0.9,7.8-1.9,11.8-2.9l0,0l1.2-0.3c2.5-0.6,5-1.3,7.5-2c0.6-0.2,1.3-0.3,1.9-0.5l0-0.9l3.8-0.2c1.9-0.6,3.8-1.1,5.7-1.7
					c3.1-1,6.2-1.9,9.2-2.9c1.7-0.5,3.3-1.1,5-1.6c6.5-2.2,12.7-4.4,18.5-6.7l0,0c-2-50.2-44.5-89.5-94.8-87.7
					c-50.4,1.9-89.8,44.4-87.9,94.8C230.7,603.3,232.6,612.8,236,621.8z M307.3,614.7C307.3,614.7,307.3,614.7,307.3,614.7
					L307.3,614.7z"/>
			</g>
			<g>
				<path fill="#650000" d="M253.8,629.1l-1.2-2.1c-5.6-10.5-8.7-21.9-9.2-33.9c-1.6-43.1,32.1-79.5,75.3-81.1
					c43.1-1.6,79.5,32.1,81.1,75.3c0.1,3.5,0,7-0.3,10.3l-0.2,2.5l-2.4,0.8c-1.7,0.6-3.3,1.1-5,1.7c-3,1-6.1,2-9.3,2.9
					c-1.1,0.4-2.3,0.7-3.5,1l0,0.1l-4.3,1.2c-0.3,0.1-0.7,0.2-1,0.3c-0.9,0.3-1.8,0.5-2.7,0.8c-2.3,0.6-4.6,1.3-7,1.9l-0.7,0.2
					c-4.4,1.2-8.8,2.3-13,3.3c-1.4,0.3-2.8,0.7-4.2,1c-1.9,0.5-3.9,0.9-6,1.4c-2.5,0.6-5.1,1.1-7.6,1.7c-1,0.2-2,0.4-3,0.6l-0.4,0.1
					c-2.9,0.6-5.7,1.1-8.6,1.7l-0.7,0.2c-1.4,0.3-2.7,0.5-4.1,0.7l-0.4,0.1c-2.3,0.4-4.5,0.8-6.7,1.2l-0.4,0.1
					c-6.6,1.1-13.2,2.1-19.6,2.9l-0.7,0.1c-0.5,0.1-1,0.1-1.5,0.2c-1.9,0.2-3.8,0.5-5.7,0.7l-2.2,0.2c-5.1,0.6-10.2,1.1-14.8,1.5
					c-2.6,0.2-5.2,0.4-7.7,0.6L253.8,629.1z M308.5,622.7L308.5,622.7C308.4,622.7,308.4,622.7,308.5,622.7z M319.1,519.5
					c-38.9,1.5-69.4,34.3-68,73.3c0.4,10,2.8,19.5,7.1,28.4c1.7-0.1,3.4-0.3,5.1-0.4c4.6-0.4,9.5-0.9,14.7-1.4l2-0.2
					c1.9-0.2,3.8-0.5,5.8-0.7c0.5-0.1,0.9-0.1,1.3-0.2l0.7-0.1c6.2-0.8,12.7-1.8,19.2-2.9l0.4-0.1c2.2-0.4,4.5-0.8,6.8-1.2l0.5-0.1
					c1.2-0.2,2.4-0.4,3.6-0.7l0.4-0.1l0.7-0.1c2.9-0.5,5.7-1.1,8.6-1.7l0.5-0.1c0.9-0.2,1.8-0.4,2.8-0.6c2.5-0.5,5-1.1,7.5-1.6
					c2-0.5,4-0.9,5.9-1.4c1.4-0.3,2.7-0.6,4.1-1c3.9-0.9,7.9-1.9,11.9-3l0,0l1.1-0.3c2.5-0.7,5-1.3,7.5-2c0.8-0.2,1.5-0.4,2.2-0.6
					l0-0.8l3.3-0.1c1.9-0.6,3.8-1.1,5.7-1.7c3.1-1,6.2-1.9,9.2-2.9c0.9-0.3,1.7-0.6,2.6-0.8c0.1-2.3,0.2-4.6,0.1-6.9
					C390.9,548.6,358,518.1,319.1,519.5z M307.4,615.2C307.4,615.2,307.3,615.2,307.4,615.2L307.4,615.2z"/>
			</g>
			<g>
				<path fill="#650000" d="M278.3,627l-1.3-1.7c-7.5-9.5-11.7-21-12.1-33c-1.2-31.4,23.4-57.9,54.8-59.1
					c31.4-1.2,57.9,23.4,59.1,54.8c0.2,5.9-0.5,11.7-2,17.3l-0.6,2l-2,0.6c-0.9,0.3-1.9,0.5-2.8,0.8c-2.3,0.6-4.6,1.3-7,1.9
					l-0.7,0.2c-4.4,1.2-8.8,2.3-13,3.3c-1.4,0.3-2.8,0.7-4.2,1c-1.9,0.5-3.9,0.9-6,1.4c-2.5,0.6-5.1,1.1-7.6,1.7c-1,0.2-2,0.4-3,0.6
					l-0.4,0.1c-2.9,0.6-5.7,1.1-8.6,1.7l-0.7,0.2c-1.4,0.3-2.7,0.5-4.1,0.7l-0.4,0.1c-2.3,0.4-4.5,0.8-6.7,1.2l-0.4,0.1
					c-6.6,1.1-13.2,2.1-19.6,2.9l-0.7,0.1c-0.5,0.1-1,0.1-1.5,0.2c-1.9,0.2-3.8,0.5-5.7,0.7L278.3,627z M308.5,622.7L308.5,622.7
					C308.4,622.7,308.4,622.7,308.5,622.7z M319.9,540.8c-27.2,1-48.5,24-47.5,51.2c0.4,9.8,3.6,19,9.2,26.9
					c1.4-0.2,2.8-0.3,4.2-0.5c0.5-0.1,0.9-0.1,1.3-0.2l0.7-0.1c6.2-0.8,12.7-1.8,19.2-2.9l0.4-0.1c2.2-0.4,4.5-0.8,6.8-1.2l0.5-0.1
					c1.2-0.2,2.4-0.4,3.6-0.7l0.4-0.1l0.7-0.1c2.9-0.5,5.7-1.1,8.6-1.7l0.5-0.1c0.9-0.2,1.8-0.4,2.8-0.6c2.5-0.5,5-1.1,7.5-1.6
					c2-0.5,4-0.9,5.9-1.4c1.4-0.3,2.7-0.6,4.1-1c3.9-0.9,7.9-1.9,11.9-3l0,0l1.1-0.3c2.5-0.7,5-1.3,7.5-2c0.2-0.1,0.4-0.1,0.6-0.2
					c1-4.2,1.4-8.6,1.2-12.9C370.1,561.1,347.1,539.8,319.9,540.8z M307.4,615.2C307.4,615.2,307.3,615.2,307.4,615.2L307.4,615.2z"
					/>
			</g>
			<g>
				<path fill="#650000" d="M307.4,622.9l-1.1-0.5c-12-5.7-19.8-17.6-20.3-30.9c-0.7-19.7,14.7-36.3,34.3-37
					c19.7-0.7,36.3,14.7,37,34.3c0.4,9.3-2.9,18.2-9.1,25.1l-0.8,0.9l-1.2,0.3c-2,0.5-4,0.9-6,1.4c-2.5,0.6-5.1,1.1-7.6,1.7
					c-1,0.2-2,0.4-3,0.6l-0.4,0.1c-2.9,0.6-5.7,1.1-8.6,1.7l-0.7,0.2c-1.4,0.3-2.7,0.5-4.1,0.7l-0.4,0.1c-2.3,0.4-4.6,0.8-6.9,1.2
					L307.4,622.9z M320.7,562.1c-15.5,0.6-27.6,13.7-27,29.2c0.4,10.1,6.1,19.1,15,23.8c1.8-0.3,3.7-0.6,5.6-1l0.5-0.1
					c1.2-0.2,2.4-0.4,3.6-0.7l0.4-0.1l0.7-0.1c2.9-0.5,5.7-1.1,8.6-1.7l0.5-0.1c0.9-0.2,1.8-0.4,2.8-0.6c2.5-0.5,5-1.1,7.5-1.6
					c1.6-0.4,3.2-0.7,4.7-1.1c4.4-5.3,6.6-12,6.4-18.9C349.2,573.6,336.2,561.5,320.7,562.1z"/>
			</g>
		</g>
		<g>
			<g>
				<path fill="#F9B800" d="M512.1,618.1c0,0.9,0,1.9,0,2.8c-1,0.3-1.9,0.7-2.9,1c-6.1,2.1-12.4,4.1-19,6c-1.7,0.5-3.4,1-5.1,1.5
					c-3.1,0.9-6.2,1.7-9.3,2.6c-2.1,0.6-4.2,1.1-6.3,1.6c0,0,0,0,0,0c-0.2,0-0.4,0.1-0.6,0.1h0l0,0c-0.6,0.1-1.2,0.3-1.7,0.4
					c-0.9,0.2-1.8,0.5-2.8,0.7c-2.5,0.6-5.1,1.2-7.6,1.8c0,0-0.1,0-0.1,0c-4.3,1-8.6,1.9-13,2.8c-1.4,0.3-2.8,0.6-4.2,0.8
					c-2,0.4-4,0.8-6,1.2c-2.5,0.5-5.1,0.9-7.6,1.4c-1,0.2-2.1,0.4-3.1,0.5c0,0-0.1,0-0.1,0c-3.2,0.5-6.4,1-9.6,1.5l0,0
					c-1.3,0.2-2.7,0.4-4,0.6c-2.5,0.3-4.9,0.7-7.3,1c-0.1,0-0.2,0-0.2,0c-6.7,0.9-13.2,1.6-19.6,2.2c-0.7,0.1-1.4,0.1-2,0.2
					c-2.2,0.2-4.3,0.4-6.4,0.6c-0.4,0-0.8,0.1-1.2,0.1l-0.3,0c-5,0.4-10,0.7-14.8,0.9c-2.6,0.1-5.1,0.2-7.6,0.3
					c-0.6,0-1.2,0-1.8,0.1l0,0c-7.3,0.2-14.4,0.2-21.2,0.1c-3.7-10.2-5.7-21.2-5.7-32.7c0-52.8,42.9-95.7,95.7-95.7
					C469.2,522.3,512.1,565.3,512.1,618.1z"/>
			</g>
			<g opacity="0.55">
				<path fill="#FFFFFF" d="M402.2,545.4c2.1-0.3,4.2-0.4,6.3-0.5c6-0.2,10.7-5.1,10.5-11.1l0-0.2c-0.2-6-5.2-10.8-11.2-10.5
					c-3,0.1-6.1,0.5-8.8,0.9c-5.9,0.9-9.9,6.5-9,12.4l0,0C391.1,542.2,396.4,546.1,402.2,545.4z"/>
			</g>
			<g opacity="0.55">
				<path fill="#FFFFFF" d="M404.4,565.5c2.1-0.3,4.2-0.4,6.3-0.5c6-0.2,10.7-5.1,10.5-11.1l0-0.2c-0.2-6-5.2-10.8-11.2-10.5
					c-3,0.1-6.1,0.5-8.8,0.9c-5.9,0.9-9.9,6.5-9,12.4l0,0C393.2,562.2,398.6,566.2,404.4,565.5z"/>
			</g>
			<g opacity="0.55">
				<path fill="#FFFFFF" d="M408,587.2c2.1-0.3,4.2-0.4,6.3-0.5c6-0.2,10.7-5.1,10.5-11.1l0-0.2c-0.2-6-5.2-10.8-11.2-10.5
					c-3,0.1-6.1,0.5-8.8,0.9c-5.9,0.9-9.9,6.5-9,12.4h0C396.8,584,402.2,587.9,408,587.2z"/>
			</g>
			<g>
				<path fill="#650000" d="M335.6,655.1c-3.1,0-6.3,0-9.3-0.1l-2.9-0.1l-1-2.8c-4-10.9-6-22.4-6-34.1c0-55.2,44.9-100,100-100
					c55.1,0,100,44.9,100,100c0,1,0,2,0,3l-0.1,2.9l-2.8,1c-0.6,0.2-1.2,0.4-1.8,0.6l-1.1,0.4c-6,2.1-12.5,4.1-19.2,6.1
					c-1.7,0.5-3.4,1-5.1,1.5c-3.1,0.9-6.2,1.7-9.4,2.6c-1,0.3-2.1,0.6-3.1,0.8v0.1l-4.7,1.1c-0.3,0.1-0.7,0.2-1,0.3
					c-0.9,0.2-1.8,0.5-2.8,0.7c-2.3,0.6-4.7,1.1-7.1,1.6l-0.7,0.2c-4.5,1-8.9,1.9-13.1,2.8c-1.4,0.3-2.8,0.6-4.2,0.8
					c-2,0.4-4,0.8-6,1.2c-2.5,0.5-5.1,0.9-7.7,1.4c-1,0.2-2,0.4-3.1,0.5l-0.5,0.1c-2.9,0.5-5.7,0.9-8.6,1.4l-0.7,0.1
					c-1.4,0.2-2.7,0.4-4.1,0.6l-0.4,0.1c-2.3,0.3-4.5,0.6-6.8,0.9l-0.4,0c-6.7,0.9-13.3,1.6-19.7,2.2l-0.7,0.1c-0.5,0-1,0.1-1.5,0.1
					c-1.9,0.2-3.8,0.3-5.7,0.5l-2.2,0.2c-5.2,0.4-10.2,0.7-14.9,0.9c-2.6,0.1-5.2,0.2-7.7,0.3c-0.4,0-0.7,0-1.2,0l-0.7,0
					C343.7,655.1,339.6,655.1,335.6,655.1z M402,650.6L402,650.6C401.9,650.6,401.9,650.6,402,650.6z M329.5,646.5
					c5.7,0.1,11.5,0.1,17.3-0.1l0.7,0c0.6,0,1.1,0,1.7-0.1c2.6-0.1,5.1-0.2,7.7-0.3c4.6-0.2,9.6-0.5,14.7-0.9l2-0.2
					c1.9-0.2,3.8-0.3,5.8-0.5c0.5,0,0.9-0.1,1.3-0.1l0.7-0.1c6.2-0.6,12.7-1.3,19.2-2.1l0.4-0.1c2.2-0.3,4.5-0.6,6.8-0.9l0.5-0.1
					c1.2-0.2,2.4-0.3,3.6-0.5l0.4-0.1l0.7-0.1c2.9-0.4,5.8-0.9,8.7-1.4l0.6-0.1c0.9-0.1,1.8-0.3,2.7-0.5c2.6-0.4,5.1-0.9,7.6-1.3
					c2-0.4,4-0.8,6-1.1c1.4-0.3,2.8-0.5,4.1-0.8c3.9-0.8,7.8-1.6,11.9-2.5l0,0l1.2-0.3c2.5-0.6,5.1-1.1,7.5-1.7
					c0.6-0.1,1.3-0.3,1.9-0.4v-0.9l3.8,0c1.9-0.5,3.8-1,5.7-1.5c3.2-0.8,6.3-1.7,9.3-2.5c1.7-0.5,3.4-1,5-1.5
					c6.5-1.9,12.9-3.9,18.8-6l0,0c-0.1-50.3-41.1-91.2-91.4-91.2c-50.4,0-91.4,41-91.4,91.4C325,627.8,326.5,637.4,329.5,646.5z
					 M401,642.1C401,642.1,401,642.1,401,642.1L401,642.1z"/>
			</g>
			<g>
				<path fill="#650000" d="M347.1,654.5l-1.1-2.2c-5.2-10.7-7.9-22.2-7.9-34.2c0-43.2,35.1-78.3,78.3-78.3
					c43.1,0,78.2,35.1,78.2,78.3c0,3.5-0.2,7-0.7,10.3l-0.3,2.5l-2.4,0.7c-1.7,0.5-3.4,1-5.1,1.5c-3.1,0.9-6.2,1.7-9.4,2.6
					c-1.1,0.3-2.3,0.6-3.5,0.9v0.1l-4.3,1c-0.3,0.1-0.7,0.2-1,0.3c-0.9,0.2-1.8,0.5-2.8,0.7c-2.3,0.6-4.7,1.1-7.1,1.6l-0.7,0.2
					c-4.4,1-8.9,1.9-13.1,2.8c-1.4,0.3-2.8,0.6-4.2,0.8c-2,0.4-4,0.8-6,1.2c-2.5,0.5-5.1,0.9-7.7,1.4c-1,0.2-2.1,0.4-3.1,0.5
					l-0.4,0.1c-2.9,0.5-5.8,0.9-8.6,1.4l-0.7,0.1c-1.4,0.2-2.7,0.4-4.1,0.6l-0.4,0.1c-2.3,0.3-4.5,0.6-6.8,0.9l-0.4,0
					c-6.7,0.9-13.3,1.6-19.7,2.2l-0.7,0.1c-0.5,0-1,0.1-1.5,0.1c-1.9,0.2-3.8,0.3-5.7,0.5l-2.2,0.2c-5.2,0.4-10.2,0.7-14.9,0.9
					c-2.6,0.1-5.2,0.2-7.7,0.3L347.1,654.5z M401.9,650.1L401.9,650.1C401.9,650.1,401.9,650.1,401.9,650.1z M416.4,547.4
					c-39,0-70.7,31.7-70.7,70.7c0,10,2,19.6,6.1,28.7c1.7-0.1,3.4-0.1,5.1-0.2c4.6-0.2,9.6-0.5,14.7-0.9l2-0.2
					c1.9-0.2,3.8-0.3,5.8-0.5c0.5,0,0.9-0.1,1.3-0.1l0.7-0.1c6.2-0.6,12.7-1.3,19.3-2.2l0.4,0c2.2-0.3,4.5-0.6,6.8-0.9l0.5-0.1
					c1.2-0.2,2.4-0.3,3.6-0.5l0.4-0.1l0.7-0.1c2.9-0.4,5.8-0.9,8.7-1.4l0.5-0.1c0.9-0.1,1.8-0.3,2.8-0.5c2.6-0.4,5.1-0.9,7.6-1.3
					c2-0.4,4-0.8,6-1.1c1.4-0.3,2.8-0.5,4.1-0.8c3.9-0.8,7.9-1.6,12-2.5l0,0l1.1-0.2c2.6-0.6,5.1-1.1,7.6-1.7
					c0.8-0.2,1.5-0.4,2.3-0.5v-0.8l3.3,0c2-0.5,3.9-1,5.8-1.5c3.2-0.8,6.3-1.7,9.3-2.5c0.9-0.2,1.7-0.5,2.6-0.7
					c0.2-2.3,0.3-4.6,0.3-6.9C487.1,579.1,455.4,547.4,416.4,547.4z M401.1,642.6C401.1,642.6,401.1,642.6,401.1,642.6L401.1,642.6z
					"/>
			</g>
			<g>
				<path fill="#650000" d="M371.6,653.3l-1.3-1.7c-7.1-9.8-10.9-21.4-10.9-33.5c0-31.4,25.6-57,57-57c31.4,0,57,25.6,57,57
					c0,5.9-0.9,11.7-2.7,17.2l-0.6,2l-2.1,0.5c-0.9,0.2-1.9,0.5-2.8,0.7c-2.3,0.6-4.7,1.1-7.1,1.6l-0.7,0.2c-4.4,1-8.9,1.9-13.1,2.8
					c-1.4,0.3-2.8,0.6-4.2,0.8c-2,0.4-4,0.8-6,1.2c-2.5,0.5-5.1,0.9-7.7,1.4c-1,0.2-2.1,0.4-3.1,0.5l-0.4,0.1
					c-2.9,0.5-5.8,0.9-8.6,1.4l-0.7,0.1c-1.4,0.2-2.7,0.4-4.1,0.6l-0.4,0.1c-2.3,0.3-4.5,0.6-6.8,0.9l-0.4,0
					c-6.7,0.9-13.3,1.6-19.7,2.2l-0.7,0.1c-0.5,0-1,0.1-1.5,0.1c-1.9,0.2-3.8,0.3-5.7,0.5L371.6,653.3z M401.9,650.1L401.9,650.1
					C401.9,650.1,401.9,650.1,401.9,650.1z M416.4,568.7c-27.2,0-49.4,22.2-49.4,49.4c0,9.8,2.8,19.1,8.2,27.3
					c1.4-0.1,2.8-0.2,4.2-0.4c0.5,0,0.9-0.1,1.3-0.1l0.7-0.1c6.2-0.6,12.7-1.3,19.3-2.2l0.4,0c2.2-0.3,4.5-0.6,6.8-0.9l0.5-0.1
					c1.2-0.2,2.4-0.3,3.6-0.5l0.4-0.1l0.7-0.1c2.9-0.4,5.8-0.9,8.7-1.4l0.5-0.1c0.9-0.1,1.8-0.3,2.8-0.5c2.6-0.4,5.1-0.9,7.6-1.3
					c2-0.4,4-0.8,6-1.1c1.4-0.3,2.8-0.5,4.1-0.8c3.9-0.8,7.9-1.6,12-2.5l0,0l1.1-0.2c2.6-0.6,5.1-1.1,7.6-1.7c0.2,0,0.4-0.1,0.6-0.1
					c1.1-4.2,1.7-8.5,1.7-12.9C465.8,590.8,443.6,568.7,416.4,568.7z M401.1,642.6C401.1,642.6,401.1,642.6,401.1,642.6L401.1,642.6
					z"/>
			</g>
			<g>
				<path fill="#650000" d="M400.9,650.3l-1.1-0.6c-11.8-6.2-19.1-18.3-19.1-31.6c0-19.7,16-35.7,35.7-35.7
					c19.7,0,35.7,16,35.7,35.7c0,9.3-3.6,18.1-10,24.8l-0.8,0.9l-1.2,0.2c-2,0.4-4,0.8-6.1,1.2c-2.5,0.5-5.1,0.9-7.7,1.4
					c-1,0.2-2.1,0.4-3.1,0.5l-0.4,0.1c-2.9,0.5-5.8,0.9-8.6,1.4l-0.7,0.1c-1.4,0.2-2.7,0.4-4.1,0.6l-0.4,0.1
					c-2.3,0.3-4.6,0.7-6.9,0.9L400.9,650.3z M416.4,590c-15.5,0-28.1,12.6-28.1,28.1c0,10.1,5.4,19.3,14.1,24.3
					c1.8-0.2,3.7-0.5,5.6-0.8l0.5-0.1c1.2-0.2,2.4-0.3,3.6-0.5l0.4-0.1l0.7-0.1c2.9-0.4,5.8-0.9,8.7-1.4l0.5-0.1
					c0.9-0.1,1.8-0.3,2.8-0.5c2.6-0.4,5.1-0.9,7.6-1.3c1.6-0.3,3.2-0.6,4.8-0.9c4.6-5.1,7.1-11.7,7.1-18.6
					C444.5,602.6,431.9,590,416.4,590z"/>
			</g>
		</g>
		<g>
			<g>
				<path fill="#F9B800" d="M422.5,643.2c-3.2,0.5-6.4,1-9.6,1.5l0,0c-1.3,0.2-2.7,0.4-4,0.6c-2.5,0.4-5.1,0.7-7.6,1
					c-6.7,0.9-13.2,1.6-19.6,2.2c-0.7,0.1-1.4,0.1-2,0.2c-2.6,0.2-5.1,0.5-7.6,0.7l-0.3,0c-5,0.4-10,0.7-14.8,0.9
					c-3.2,0.2-6.3,0.3-9.4,0.3l0,0c-13,0.3-25.2,0.1-36.6-0.5c-2.8-0.2-5.5-0.4-8.1-0.6c-6.3-0.5-12.4-1.2-18.1-2h0l-0.1,0h-0.1
					l-0.2,0c-1.4-0.2-2.7-0.4-4.1-0.6c-7.6-1.2-14.7-2.6-21.2-4.1c-0.5-0.1-1-0.3-1.5-0.4c-2-0.5-3.9-1-5.8-1.5
					c-4.7-1.3-9.1-2.7-13.1-4.2c12.7-38.1,48.6-65.6,90.9-65.6c24.6,0,47.1,9.4,64.1,24.7C407.6,608.3,417.8,624.7,422.5,643.2z"/>
			</g>
			<g opacity="0.55">
				<path fill="#FFFFFF" d="M311.7,594.3c2.1-0.6,4.1-1.1,6.2-1.5c5.9-1.1,9.8-6.7,8.7-12.6l0-0.2c-1.1-5.9-6.8-9.8-12.7-8.7
					c-3,0.6-5.9,1.4-8.5,2.2c-5.7,1.8-8.8,8-6.9,13.6l0,0C300.2,592.8,306.1,595.9,311.7,594.3z"/>
			</g>
			<g opacity="0.55">
				<path fill="#FFFFFF" d="M317.9,615.4c2.1-0.2,4.2-0.2,6.4-0.2c6,0.1,10.9-4.6,11-10.6l0-0.2c0.1-6-4.7-11-10.7-11
					c-3,0-6.1,0.2-8.8,0.5c-5.9,0.7-10.2,6.1-9.5,12l0,0C306.9,611.6,312,615.8,317.9,615.4z"/>
			</g>
			<g opacity="0.55">
				<path fill="#FFFFFF" d="M322.1,635.7c2.1-0.2,4.2-0.2,6.4-0.2c6,0.1,10.9-4.6,11-10.6l0-0.2c0.1-6-4.7-11-10.7-11
					c-3,0-6.1,0.2-8.8,0.5c-5.9,0.7-10.2,6.1-9.5,12v0C311.1,631.9,316.2,636.1,322.1,635.7z"/>
			</g>
			<g>
				<path fill="#650000" d="M335.4,655.1c-11.3,0-22.3-0.4-32.8-1.3c-6.1-0.5-12.2-1.2-18-2l-0.8-0.1c-1.4-0.2-2.7-0.4-4-0.6
					c-7.4-1.1-14.7-2.5-21.5-4.2c-0.3-0.1-0.6-0.1-0.9-0.2l-0.6-0.2c-1.9-0.4-3.8-1-5.9-1.6c-4.8-1.4-9.3-2.8-13.4-4.3l-3.9-1.4
					l1.3-3.9c13.6-41,51.8-68.5,94.9-68.5c45.8,0,85.7,31,96.9,75.4l1.1,4.5l-4.6,0.8c-3,0.5-6,1-8.9,1.4l-0.7,0.1
					c-1.4,0.2-2.7,0.4-4.1,0.6c-2.5,0.4-5.1,0.7-7.6,1c-6.7,0.9-13.3,1.6-19.7,2.2l-0.7,0.1c-0.5,0-1,0.1-1.5,0.1
					c-2.5,0.2-5,0.5-7.6,0.6l-0.3,0c-5.2,0.4-10.2,0.7-14.9,0.9c-3.2,0.2-6.1,0.3-8.9,0.3l-0.6,0
					C343.6,655.1,339.4,655.1,335.4,655.1z M285.2,643.3l0.2,0c5.8,0.8,11.8,1.5,17.8,1.9c13.8,1.1,28.5,1.5,43.6,1.1l0,0l0.7,0
					c2.9-0.1,5.9-0.2,9.3-0.3c4.6-0.2,9.6-0.5,14.7-0.9l0.3,0c2.4-0.2,4.9-0.4,7.5-0.6c0.5,0,0.9-0.1,1.3-0.1l0.7-0.1
					c6.3-0.6,12.8-1.3,19.4-2.2c2.5-0.3,5-0.7,7.5-1c1.2-0.2,2.4-0.3,3.6-0.5l0.4-0.1l0.7-0.1c1.3-0.2,2.7-0.4,4.1-0.6
					c-11.8-38.1-47.1-64.4-87.3-64.4c-38,0-71.8,23.4-85.4,58.7c2.8,0.9,5.7,1.8,8.7,2.7c2,0.6,3.8,1.1,5.6,1.5l1.5,0.4
					c6.6,1.6,13.6,3,20.8,4.1c1.3,0.2,2.7,0.4,4,0.6L285.2,643.3z"/>
			</g>
			<g>
				<path fill="#650000" d="M335.4,654.6c-11.3,0-22.3-0.4-32.8-1.3c-6.1-0.5-12.2-1.2-18-2l-0.7-0.1c-1.4-0.2-2.7-0.4-4-0.6
					c-7.4-1.1-14.7-2.5-21.5-4.2l-4-1l1.3-3.9c10.8-31.7,40.6-53,74.1-53c34.7,0,65.7,23.3,75.3,56.8l1.2,4.2l-4.4,0.6
					c-6.7,0.9-13.3,1.6-19.7,2.2l-0.7,0.1c-0.5,0-1,0.1-1.5,0.1c-2.5,0.2-5,0.5-7.6,0.7l-0.3,0c-5.2,0.4-10.2,0.7-14.9,0.9
					c-3.2,0.2-6.2,0.3-9,0.3l-0.6,0C343.6,654.6,339.4,654.6,335.4,654.6z M285.1,643.8l0.2,0c5.8,0.8,11.8,1.5,17.9,2
					c13.9,1.1,28.6,1.5,43.7,1.1l0,0l0.6,0c2.9-0.1,5.9-0.2,9.3-0.3c4.6-0.2,9.6-0.5,14.7-0.9l0.3,0c2.4-0.2,4.9-0.4,7.5-0.6
					c0.5,0,0.9-0.1,1.3-0.1l0.7-0.1c4.8-0.5,9.8-1,14.9-1.6c-9.9-27.9-36.7-47-66.6-47c-28.8,0-54.6,17.5-65.4,44
					c5.3,1.2,10.9,2.2,16.7,3.1c1.3,0.2,2.7,0.4,4,0.6L285.1,643.8z"/>
			</g>
			<g>
				<path fill="#650000" d="M335.4,654.6c-11.3,0-22.3-0.4-32.8-1.3c-6.1-0.5-12.2-1.2-18-2l-0.7-0.1c-1.4-0.2-2.7-0.4-4-0.6
					l-4.7-0.7l1.8-4.4c8.7-21.7,29.5-35.7,52.9-35.7c23.9,0,45.4,15.1,53.6,37.6l1.7,4.6l-4.9,0.5c-2.6,0.2-5.1,0.5-7.7,0.7l-0.3,0
					c-5.2,0.4-10.2,0.7-14.9,0.9c-3.2,0.2-6.2,0.3-9,0.3l-0.6,0C343.6,654.6,339.4,654.6,335.4,654.6z M286,643.9
					c5.6,0.8,11.4,1.4,17.2,1.9c13.9,1.1,28.6,1.5,43.7,1.1l0,0l0.6,0c2.9-0.1,5.9-0.2,9.3-0.3c4.6-0.2,9.6-0.5,14.7-0.9l0.3,0
					c0.8-0.1,1.5-0.1,2.3-0.2c-8.2-16.9-25.5-28-44.5-28C311.1,617.4,294.5,627.7,286,643.9z"/>
			</g>
			<g>
				<path fill="#650000" d="M335.4,654.6c-11.3,0-22.3-0.4-32.8-1.3l-6.3-0.5l3.4-5.3c6.6-10.3,17.8-16.4,30-16.4
					c12.6,0,24,6.4,30.6,17.2l3.3,5.5l-6.4,0.3c-3.3,0.2-6.2,0.3-9,0.3l-0.6,0C343.6,654.6,339.4,654.6,335.4,654.6z M310.5,646.3
					c11.7,0.7,23.9,0.9,36.4,0.6l0,0l0.6,0c0.7,0,1.3,0,2-0.1c-5.2-5.2-12.2-8.1-19.8-8.1C322.5,638.7,315.7,641.5,310.5,646.3z"/>
			</g>
			<g opacity="0.3">
				<path fill="#650000" d="M422.5,643.2c-3.2,0.5-6.4,1-9.6,1.5l0,0c-1.3,0.2-2.7,0.4-4,0.6c-2.5,0.4-5.1,0.7-7.6,1
					c-6.7,0.9-13.2,1.6-19.6,2.2c-0.7,0.1-1.4,0.1-2,0.2c-2.6,0.2-5.1,0.5-7.6,0.7l-0.3,0c-5,0.4-10,0.7-14.8,0.9
					c-3.2,0.2-6.3,0.3-9.4,0.3l0,0c-13,0.3-25.2,0.1-36.6-0.5c26.9-2.9,54.3-17.8,82.8-54.4C407.6,608.3,417.8,624.7,422.5,643.2z"
					/>
			</g>
		</g>
		<g>
			<g>
				<path fill="#F9B800" d="M598.1,576.4c-2.4,2-5,3.9-7.8,5.9c-3,2.1-6.1,4.3-9.5,6.4c-1.5,0.9-3,1.9-4.6,2.8
					c-4.3,2.6-8.9,5.2-13.8,7.8c-1.7,0.9-3.5,1.8-5.3,2.7c-1.5,0.8-3.1,1.5-4.6,2.3c-0.5,0.2-0.9,0.4-1.4,0.7
					c-2.6,1.2-5.3,2.5-8,3.7c-8.2,3.6-17.1,7.2-26.6,10.6c-2.4,0.9-4.8,1.7-7.3,2.6c-7.6,2.6-15.6,5.1-24,7.5
					c-3.1,0.9-6.2,1.7-9.3,2.6c-2.1,0.6-4.2,1.1-6.3,1.6c0,0,0,0,0,0c-0.2,0-0.4,0.1-0.6,0.1h0l0,0c-1.5,0.4-3,0.7-4.5,1.1
					c-2.5,0.6-5.1,1.2-7.6,1.8c0,0-0.1,0-0.1,0c-4.3,1-8.6,1.9-13,2.8c-3.3,0.7-6.7,1.3-10.2,2c-2.5,0.5-5.1,0.9-7.6,1.4
					c-1,0.2-2.1,0.4-3.1,0.5c-0.9-5.2-1.4-10.6-1.4-16.1c0-5.6,0.5-11,1.4-16.4c7.8-45,47.1-79.4,94.3-79.4c6.4,0,12.7,0.6,18.8,1.9
					C562,538.5,584.4,554.5,598.1,576.4z"/>
			</g>
			<g opacity="0.55">
				<path fill="#FFFFFF" d="M480.3,562.3c1.8-1.1,3.7-2,5.6-2.9c5.4-2.5,7.8-8.9,5.3-14.3l-0.1-0.2c-2.5-5.5-9-7.9-14.5-5.3
					c-2.7,1.3-5.4,2.8-7.7,4.3c-5.1,3.2-6.6,9.9-3.4,14.9l0,0C468.8,563.7,475.3,565.3,480.3,562.3z"/>
			</g>
			<g opacity="0.55">
				<path fill="#FFFFFF" d="M491.4,579.6c1.8-1.1,3.7-2,5.6-2.9c5.4-2.5,7.8-8.9,5.3-14.3l-0.1-0.2c-2.5-5.5-9-7.9-14.5-5.3
					c-2.7,1.3-5.4,2.8-7.7,4.3c-5.1,3.2-6.6,9.9-3.4,14.9l0,0C479.9,581,486.3,582.5,491.4,579.6z"/>
			</g>
			<g opacity="0.55">
				<path fill="#FFFFFF" d="M500.6,597.9c1.9-0.9,3.9-1.7,5.9-2.4c5.6-2,8.6-8.2,6.6-13.8l-0.1-0.2c-2-5.7-8.3-8.7-13.9-6.6
					c-2.9,1.1-5.6,2.3-8.1,3.5c-5.3,2.7-7.4,9.2-4.7,14.5l0,0C489,598.2,495.2,600.3,500.6,597.9z"/>
			</g>
			<g opacity="0.3">
				<path fill="#650000" d="M598.1,576.4c-2.4,2-5,3.9-7.8,5.9c-3,2.1-6.1,4.3-9.5,6.4c-1.5,0.9-3,1.9-4.6,2.8
					c-4.3,2.6-8.9,5.2-13.8,7.8c-1.7,0.9-3.5,1.8-5.3,2.7c-1.5,0.8-3.1,1.5-4.6,2.3c-0.5,0.2-0.9,0.4-1.4,0.7
					c-2.6,1.2-5.3,2.5-8,3.7c-8.2,3.6-17.1,7.2-26.6,10.6c-2.4,0.9-4.8,1.7-7.3,2.6c-7.6,2.6-15.6,5.1-24,7.5
					c-3.1,0.9-6.2,1.7-9.3,2.6c-2.1,0.6-4.2,1.1-6.3,1.6c0,0,0,0,0,0c-0.2,0-0.4,0.1-0.6,0.1h0l0,0c-1.5,0.4-3,0.7-4.5,1.1
					c-2.5,0.6-5.1,1.2-7.6,1.8c0,0-0.1,0-0.1,0c-4.3,1-8.6,1.9-13,2.8c-3.3,0.7-6.7,1.3-10.2,2c-2.5,0.5-5.1,0.9-7.6,1.4
					c-1,0.2-2.1,0.4-3.1,0.5c-0.9-5.2-1.4-10.6-1.4-16.1c0-5.6,0.5-11,1.4-16.4c83.8,11.7,128.5-8.4,113.1-77.5
					C562,538.5,584.4,554.5,598.1,576.4z"/>
			</g>
			<g>
				<path fill="#650000" d="M419.1,648.1l-0.7-4.1c-0.9-5.5-1.4-11.2-1.4-16.8c0-55.2,44.9-100,100-100c34.6,0,66.3,17.6,84.8,47
					l2,3.2l-3,2.4c-2.4,2-5,4-8,6.1c-3,2.2-6.3,4.4-9.7,6.6c-1.5,1-3.1,1.9-4.7,2.9c-4.3,2.6-9.1,5.3-14,7.9
					c-1.8,0.9-3.6,1.9-5.4,2.8c-1.5,0.8-3.1,1.5-4.7,2.3l-1.4,0.7c-2.9,1.4-5.6,2.6-8.1,3.7c-8.4,3.7-17.4,7.4-26.8,10.7
					c-2.4,0.9-4.9,1.7-7.4,2.6c-7.6,2.6-15.8,5.1-24.2,7.5c-3.1,0.9-6.2,1.7-9.4,2.6c-1,0.3-2.1,0.6-3.1,0.8v0.1l-3.3,0.8
					c0,0-0.1,0-0.1,0l-1.6,0.4c-1.2,0.3-2.3,0.6-3.5,0.8c-2.3,0.6-4.7,1.1-7.1,1.6l-0.7,0.2c-4.5,1-8.9,1.9-13.1,2.8
					c-3.2,0.6-6.5,1.3-10.2,2c-2.5,0.5-5.1,0.9-7.7,1.4c-1.1,0.2-2.2,0.4-3.2,0.5L419.1,648.1z M517,535.7
					c-50.4,0-91.4,41-91.4,91.4c0,3.7,0.2,7.4,0.7,11.1c2.1-0.4,4.2-0.7,6.3-1.1c3.7-0.7,7-1.3,10.1-2c3.9-0.8,7.8-1.6,11.8-2.5l0,0
					l1.2-0.3c2.5-0.6,5.1-1.1,7.5-1.7c0.6-0.1,1.3-0.3,1.9-0.4v-0.9l3.8,0c1.9-0.5,3.8-1,5.7-1.5c3.2-0.8,6.3-1.7,9.3-2.5
					c8.3-2.4,16.4-4.8,23.8-7.4c2.5-0.8,4.9-1.7,7.2-2.5c9.2-3.3,18-6.9,26.3-10.5c2.5-1.1,5.1-2.3,7.9-3.6l1.3-0.7
					c1.6-0.7,3.1-1.5,4.6-2.2c1.8-0.9,3.5-1.8,5.2-2.7c4.8-2.5,9.4-5.1,13.6-7.7c1.6-0.9,3.1-1.9,4.5-2.8c3.3-2.1,6.4-4.2,9.3-6.3
					c1.6-1.2,3.2-2.3,4.6-3.4C575.2,550.5,547.4,535.7,517,535.7z"/>
			</g>
			<g>
				<path fill="#650000" d="M440.4,643.9l-0.6-3.9c-0.7-4.2-1.1-8.6-1.1-12.9c0-43.2,35.1-78.3,78.3-78.3c27.2,0,52.9,14.5,67,37.9
					l1.9,3.2l-3.1,2c-1.5,1-3.1,1.9-4.7,2.9c-4.3,2.6-9,5.3-14,7.9c-1.8,0.9-3.5,1.9-5.4,2.8c-1.5,0.8-3.1,1.5-4.7,2.3l-1.4,0.7
					c-2.9,1.4-5.6,2.6-8.1,3.7c-8.4,3.7-17.4,7.3-26.8,10.7c-2.4,0.9-4.9,1.7-7.4,2.6c-7.6,2.6-15.7,5.1-24.2,7.5
					c-3.1,0.9-6.2,1.7-9.4,2.6c-1.1,0.3-2.3,0.6-3.5,0.9v0.1l-2.9,0.7c-0.1,0-0.1,0-0.2,0l-1.5,0.4c-1.1,0.3-2.3,0.6-3.5,0.8
					c-2.3,0.6-4.7,1.1-7.1,1.6l-0.7,0.2c-4.4,1-8.9,1.9-13.1,2.8L440.4,643.9z M517,556.5c-39,0-70.7,31.7-70.7,70.7
					c0,2.6,0.1,5.2,0.4,7.7c2.6-0.5,5.3-1.1,8-1.7l0,0l1.1-0.2c2.6-0.6,5.1-1.1,7.6-1.7c0.8-0.2,1.5-0.4,2.3-0.5v-0.8l3.3,0
					c2-0.5,3.9-1,5.8-1.5c3.2-0.8,6.3-1.7,9.3-2.5c8.3-2.4,16.4-4.8,23.8-7.4c2.5-0.8,4.9-1.7,7.2-2.5c9.2-3.3,18.1-6.9,26.3-10.5
					c2.5-1.1,5.1-2.3,7.9-3.6l1.4-0.7c1.6-0.7,3.1-1.5,4.6-2.2c1.8-0.9,3.5-1.8,5.2-2.7c4.8-2.5,9.4-5.1,13.6-7.7
					c0.4-0.3,0.9-0.5,1.3-0.8C562.4,568.3,540.3,556.5,517,556.5z"/>
			</g>
			<g>
				<path fill="#650000" d="M461.2,639.4l-0.6-4.1c-0.4-2.7-0.6-5.4-0.6-8.2c0-31.4,25.6-57,57-57c20,0,38.1,10.2,48.6,27.3l2.1,3.5
					l-3.6,1.9c-1.8,0.9-3.5,1.9-5.4,2.8c-1.5,0.8-3.1,1.5-4.7,2.3l-1.4,0.7c-2.9,1.4-5.6,2.6-8.1,3.7c-8.4,3.7-17.4,7.3-26.8,10.7
					c-2.4,0.9-4.9,1.7-7.4,2.6c-7.6,2.6-15.7,5.1-24.2,7.5c-3.1,0.9-6.2,1.7-9.4,2.6c-1.1,0.3-2.3,0.6-3.5,0.9v0.1l-2.9,0.7
					c-0.1,0-0.1,0-0.2,0l-1.5,0.4c-1.1,0.3-2.3,0.6-3.5,0.8L461.2,639.4z M517,577.7c-27.2,0-49.4,22.2-49.4,49.4
					c0,0.9,0,1.8,0.1,2.6l1.4,0c2-0.5,3.9-1,5.8-1.5c3.2-0.8,6.3-1.7,9.3-2.5c8.3-2.4,16.4-4.8,23.8-7.4c2.5-0.8,4.9-1.7,7.2-2.5
					c9.2-3.3,18.1-6.9,26.3-10.5c2.5-1.1,5.1-2.3,7.9-3.6l1.4-0.7c1.6-0.7,3.1-1.5,4.6-2.2c0.5-0.2,1-0.5,1.5-0.7
					C547.5,585.2,532.9,577.7,517,577.7z"/>
			</g>
			<g>
				<path fill="#650000" d="M481.7,634.3l-0.4-4.6c-0.1-0.8-0.1-1.7-0.1-2.5c0-19.7,16-35.7,35.7-35.7c11.6,0,22.5,5.6,29.2,15.1
					l2.7,3.8l-4.2,1.9c-8.4,3.7-17.4,7.3-26.8,10.7c-2.4,0.9-4.9,1.7-7.4,2.6c-7.6,2.6-15.7,5.1-24.2,7.5L481.7,634.3z M517,599
					c-14.6,0-26.6,11.1-28,25.3c6.6-1.9,13-3.9,19-6c2.5-0.8,4.9-1.7,7.2-2.5c7.5-2.7,14.8-5.6,21.7-8.5
					C531.6,602,524.5,599,517,599z"/>
			</g>
		</g>
		<g>
			<g>
				<path fill="#650000" d="M335.3,655.1c-17.8,0-34.6-1.1-50.3-3.2l0,0l-1.2-0.2c-9.6-1.3-18.7-3.1-27.1-5.2
					c-1.9-0.5-3.9-1-5.9-1.6c-7.5-2.1-14.4-4.5-20.2-7.1c-9.2-4-16.2-8.5-20.9-13.3c-1.6-1.7-1.6-4.4,0.1-6.1
					c1.7-1.6,4.4-1.6,6.1,0.1c3.8,3.9,10.1,7.9,18.1,11.4c5.5,2.4,11.9,4.7,19.1,6.7c1.9,0.5,3.8,1,5.6,1.5c8.1,2,17,3.7,26.3,5
					l0.3,0c18.9,2.6,39.7,3.6,61.8,3.1l0.3,0c7.9-0.2,16-0.6,24-1.2l0.3,0c3.1-0.2,6.3-0.5,9.5-0.8c8.7-0.8,17.7-1.9,26.9-3.2
					c1.3-0.2,2.6-0.4,3.9-0.6c4.6-0.7,8.8-1.4,12.8-2c2.5-0.4,5.1-0.9,7.6-1.3c7.5-1.4,15-2.9,22.3-4.5l0,0l0.9-0.2
					c3-0.7,6-1.4,8.9-2.1l0-0.3l4.1-0.7c2-0.5,4.1-1,6-1.6c11.4-3,22.5-6.3,33.1-9.9c2.4-0.8,4.9-1.7,7.2-2.5
					c12.1-4.3,23.5-9.1,34.2-14.1c0.4-0.2,0.9-0.4,1.3-0.6c1.6-0.8,3.2-1.5,4.6-2.3c6.6-3.3,13-6.8,18.9-10.3c5-3,9.7-6.1,13.8-9.1
					c21.8-15.6,30.5-29.2,29.3-35.7c-0.4-2.3,1.2-4.6,3.5-5c2.3-0.4,4.6,1.2,5,3.5c2,11.7-9.9,27.8-32.8,44.2
					c-4.3,3.1-9.2,6.3-14.4,9.5c-6.1,3.7-12.6,7.2-19.4,10.7c-1.5,0.8-3.1,1.5-4.7,2.3c-0.4,0.2-0.9,0.4-1.4,0.7
					c-10.8,5.2-22.6,10-34.9,14.5c-2.4,0.9-4.9,1.7-7.4,2.6c-10.8,3.7-22.1,7.1-33.7,10.1c-1.4,0.4-2.8,0.7-4.2,1.1l-2.2,0.6
					c-0.1,0-0.3,0.1-0.4,0.1l-0.2,0.1c-3.7,0.9-7.5,1.8-11.4,2.7l-0.1,0.1l-0.9,0.2c-7.6,1.7-15.4,3.3-23.3,4.8
					c-2.5,0.5-5.1,0.9-7.7,1.4c-4.1,0.7-8.3,1.4-12.9,2.1c-1.4,0.2-2.7,0.4-4.1,0.6c-9.3,1.3-18.5,2.4-27.3,3.2
					c-3.3,0.3-6.5,0.6-9.7,0.8l-0.3,0c-8.1,0.6-16.2,1-24.1,1.3l-0.3,0C343.5,655.1,339.4,655.1,335.3,655.1z"/>
			</g>
		</g>
		<g>
			<g>
				<g>
					<path fill="#650000" d="M335.3,655.1c-17.8,0-34.7-1.1-50.4-3.2l0,0l-1.1-0.2c-9.6-1.3-18.7-3.1-27.1-5.2
						c-1.9-0.5-3.9-1-5.9-1.6c-7.5-2.1-14.3-4.5-20.2-7.1c-9.2-4-16.2-8.5-20.9-13.3c-1.6-1.7-1.6-4.4,0.1-6.1
						c1.7-1.6,4.4-1.6,6.1,0.1c3.8,3.9,10.1,7.9,18.1,11.4c5.5,2.4,11.9,4.7,19.1,6.7c1.9,0.5,3.8,1,5.6,1.5c8.1,2,17,3.7,26.3,5
						l0.3,0c18.9,2.6,39.7,3.6,61.8,3.1l0,0l0.4,0c7.9-0.2,16-0.6,24-1.2l0.3,0c3.1-0.2,6.3-0.5,9.5-0.8c8.7-0.8,17.7-1.9,26.9-3.2
						c1.3-0.2,2.6-0.4,3.9-0.6c4.6-0.7,8.7-1.4,12.8-2c2.5-0.4,5.1-0.9,7.6-1.3c7.5-1.4,15-2.9,22.3-4.5l0,0l0.9-0.2
						c3-0.7,5.9-1.3,8.8-2.1l0-0.2l4-0.8c2.1-0.5,4.1-1,6.1-1.6c11.4-3,22.5-6.3,33.1-9.9c2.4-0.8,4.9-1.7,7.2-2.5
						c12.1-4.3,23.5-9.1,34.2-14.1c0.4-0.2,0.9-0.4,1.3-0.6c1.6-0.8,3.2-1.5,4.6-2.3c6.6-3.3,13-6.8,18.9-10.3c5-3,9.7-6.1,13.8-9.1
						c21.8-15.6,30.5-29.2,29.3-35.7c-0.4-2.3,1.2-4.6,3.5-5c2.3-0.4,4.6,1.2,5,3.5c2,11.7-9.9,27.8-32.8,44.2
						c-4.3,3.1-9.2,6.3-14.4,9.5c-6.1,3.7-12.6,7.2-19.4,10.7c-1.5,0.8-3.1,1.5-4.7,2.3c-0.4,0.2-0.9,0.4-1.4,0.7
						c-10.8,5.2-22.6,10-34.9,14.5c-2.4,0.9-4.9,1.7-7.4,2.6c-10.8,3.7-22.1,7.1-33.7,10.1c-1.6,0.4-3.3,0.9-5,1.3l-1.3,0.3
						c-0.2,0-0.3,0.1-0.5,0.1l-0.2,0.1c-3.7,0.9-7.5,1.8-11.4,2.7l-0.1,0.1l-1,0.2c-7.6,1.7-15.5,3.3-23.3,4.8
						c-2.5,0.5-5.1,0.9-7.7,1.4c-4.1,0.7-8.3,1.4-12.9,2.1c-1.4,0.2-2.7,0.4-4.1,0.6c-9.3,1.3-18.5,2.4-27.3,3.2
						c-3.3,0.3-6.5,0.6-9.7,0.8l-0.3,0c-8.1,0.6-16.2,1-24.1,1.3l-0.3,0C343.5,655.1,339.4,655.1,335.3,655.1z"/>
				</g>
			</g>
		</g>
	</g>
</g>
</svg>
