<?xml version="1.0" encoding="utf-8"?>
<!-- Generator: Adobe Illustrator 23.0.5, SVG Export Plug-In . SVG Version: 6.00 Build 0)  -->
<svg version="1.1" id="Layer_1" xmlns="http://www.w3.org/2000/svg" xmlns:xlink="http://www.w3.org/1999/xlink" x="0px" y="0px"
	 viewBox="0 0 1000 1000" style="enable-background:new 0 0 1000 1000;" xml:space="preserve">
<style type="text/css">
	.st0{fill:#FFD283;}
	.st1{fill:#F7E9CD;}
	.st2{fill:url(#SVGID_1_);}
	.st3{fill:#DABC8B;}
	.st4{fill:#FD5A70;}
	.st5{fill:#FFCB39;}
</style>
<g>
	<circle class="st0" cx="500" cy="500" r="500"/>
</g>
<g>
	<g>
		<path class="st1" d="M589.8,706.9c-0.5,0-0.9-0.1-1.4-0.4c-65-29.3-130.5-60.3-193.9-90.4c-37.3-17.6-74.5-35.3-111.9-52.7
			c-0.5-0.2-0.9-0.5-1.2-1c-1.3-1.4-2.3-2.9-1.3-5c15.1-32.7,1.1-67.7-34.1-85.2c-0.9-0.4-1.4-1-1.6-1.7c-0.2-0.9,0-1.9,0.7-2.9
			c0.3-0.5,0.5-1,0.6-1.6s0.1-1.1,0.3-1.4c6.8-14.6,13.8-29.2,20.9-43.7c14.3-29.7,29.1-60.4,41.9-91.3c0.2-0.6,0.5-0.9,1-1.2
			c0.2-0.2,0.5-0.4,0.6-0.6c0.5-0.5,1.7-1.8,3.5-1.7c0.5,0,0.9,0.1,1.4,0.4c8.4,3.7,17,5.8,25.6,6.3c26.7,1.6,49.4-12.2,60.9-36.8
			c0.6-1.2,1.3-1.5,1.9-1.6c1.1-0.3,1.6-0.4,2.1-0.4s0.9,0.1,1.4,0.3c64.4,29.1,129.3,59.8,192.1,89.6
			c37.8,17.9,75.7,35.8,113.6,53.5c0.5,0.2,0.9,0.5,1.2,1c1.3,1.3,2.3,2.9,1.3,5c-15.1,32.7-1.1,67.7,34,85.1
			c1.4,0.7,1.6,1.5,1.6,1.8c0.2,1-0.3,2.3-1.2,3.3c-0.4,0.5-0.7,1.1-0.8,1.8l-0.1,1c-12.7,30.6-27.5,61.3-41.8,90.9
			c-7,14.6-14,29.1-20.8,43.7c-1.1,2.2-2.7,3.8-4.7,3.7l0,0c-0.5,0-1-0.2-1.5-0.4c-8.4-3.7-17-5.8-25.6-6.3
			c-26.7-1.6-49.4,12.2-60.9,36.8c-0.6,1.3-1.3,1.5-1.8,1.6C590.8,706.9,590.3,706.9,589.8,706.9z"/>
		<linearGradient id="SVGID_1_" gradientUnits="userSpaceOnUse" x1="149.9676" y1="500.15" x2="850.1591" y2="500.15">
			<stop  offset="0" style="stop-color:#F45B75"/>
			<stop  offset="1" style="stop-color:#F35369"/>
		</linearGradient>
		<path class="st2" d="M848.2,506.1c-9-4.9-14.8-10.1-18-15.9c-3.8-7.1-4.4-14.7-1.8-23.3c0.5-1.7-0.3-3.5-1.9-4.2
			c-84.8-39.4-169.6-78.7-254.4-118s-169.6-78.6-254.4-118c-0.4-0.2-0.8-0.3-1.3-0.3c-1.2-0.1-2.4,0.5-3.1,1.5
			c-6.3,9.1-15.4,13.4-27.1,12.7c-4.8-0.3-9.9-1.4-15.3-3.3c-0.3-0.1-0.6-0.2-1-0.2c-1.4-0.1-2.8,0.7-3.4,2l-6.6,14.3
			c-0.8,1.7-0.1,3.7,1.5,4.6c9,4.9,14.9,10.1,18,16c4.5,8.3,4.6,17.1,0.2,28c0,0.1-0.4,0.9-0.4,0.9c-0.2,0.5-0.5,0.9-0.9,1.2
			c-0.2,0.2-0.5,0.5-0.6,0.8c-6.3,10.1-15.8,14.8-28.1,14.1c-4.8-0.3-9.9-1.4-15.2-3.3c-0.3-0.1-0.6-0.2-1-0.2
			c-1.4-0.1-2.8,0.7-3.4,2l-6.6,14.2c-0.8,1.7-0.1,3.7,1.5,4.6c9,4.9,14.9,10.1,18,15.9c4.5,8.3,4.6,17.1,0.3,27.7
			c0,0.1-0.1,0.2-0.1,0.4c-0.1,0.2-0.2,0.5-0.4,0.9c-0.2,0.5-0.5,0.9-0.8,1.2c-0.3,0.2-0.5,0.5-0.7,0.8
			c-6.3,10.1-15.8,14.9-28.1,14.2c-4.8-0.3-9.9-1.4-15.2-3.3c-0.3-0.1-0.7-0.2-1-0.2c-1.4-0.1-2.8,0.7-3.4,2l-6.6,14.3
			c-0.8,1.7-0.1,3.7,1.5,4.6c9,4.9,14.9,10.1,18,16c4.5,8.3,4.6,17,0.4,27.4c-0.1,0.1-0.2,0.4-0.2,0.7c-0.1,0.2-0.2,0.5-0.4,0.9
			c-0.2,0.5-0.5,0.9-0.9,1.2c-0.2,0.2-0.4,0.5-0.6,0.7c-6.3,10.1-15.8,14.9-28.1,14.2c-4.8-0.3-9.9-1.4-15.2-3.3
			c-0.3-0.1-0.6-0.2-1-0.2c-1.4-0.1-2.8,0.7-3.4,2l-6.7,14.3c-0.8,1.7-0.1,3.7,1.5,4.6c8.9,4.9,14.8,10.1,18,15.9
			c3.6,6.8,4.4,14,2.2,22c-0.4,1.6,0.4,3.4,1.9,4.1c84.3,39.3,168.4,78.9,252.6,118.5c83.6,39.4,170.1,80.1,255.3,119.8
			c0.4,0.2,0.8,0.3,1.3,0.3c1.2,0.1,2.4-0.5,3.2-1.6c6.3-9.7,15.6-14.2,27.7-13.5c4.8,0.3,9.9,1.4,15.2,3.3c0.3,0.1,0.6,0.2,1,0.2
			c1.4,0.1,2.8-0.7,3.4-2l6.6-14.3c0.8-1.7,0.1-3.7-1.5-4.6c-8.9-4.9-14.8-10.1-18-15.9c-4.4-8.2-4.6-16.9-0.3-27.8
			c0.1-0.2,0.2-0.3,0.2-0.3s0.3-0.7,0.3-0.8c0.3-0.6,0.6-1,0.9-1.3c0.2-0.2,0.5-0.5,0.7-0.8c6.3-10.1,15.8-14.9,28.1-14.1
			c4.8,0.3,9.9,1.4,15.2,3.3c0.3,0.1,0.6,0.2,1,0.2c1.4,0.1,2.8-0.7,3.4-2l6.6-14.2c0.8-1.7,0.1-3.7-1.5-4.6c-9-4.9-14.9-10.1-18-16
			c-4.5-8.4-4.6-17.1-0.3-27.7c0-0.1,0.1-0.2,0.1-0.3c0.1-0.2,0.2-0.5,0.4-0.9c0.2-0.5,0.5-0.9,0.8-1.2c0.3-0.2,0.5-0.5,0.7-0.8
			c6.3-10.1,15.7-14.8,28.1-14.1c4.8,0.3,9.9,1.4,15.2,3.3c0.3,0.1,0.6,0.2,1,0.2c1.4,0.1,2.8-0.7,3.4-2l6.6-14.3
			c0.8-1.7,0.1-3.7-1.5-4.6c-8.9-4.9-14.8-10.1-18-15.9c-4.5-8.3-4.6-17.1-0.5-27.3c0.1-0.2,0.2-0.5,0.3-0.8
			c0.1-0.2,0.2-0.5,0.4-0.8c0.3-0.6,0.6-1,0.9-1.3c0.3-0.2,0.5-0.5,0.7-0.8c6.3-10.1,15.8-14.8,28.1-14.1c4.8,0.3,9.9,1.4,15.2,3.3
			c0.3,0.1,0.6,0.2,1,0.2c1.4,0.1,2.8-0.7,3.4-2l6.7-14.3C850.5,509,849.8,507,848.2,506.1z M749.9,533.8c-0.4,0.5-0.7,1.1-0.8,1.8
			l-0.1,1c-12.7,30.6-27.5,61.3-41.8,90.9c-7,14.6-14,29.1-20.8,43.7c-1.1,2.2-2.7,3.8-4.7,3.7c-0.5,0-1-0.2-1.5-0.4
			c-8.4-3.7-17-5.8-25.6-6.3c-26.7-1.6-49.4,12.2-60.9,36.8c-0.6,1.3-1.3,1.5-1.8,1.6c-1.1,0.3-1.6,0.4-2.1,0.4s-0.9-0.1-1.4-0.4
			c-65-29.3-130.5-60.3-193.9-90.4c-37.3-17.6-74.5-35.3-111.9-52.7c-0.5-0.2-0.9-0.5-1.2-1c-1.3-1.4-2.3-2.9-1.3-5
			c15.1-32.7,1.1-67.7-34.1-85.2c-0.9-0.4-1.4-1-1.6-1.7c-0.2-0.9,0-1.9,0.7-2.9c0.3-0.5,0.5-1,0.6-1.6s0.1-1.1,0.3-1.4
			c6.8-14.6,13.8-29.2,20.9-43.7c14.3-29.7,29.1-60.4,41.9-91.3c0.2-0.6,0.5-0.9,1-1.2c0.2-0.2,0.5-0.4,0.6-0.6
			c0.5-0.5,1.7-1.8,3.5-1.7c0.5,0,0.9,0.1,1.4,0.4c8.4,3.7,17,5.8,25.6,6.3c26.7,1.6,49.4-12.2,60.9-36.8c0.6-1.2,1.3-1.5,1.9-1.6
			c1.1-0.3,1.6-0.4,2.1-0.4s0.9,0.1,1.4,0.3c64.4,29.1,129.3,59.8,192.1,89.6c37.8,17.9,75.7,35.8,113.6,53.5c0.5,0.2,0.9,0.5,1.2,1
			c1.3,1.3,2.3,2.9,1.3,5c-15.1,32.7-1.1,67.7,34,85.1c1.4,0.7,1.6,1.5,1.6,1.8C751.3,531.5,750.8,532.8,749.9,533.8z"/>
		<g>
			<g>
				<path class="st3" d="M752.6,536.1c2.8-3.2,3.3-8.2-1.6-10.6c-31-15.3-47.6-47.6-32.4-80.5c1.5-3.4,0.4-6.5-1.7-8.6
					c-0.6-0.8-1.4-1.5-2.6-2.1c-102-47.5-203.2-96.8-305.8-143.1c-1.9-0.9-3.7-0.8-5.4-0.3c-1.8,0.3-3.5,1.3-4.6,3.6
					c-15.1,32.4-49.7,42.8-81.8,28.8c-3.6-1.6-6.9-0.1-9,2.3c-0.9,0.6-1.7,1.4-2.2,2.8c-18.9,45.7-41.8,90-62.7,134.9
					c-0.4,0.9-0.5,1.7-0.6,2.5c-2.1,3.2-2.1,7.6,2.3,9.7c31,15.4,47.6,47.6,32.4,80.5c-1.6,3.4-0.4,6.5,1.7,8.6
					c0.6,0.8,1.4,1.5,2.6,2c102,47.5,203.2,96.8,305.8,143.1c1.9,0.9,3.8,0.8,5.5,0.3c1.8-0.3,3.5-1.4,4.5-3.6
					c15.1-32.4,49.7-42.8,81.8-28.8c4.7,2,8.9-0.9,10.4-4.5c0.1-0.2,0.3-0.3,0.4-0.5c20.9-44.9,43.8-89.1,62.7-134.9
					C752.5,537.2,752.5,536.7,752.6,536.1z M678.5,662.3c-35.1-12-72.8-1.6-91.4,31.8c-98.8-44.7-196.5-92.1-294.8-138
					c12.5-35.4-2.6-70.9-35-89.9c19.9-42.4,41.3-84.3,59.4-127.5c35.2,12.1,73,1.8,91.6-31.7c98.8,44.7,196.5,92.1,294.8,138
					c-12.5,35.3,2.5,70.8,34.7,89.8C719.8,577.9,698.4,619.9,678.5,662.3z"/>
				<path class="st3" d="M676,649.9c0.1-0.2,0.2-0.3,0.3-0.4c16.9-36.3,35.5-72.1,50.7-109.1c1.5-2.1,1.6-5.2-1.4-6.7
					c-28.8-14.4-49.4-49-35-80.4c0.8-1.7,0.5-3.3-0.3-4.6c0-1.4-0.7-2.7-2.4-3.5c-89.8-41.9-178.7-85.8-269-126.6
					c-1-0.4-1.9-0.5-2.7-0.3c-1.9-0.6-3.9-0.2-5,2.2c-14.5,30.6-52.8,40.7-83,27.7c-0.9-0.4-1.8-0.4-2.6-0.3
					c-1.7-0.3-3.4,0.3-4.3,2.5c-14.9,36.2-33.1,71.3-49.7,106.8c-0.3,0.7-0.5,1.3-0.5,2c-0.6,1.9-0.1,4,2.1,5.2
					c27.4,14.4,41,55.2,29.4,83.5c-1.2,2.9,0.7,5,3.1,5.5c0.3,0.3,0.6,0.6,1,0.8c91.4,42.6,182.1,86.7,274,128.2
					c1.8,0.8,3.5,0.4,4.8-0.4c1.5,0.1,3.1-0.5,4-2.4c14.2-30.3,50.3-40.1,80.2-27.2c1.3,0.6,2.6,0.5,3.7,0.1c0.1,0,0.1,0,0.2,0h0.1
					C674.5,651.8,675.4,651.1,676,649.9z M582.2,672.3c-90.3-40.8-179.4-84.1-269.2-126c10.1-30.4-4.2-71.3-31.5-88.3
					c15.6-33.1,32.3-66,46.5-99.8c32.7,11.6,72.3,1.7,89.5-29.7c88.3,40,175.3,82.9,263.2,123.8c-12.8,33.6,5.7,70,36.1,87.5
					c-14.4,34.6-31.6,68.1-47.5,102C636.7,630.2,598.6,640.3,582.2,672.3z"/>
			</g>
			<g>
				<path class="st4" d="M498.6,517.2L391,566.8c-11.2-32.7-8.9-53,8.4-83.6L498.6,517.2z M419.4,505.7c11.4-4.9,1.6-18.6-11-11.3
					C397,501.4,407.6,511.4,419.4,505.7z M411.8,546l-5.9-2.7l-4.3,7.1l5.4,1.5L411.8,546z M412,521.6c-17.5,9.1,1.5,25.1,12.4,17
					C436.9,527.1,427.4,512.5,412,521.6z M438.7,516.8l1.9-6.2l-7.5-3.5l-0.7,5.8L438.7,516.8z M404.9,519.3l2.3-5l-5.9-2.7l-0.3,5
					L404.9,519.3z M460.8,526.1c11.3-9,8.6-18.4-7.3-10.5C443.3,519.9,450.4,535.4,460.8,526.1z"/>
				<g>
					<path class="st4" d="M494.1,400.1l-3.7,16.6l12.8-1.2c0,0-4.4-8.1-3.7-16L494.1,400.1z"/>
					<path class="st4" d="M511.7,395c8.3-0.2,16.6,1.6,19.5,4l-13.8,9.9c0,0,7.8-1.5,14.5,1.7l0.7,9.5c-7.5-3.5-12.9-5-24.5-4.3
						l14.9-14.4c0,0-11.9,3.6-12.3,4.5L511.7,395z"/>
					<path class="st4" d="M543.7,402.8c6.7,3.1,13.4,8.3,14.3,10.8l-15.2,4.1c0,0,7.1,2.3,11.8,7.5l-2.2,9.1
						c-5.1-6.5-8.5-10.1-18.1-13.5l17.1-8.3c0,0-10.8-0.9-11.6-1.3L543.7,402.8z"/>
					<path class="st4" d="M569.1,440.1c-4.9,1.8-19.6-6.1-4.9-11.4C572,425.2,574.9,438.7,569.1,440.1z M565.2,433.2
						c-4.9,1.8-0.3,5,1.3,3.7C568.6,436.8,569.3,431,565.2,433.2z"/>
					<path class="st4" d="M569.3,446.3c-0.1-2.1-1-6.6,4.3-9.2s5.8-12.5-0.5-16.5l-3.2,4.6c0,0,11.8,7.5,0.3,12.4
						c-4.9,1.8-4.3,7.1-4.3,7.1L569.3,446.3z"/>
					<path class="st4" d="M478.6,422.4l-17.1,10.4l-4.2-47.8c26.1-10.2,35.6,4.4,32.5,11.1c-3.8,10.4-19.5,11.3-19.5,11.3
						L478.6,422.4z M468.6,402.4c0,0,24-14.3-3.6-9.8L468.6,402.4z"/>
					<path class="st4" d="M496.4,390.9c3.2-2.6,5.9,2.7,2.6,5.3C496.1,398,494.4,393,496.4,390.9z"/>
				</g>
				<path class="st4" d="M586.7,553.2c10.6-20.5,9.6-42.4,2-63.2l-60.5,20.6l59.6-23.1c-7.9-17.9-21.6-34.5-38-45.2l-23.3,67.5
					l21.7-68.3c-9.6-5.5-20.9-9.7-32.5-11.1c-7.9-0.6-16.1-0.4-23.5,2.3l30.2,77.2l-32.6-76.3c-22.5,8.9-40.5,30-51,52.6l80.5,28.4
					l-78.5,43.8c10.9,22.4,27.8,34.3,45.2,38.4l35.4-78.2l-32.5,78.5c30.7,6.2,55.3-0.7,75.4-19.8l-38.8-60.9l40.8,58.7
					C570.2,571,583.9,559,586.7,553.2z"/>
				<path class="st5" d="M524.2,580.1c2.3-5,0.9-10.8-3.2-12.7c-4.2-1.9-9.5,0.7-11.8,5.7s-0.9,10.8,3.2,12.7
					C517.4,588.1,521.9,585.1,524.2,580.1z"/>
				<path class="st5" d="M532.3,543.1c0.3-5-2.3-8.2-5.2-8.5c-3.3,0.5-5.2,4.7-5.1,8.8c-0.3,5,2.3,8.2,5.2,8.5
					C529.2,551.9,532,548.1,532.3,543.1z"/>
				<path class="st5" d="M550.5,574c-0.2-6.2-2.7-9.4-5.6-9.8c-4.1,0.1-6.5,5.1-7.1,10.9c0.2,6.2,2.7,9.4,5.6,9.8
					C547.9,584,550.2,578.9,550.5,574z"/>
				<path class="st5" d="M472.4,573.2c3.7-16.6,19.5-11.3,15.2-2.1C484.2,580.7,469.2,589,472.4,573.2z"/>
				<path class="st5" d="M492.1,535.5c-9.1-0.2-14.1,12.8-4.2,11.3C496.5,545.7,503.2,535.6,492.1,535.5z"/>
				<path class="st5" d="M559.5,511c10.9-10.2,18.3,4.5,8.5,10.1C558.3,526.7,548.6,521.2,559.5,511z"/>
				<path class="st5" d="M538.1,513.2c6.9-6,10,2.6,5.5,5.6C537.9,522.3,531.2,519.2,538.1,513.2z"/>
				<path class="st5" d="M542.8,490c6.9-6,10,2.6,5.5,5.6C542.7,499.1,536.8,496.3,542.8,490z"/>
				<path class="st5" d="M550.8,464.2c2.2-11.2,13-8.2,9.9,0.6C557.2,472.2,548.6,475.4,550.8,464.2z"/>
				<path class="st5" d="M570.6,478.5c7.4-2.7,8,6.8,1.5,7.8C566.7,486.8,563.2,481.2,570.6,478.5z"/>
				<path class="st5" d="M531.6,442c14.1,2.5,6.7,18.4-2.9,14.9C518.7,452.2,517.5,439.5,531.6,442z"/>
				<path class="st5" d="M526.8,476.4c5.1,6.5-2.6,12-6,6.4C517.3,477,520.8,469.5,526.8,476.4z"/>
				<path class="st5" d="M505.6,488.9c5.1,6.5-2.6,12-6,6.4S499.7,482.1,505.6,488.9z"/>
				<path class="st5" d="M479.4,451.2c11-6.1,13.4,8.3,4.9,11.4C474.9,465.4,468.5,457.3,479.4,451.2z"/>
				<path class="st5" d="M469,475.9c10.9,5.1,2.1,17.3-4.6,12.1C456.8,482.4,458.1,470.8,469,475.9z"/>
				<path class="st5" d="M566.1,540.5c5.5-11.7,15.6-2.9,12.5,5.8C575.6,555.1,557.5,558.9,566.1,540.5z"/>
				
					<rect x="546.7" y="533.5" transform="matrix(0.4226 -0.9063 0.9063 0.4226 -168.3803 807.3093)" class="st5" width="5.5" height="4.6"/>
				
					<rect x="459" y="463.7" transform="matrix(0.4226 -0.9063 0.9063 0.4226 -156.2492 686.7197)" class="st5" width="3.7" height="4.6"/>
				
					<rect x="530.5" y="559.6" transform="matrix(0.4226 -0.9063 0.9063 0.4226 -201.3168 807.7112)" class="st5" width="5.5" height="4.6"/>
				<polygon class="st5" points="531.8,583.6 527.7,585.8 528.6,590.3 532.3,588.9 				"/>
				<polygon class="st5" points="517.3,553.4 513.2,555.6 515,560.5 519.1,558.3 				"/>
				<polygon class="st5" points="488.8,490.2 484.2,491.2 485.6,496.9 489.7,494.7 				"/>
				<polygon class="st5" points="507.9,436 504.2,437.4 504.8,442.7 509.7,440.9 				"/>
				<polygon class="st5" points="489,470 487.4,471.3 488.3,473.7 489.9,472.4 				"/>
				<polygon class="st5" points="518,456 515.5,456.9 516.4,459.3 518.8,458.4 				"/>
				<polygon class="st5" points="534.8,498.5 533.2,499.7 534.1,502.2 535.7,500.9 				"/>
				<polygon class="st5" points="549.1,476.6 546.6,477.5 547.5,479.9 549.1,478.7 				"/>
				<polygon class="st5" points="566.2,470.3 563.8,471.2 564.7,473.7 566.3,472.4 				"/>
				<polygon class="st5" points="580,521.6 577.6,522.5 578.5,524.9 580.1,523.6 				"/>
				<polygon class="st5" points="468.7,557.2 463.8,559 465.6,563.9 469.3,562.6 				"/>
			</g>
		</g>
	</g>
</g>
</svg>
